<svg width="24" height="25" viewBox="0 0 24 25" fill="none" xmlns="http://www.w3.org/2000/svg">
<mask id="mask0_112501_6047" style="mask-type:alpha" maskUnits="userSpaceOnUse" x="0" y="0" width="24" height="25">
<rect y="0.5" width="24" height="24" fill="#D9D9D9"/>
</mask>
<g mask="url(#mask0_112501_6047)">
<path d="M12.0002 19.7C10.8802 19.7 9.8102 19.875 8.7902 20.225C7.7702 20.575 6.8402 21.1 6.0002 21.8V22.1H18.0002V21.8C17.1602 21.1 16.2302 20.575 15.2102 20.225C14.1902 19.875 13.1202 19.7 12.0002 19.7ZM3.6002 20.72C4.6802 19.66 5.9352 18.825 7.3652 18.215C8.7952 17.605 10.3402 17.3 12.0002 17.3C13.6602 17.3 15.2052 17.605 16.6352 18.215C18.0652 18.825 19.3202 19.66 20.4002 20.72V5.3H3.6002V20.72ZM12.0002 14.9C10.8402 14.9 9.8502 14.49 9.0302 13.67C8.2102 12.85 7.8002 11.86 7.8002 10.7C7.8002 9.54 8.2102 8.55 9.0302 7.73C9.8502 6.91 10.8402 6.5 12.0002 6.5C13.1602 6.5 14.1502 6.91 14.9702 7.73C15.7902 8.55 16.2002 9.54 16.2002 10.7C16.2002 11.86 15.7902 12.85 14.9702 13.67C14.1502 14.49 13.1602 14.9 12.0002 14.9ZM12.0002 12.5C12.5002 12.5 12.9252 12.325 13.2752 11.975C13.6252 11.625 13.8002 11.2 13.8002 10.7C13.8002 10.2 13.6252 9.775 13.2752 9.425C12.9252 9.075 12.5002 8.9 12.0002 8.9C11.5002 8.9 11.0752 9.075 10.7252 9.425C10.3752 9.775 10.2002 10.2 10.2002 10.7C10.2002 11.2 10.3752 11.625 10.7252 11.975C11.0752 12.325 11.5002 12.5 12.0002 12.5ZM3.6002 24.5C2.9402 24.5 2.3752 24.265 1.9052 23.795C1.4352 23.325 1.2002 22.76 1.2002 22.1V5.3C1.2002 4.64 1.4352 4.075 1.9052 3.605C2.3752 3.135 2.9402 2.9 3.6002 2.9H4.8002V1.7C4.8002 1.03726 5.33745 0.5 6.0002 0.5C6.66294 0.5 7.2002 1.03726 7.2002 1.7V2.9H16.8002V1.7C16.8002 1.03726 17.3375 0.5 18.0002 0.5C18.6629 0.5 19.2002 1.03726 19.2002 1.7V2.9H20.4002C21.0602 2.9 21.6252 3.135 22.0952 3.605C22.5652 4.075 22.8002 4.64 22.8002 5.3V22.1C22.8002 22.76 22.5652 23.325 22.0952 23.795C21.6252 24.265 21.0602 24.5 20.4002 24.5H3.6002Z" fill="white"/>
</g>
</svg>
