<svg width="32" height="32" viewBox="0 0 32 32" fill="none" xmlns="http://www.w3.org/2000/svg">
<mask id="mask0_113488_5668" style="mask-type:alpha" maskUnits="userSpaceOnUse" x="4" y="4" width="24" height="24">
<rect x="4" y="4" width="24" height="24" fill="#D9D9D9"/>
</mask>
<g mask="url(#mask0_113488_5668)">
<path d="M15.9998 17.3998L11.0998 22.2998C10.9165 22.4831 10.6831 22.5748 10.3998 22.5748C10.1165 22.5748 9.88314 22.4831 9.6998 22.2998C9.51647 22.1165 9.4248 21.8831 9.4248 21.5998C9.4248 21.3165 9.51647 21.0831 9.6998 20.8998L14.5998 15.9998L9.6998 11.0998C9.51647 10.9165 9.4248 10.6831 9.4248 10.3998C9.4248 10.1165 9.51647 9.88314 9.6998 9.6998C9.88314 9.51647 10.1165 9.4248 10.3998 9.4248C10.6831 9.4248 10.9165 9.51647 11.0998 9.6998L15.9998 14.5998L20.8998 9.6998C21.0831 9.51647 21.3165 9.4248 21.5998 9.4248C21.8831 9.4248 22.1165 9.51647 22.2998 9.6998C22.4831 9.88314 22.5748 10.1165 22.5748 10.3998C22.5748 10.6831 22.4831 10.9165 22.2998 11.0998L17.3998 15.9998L22.2998 20.8998C22.4831 21.0831 22.5748 21.3165 22.5748 21.5998C22.5748 21.8831 22.4831 22.1165 22.2998 22.2998C22.1165 22.4831 21.8831 22.5748 21.5998 22.5748C21.3165 22.5748 21.0831 22.4831 20.8998 22.2998L15.9998 17.3998Z" fill="#2A3647"/>
</g>
</svg>
