<?xml version="1.0" encoding="utf-8"?>
<!-- Generator: Adobe Illustrator 28.0.0, SVG Export Plug-In . SVG Version: 6.00 Build 0)  -->
<svg version="1.1" id="Layer_1" xmlns="http://www.w3.org/2000/svg" xmlns:xlink="http://www.w3.org/1999/xlink" x="0px" y="0px"
	 viewBox="0 0 40 40" style="enable-background:new 0 0 40 40;" xml:space="preserve">
<style type="text/css">
	.st0{fill:#2A3647;}
	.st1{fill:none;stroke:#2A3647;stroke-width:2;stroke-linecap:round;stroke-miterlimit:10;}
</style>
<g>
	<path class="st0" d="M30,2c4.41,0,8,3.59,8,8v20c0,4.41-3.59,8-8,8H10c-4.41,0-8-3.59-8-8V10c0-4.41,3.59-8,8-8H30 M30,0H10
		C4.48,0,0,4.48,0,10v20c0,5.52,4.48,10,10,10h20c5.52,0,10-4.48,10-10V10C40,4.48,35.52,0,30,0L30,0z"/>
</g>
<line class="st1" x1="20" y1="10" x2="20" y2="30"/>
<line class="st1" x1="30" y1="20" x2="10" y2="20"/>
</svg>
