<svg width="25" height="21" viewBox="0 0 25 21" fill="none" xmlns="http://www.w3.org/2000/svg">
<path d="M18.7945 2.19207L18.7945 18.8075C18.7941 19.2969 18.5994 19.7662 18.2533 20.1124C17.9072 20.4585 17.4379 20.6531 16.9484 20.6536L13.2561 20.6536C12.7666 20.6531 12.2973 20.4585 11.9512 20.1124C11.6051 19.7662 11.4104 19.2969 11.4099 18.8075L11.4099 2.19207C11.4104 1.70259 11.6051 1.2333 11.9512 0.887186C12.2973 0.54107 12.7666 0.346408 13.2561 0.345918L16.9484 0.345918C17.4379 0.346408 17.9072 0.54107 18.2533 0.887185C18.5994 1.2333 18.7941 1.70259 18.7945 2.19207ZM13.2561 18.8075L16.9484 18.8075L16.9484 2.19207L13.2561 2.19207L13.2561 18.8075ZM13.2561 2.19207L13.2561 18.8075C13.2556 19.2969 13.0609 19.7662 12.7148 20.1123C12.3687 20.4584 11.8994 20.6531 11.4099 20.6536L7.71762 20.6536C7.22814 20.6531 6.75885 20.4584 6.41274 20.1123C6.06662 19.7662 5.87196 19.2969 5.87147 18.8074L5.87147 2.19206C5.87196 1.70258 6.06662 1.23328 6.41273 0.887167C6.75885 0.541052 7.22814 0.346389 7.71762 0.345901L11.4099 0.345901C11.8994 0.346389 12.3687 0.541051 12.7148 0.887166C13.0609 1.23328 13.2556 1.70259 13.2561 2.19207ZM7.71762 18.8074L11.4099 18.8075L11.4099 2.19207L7.71762 2.19206L7.71762 18.8074ZM7.71762 2.19206L7.71762 18.8074C7.71713 19.2969 7.52247 19.7662 7.17636 20.1123C6.83024 20.4584 6.36095 20.6531 5.87147 20.6536L2.17916 20.6536C1.68968 20.6531 1.22039 20.4584 0.874273 20.1123C0.528158 19.7662 0.333497 19.2969 0.333008 18.8074L0.333007 2.19206C0.333496 1.70258 0.528158 1.23328 0.874273 0.887167C1.22039 0.541052 1.68968 0.34639 2.17916 0.345901L5.87147 0.345901C6.36095 0.34639 6.83024 0.541052 7.17636 0.887167C7.52247 1.23328 7.71713 1.70258 7.71762 2.19206ZM2.17916 18.8074L5.87147 18.8074L5.87147 2.19206L2.17916 2.19206L2.17916 18.8074Z" fill="#CDCDCD"/>
<path d="M24.333 2.19228L24.333 18.8077C24.3325 19.2971 24.1379 19.7664 23.7917 20.1125C23.4456 20.4587 22.9763 20.6533 22.4869 20.6538L18.7945 20.6538C18.3051 20.6533 17.8358 20.4587 17.4897 20.1125C17.1435 19.7664 16.9489 19.2969 16.9484 18.8075L16.9484 2.19207C16.9489 1.70259 17.1435 1.2335 17.4897 0.887389C17.8358 0.541274 18.3051 0.346614 18.7945 0.346124L22.4869 0.346124C22.9763 0.346614 23.4456 0.541274 23.7917 0.887389C24.1379 1.2335 24.3325 1.7028 24.333 2.19228ZM18.7945 18.8075L22.4869 18.8077L22.4869 2.19228L18.7945 2.19207L18.7945 18.8075Z" fill="#CDCDCD"/>
</svg>
