<svg width="282" height="88" viewBox="0 0 282 88" fill="none" xmlns="http://www.w3.org/2000/svg">
<path d="M8.86257 45H1.11825L12.9183 10.8182H22.2315L34.0149 45H26.2706L17.7085 18.6293H17.4414L8.86257 45ZM8.37855 31.5643H26.6712V37.2056H8.37855V31.5643ZM46.2489 45.4173C44.3017 45.4173 42.5381 44.9165 40.9581 43.9151C39.3892 42.9026 38.143 41.4171 37.2195 39.4588C36.3071 37.4893 35.8509 35.0748 35.8509 32.2152C35.8509 29.2777 36.3237 26.8353 37.2695 24.8881C38.2153 22.9298 39.4727 21.4666 41.0415 20.4986C42.6216 19.5194 44.3518 19.0298 46.2322 19.0298C47.6676 19.0298 48.8638 19.2746 49.8207 19.7642C50.7887 20.2427 51.5676 20.8435 52.1573 21.5668C52.7582 22.2789 53.2144 22.9799 53.5259 23.6697H53.7429V10.8182H60.8363V45H53.8264V40.8942H53.5259C53.1921 41.6063 52.7192 42.3129 52.1072 43.0138C51.5064 43.7037 50.7219 44.2768 49.7539 44.733C48.797 45.1892 47.6287 45.4173 46.2489 45.4173ZM48.5021 39.7592C49.6482 39.7592 50.6162 39.4477 51.4062 38.8246C52.2074 38.1903 52.8194 37.3058 53.2422 36.1708C53.6761 35.0359 53.8931 33.7062 53.8931 32.1818C53.8931 30.6574 53.6817 29.3333 53.2589 28.2095C52.8361 27.0857 52.2241 26.2178 51.4229 25.6058C50.6218 24.9938 49.6482 24.6879 48.5021 24.6879C47.3338 24.6879 46.3491 25.005 45.5479 25.6392C44.7468 26.2734 44.1404 27.1525 43.7287 28.2763C43.317 29.4001 43.1112 30.7019 43.1112 32.1818C43.1112 33.6728 43.317 34.9914 43.7287 36.1374C44.1515 37.2724 44.7579 38.1625 45.5479 38.8079C46.3491 39.4421 47.3338 39.7592 48.5021 39.7592ZM76.1288 45.4173C74.1816 45.4173 72.418 44.9165 70.838 43.9151C69.2691 42.9026 68.0229 41.4171 67.0993 39.4588C66.1869 37.4893 65.7307 35.0748 65.7307 32.2152C65.7307 29.2777 66.2036 26.8353 67.1494 24.8881C68.0952 22.9298 69.3525 21.4666 70.9214 20.4986C72.5015 19.5194 74.2317 19.0298 76.1121 19.0298C77.5475 19.0298 78.7436 19.2746 79.7006 19.7642C80.6686 20.2427 81.4475 20.8435 82.0372 21.5668C82.6381 22.2789 83.0943 22.9799 83.4058 23.6697H83.6228V10.8182H90.7162V45H83.7062V40.8942H83.4058C83.072 41.6063 82.5991 42.3129 81.9871 43.0138C81.3863 43.7037 80.6018 44.2768 79.6338 44.733C78.6769 45.1892 77.5086 45.4173 76.1288 45.4173ZM78.382 39.7592C79.5281 39.7592 80.4961 39.4477 81.2861 38.8246C82.0873 38.1903 82.6992 37.3058 83.1221 36.1708C83.556 35.0359 83.773 33.7062 83.773 32.1818C83.773 30.6574 83.5616 29.3333 83.1388 28.2095C82.7159 27.0857 82.104 26.2178 81.3028 25.6058C80.5017 24.9938 79.5281 24.6879 78.382 24.6879C77.2137 24.6879 76.229 25.005 75.4278 25.6392C74.6267 26.2734 74.0203 27.1525 73.6086 28.2763C73.1969 29.4001 72.991 30.7019 72.991 32.1818C72.991 33.6728 73.1969 34.9914 73.6086 36.1374C74.0314 37.2724 74.6378 38.1625 75.4278 38.8079C76.229 39.4421 77.2137 39.7592 78.382 39.7592ZM119.023 45.5007C116.397 45.5007 114.138 44.9444 112.247 43.8317C110.366 42.7079 108.92 41.1501 107.907 39.1584C106.906 37.1667 106.405 34.8745 106.405 32.282C106.405 29.656 106.911 27.3527 107.924 25.3722C108.948 23.3804 110.4 21.8282 112.28 20.7156C114.161 19.5917 116.397 19.0298 118.99 19.0298C121.226 19.0298 123.184 19.436 124.865 20.2482C126.545 21.0605 127.874 22.201 128.854 23.6697C129.833 25.1385 130.372 26.8632 130.473 28.8438H123.763C123.574 27.5642 123.073 26.5349 122.261 25.756C121.46 24.966 120.408 24.571 119.106 24.571C118.005 24.571 117.042 24.8714 116.219 25.4723C115.407 26.062 114.773 26.9244 114.316 28.0593C113.86 29.1942 113.632 30.5684 113.632 32.1818C113.632 33.8175 113.855 35.2083 114.3 36.3544C114.756 37.5005 115.396 38.3739 116.219 38.9748C117.042 39.5756 118.005 39.8761 119.106 39.8761C119.919 39.8761 120.648 39.7092 121.293 39.3754C121.949 39.0415 122.489 38.5575 122.912 37.9233C123.346 37.2779 123.63 36.5046 123.763 35.6033H130.473C130.361 37.5617 129.827 39.2863 128.87 40.7773C127.925 42.2572 126.617 43.4144 124.948 44.2489C123.279 45.0835 121.304 45.5007 119.023 45.5007ZM146.608 45.5007C144.015 45.5007 141.773 44.9499 139.882 43.8484C138.001 42.7357 136.549 41.189 135.526 39.2085C134.502 37.2167 133.99 34.9079 133.99 32.282C133.99 29.6338 134.502 27.3194 135.526 25.3388C136.549 23.3471 138.001 21.8004 139.882 20.6989C141.773 19.5862 144.015 19.0298 146.608 19.0298C149.201 19.0298 151.437 19.5862 153.317 20.6989C155.209 21.8004 156.667 23.3471 157.69 25.3388C158.714 27.3194 159.226 29.6338 159.226 32.282C159.226 34.9079 158.714 37.2167 157.69 39.2085C156.667 41.189 155.209 42.7357 153.317 43.8484C151.437 44.9499 149.201 45.5007 146.608 45.5007ZM146.641 39.9929C147.821 39.9929 148.806 39.6591 149.596 38.9915C150.386 38.3127 150.981 37.3892 151.381 36.2209C151.793 35.0526 151.999 33.7229 151.999 32.2319C151.999 30.7409 151.793 29.4112 151.381 28.2429C150.981 27.0746 150.386 26.151 149.596 25.4723C148.806 24.7936 147.821 24.4542 146.641 24.4542C145.451 24.4542 144.449 24.7936 143.637 25.4723C142.836 26.151 142.23 27.0746 141.818 28.2429C141.417 29.4112 141.217 30.7409 141.217 32.2319C141.217 33.7229 141.417 35.0526 141.818 36.2209C142.23 37.3892 142.836 38.3127 143.637 38.9915C144.449 39.6591 145.451 39.9929 146.641 39.9929ZM170.959 30.179V45H163.849V19.3636H170.625V23.8867H170.926C171.493 22.3957 172.445 21.2163 173.78 20.3484C175.115 19.4693 176.734 19.0298 178.637 19.0298C180.417 19.0298 181.969 19.4193 183.293 20.1982C184.617 20.977 185.647 22.0897 186.381 23.5362C187.115 24.9716 187.483 26.6851 187.483 28.6768V45H180.373V29.9453C180.384 28.3764 179.983 27.1525 179.171 26.2734C178.359 25.3833 177.24 24.9382 175.816 24.9382C174.859 24.9382 174.013 25.1441 173.279 25.5558C172.556 25.9674 171.988 26.5683 171.577 27.3583C171.176 28.1372 170.97 29.0774 170.959 30.179ZM206.722 19.3636V24.7045H191.284V19.3636H206.722ZM194.789 13.2216H201.899V37.1222C201.899 37.7786 201.999 38.2905 202.199 38.6577C202.4 39.0137 202.678 39.2641 203.034 39.4087C203.401 39.5534 203.824 39.6257 204.302 39.6257C204.636 39.6257 204.97 39.5979 205.304 39.5423C205.638 39.4755 205.893 39.4254 206.071 39.392L207.19 44.6829C206.834 44.7942 206.333 44.9221 205.688 45.0668C205.042 45.2225 204.258 45.3171 203.334 45.3505C201.621 45.4173 200.119 45.1892 198.828 44.6662C197.548 44.1432 196.552 43.331 195.84 42.2294C195.128 41.1278 194.778 39.737 194.789 38.0568V13.2216ZM218.664 45.484C217.029 45.484 215.571 45.2003 214.291 44.6328C213.012 44.0542 211.999 43.203 211.254 42.0792C210.519 40.9442 210.152 39.5311 210.152 37.8398C210.152 36.4156 210.414 35.2195 210.937 34.2514C211.46 33.2834 212.172 32.5045 213.073 31.9148C213.974 31.325 214.998 30.88 216.144 30.5795C217.301 30.2791 218.514 30.0677 219.783 29.9453C221.274 29.7895 222.475 29.6449 223.388 29.5114C224.3 29.3667 224.962 29.1553 225.374 28.8771C225.786 28.599 225.991 28.1873 225.991 27.642V27.5419C225.991 26.4848 225.658 25.667 224.99 25.0884C224.333 24.5098 223.399 24.2205 222.186 24.2205C220.906 24.2205 219.888 24.5043 219.132 25.0717C218.375 25.6281 217.874 26.3291 217.63 27.1747L211.054 26.6406C211.387 25.0829 212.044 23.7365 213.023 22.6016C214.002 21.4555 215.265 20.5765 216.812 19.9645C218.369 19.3414 220.172 19.0298 222.219 19.0298C223.644 19.0298 225.007 19.1967 226.309 19.5305C227.621 19.8643 228.784 20.3817 229.797 21.0827C230.82 21.7837 231.627 22.685 232.217 23.7866C232.807 24.877 233.101 26.1844 233.101 27.7088V45H226.359V41.445H226.158C225.747 42.2461 225.196 42.9527 224.506 43.5646C223.816 44.1655 222.987 44.6384 222.019 44.9833C221.051 45.3171 219.933 45.484 218.664 45.484ZM220.701 40.5771C221.746 40.5771 222.67 40.3712 223.471 39.9595C224.272 39.5367 224.901 38.9692 225.357 38.2571C225.813 37.545 226.041 36.7383 226.041 35.837V33.1165C225.819 33.2611 225.513 33.3946 225.123 33.517C224.745 33.6283 224.317 33.734 223.838 33.8342C223.36 33.9232 222.881 34.0066 222.403 34.0845C221.925 34.1513 221.491 34.2125 221.101 34.2681C220.267 34.3905 219.538 34.5852 218.915 34.8523C218.292 35.1193 217.808 35.4809 217.463 35.9371C217.118 36.3822 216.945 36.9386 216.945 37.6062C216.945 38.5742 217.296 39.3142 217.997 39.826C218.709 40.3267 219.61 40.5771 220.701 40.5771ZM250.201 45.5007C247.575 45.5007 245.316 44.9444 243.424 43.8317C241.544 42.7079 240.098 41.1501 239.085 39.1584C238.084 37.1667 237.583 34.8745 237.583 32.282C237.583 29.656 238.089 27.3527 239.102 25.3722C240.125 23.3804 241.577 21.8282 243.458 20.7156C245.338 19.5917 247.575 19.0298 250.167 19.0298C252.404 19.0298 254.362 19.436 256.042 20.2482C257.723 21.0605 259.052 22.201 260.031 23.6697C261.011 25.1385 261.55 26.8632 261.65 28.8438H254.941C254.752 27.5642 254.251 26.5349 253.439 25.756C252.638 24.966 251.586 24.571 250.284 24.571C249.183 24.571 248.22 24.8714 247.397 25.4723C246.584 26.062 245.95 26.9244 245.494 28.0593C245.038 29.1942 244.81 30.5684 244.81 32.1818C244.81 33.8175 245.032 35.2083 245.477 36.3544C245.934 37.5005 246.573 38.3739 247.397 38.9748C248.22 39.5756 249.183 39.8761 250.284 39.8761C251.096 39.8761 251.825 39.7092 252.471 39.3754C253.127 39.0415 253.667 38.5575 254.09 37.9233C254.524 37.2779 254.807 36.5046 254.941 35.6033H261.65C261.539 37.5617 261.005 39.2863 260.048 40.7773C259.102 42.2572 257.795 43.4144 256.126 44.2489C254.457 45.0835 252.482 45.5007 250.201 45.5007ZM279.839 19.3636V24.7045H264.4V19.3636H279.839ZM267.905 13.2216H275.015V37.1222C275.015 37.7786 275.115 38.2905 275.316 38.6577C275.516 39.0137 275.794 39.2641 276.15 39.4087C276.517 39.5534 276.94 39.6257 277.419 39.6257C277.752 39.6257 278.086 39.5979 278.42 39.5423C278.754 39.4755 279.01 39.4254 279.188 39.392L280.306 44.6829C279.95 44.7942 279.449 44.9221 278.804 45.0668C278.158 45.2225 277.374 45.3171 276.45 45.3505C274.737 45.4173 273.235 45.1892 271.944 44.6662C270.664 44.1432 269.669 43.331 268.956 42.2294C268.244 41.1278 267.894 39.737 267.905 38.0568V13.2216Z" fill="white"/>
<path d="M0.965909 70.017V68.4545H11.875V70.017H7.30114V83H5.53977V70.017H0.965909ZM16.092 83.2557C15.4007 83.2557 14.7733 83.1255 14.2099 82.8651C13.6464 82.5999 13.199 82.2188 12.8675 81.7216C12.5361 81.2197 12.3704 80.6136 12.3704 79.9034C12.3704 79.2784 12.4935 78.7718 12.7397 78.3835C12.9859 77.9905 13.315 77.6828 13.7269 77.4602C14.1388 77.2377 14.5934 77.072 15.0906 76.9631C15.5924 76.8494 16.0967 76.7595 16.6033 76.6932C17.2662 76.608 17.8036 76.544 18.2156 76.5014C18.6322 76.4541 18.9353 76.3759 19.1246 76.267C19.3188 76.1581 19.4158 75.9687 19.4158 75.6989V75.642C19.4158 74.9413 19.2241 74.3968 18.8406 74.0085C18.4618 73.6203 17.8865 73.4261 17.1147 73.4261C16.3145 73.4261 15.6871 73.6013 15.2326 73.9517C14.7781 74.3021 14.4585 74.6761 14.2738 75.0739L12.6829 74.5057C12.967 73.8428 13.3458 73.3267 13.8192 72.9574C14.2975 72.5833 14.8183 72.3229 15.3817 72.1761C15.9499 72.0246 16.5086 71.9489 17.0579 71.9489C17.4083 71.9489 17.8107 71.9915 18.2653 72.0767C18.7246 72.1572 19.1673 72.3253 19.5934 72.581C20.0243 72.8366 20.3817 73.2225 20.6658 73.7386C20.9499 74.2547 21.092 74.946 21.092 75.8125V83H19.4158V81.5227H19.3306C19.217 81.7595 19.0276 82.0128 18.7624 82.2827C18.4973 82.5526 18.1445 82.7822 17.7042 82.9716C17.2638 83.161 16.7264 83.2557 16.092 83.2557ZM16.3477 81.75C17.0105 81.75 17.5692 81.6198 18.0238 81.3594C18.4831 81.099 18.8287 80.7628 19.0607 80.3509C19.2975 79.9389 19.4158 79.5057 19.4158 79.0511V77.517C19.3448 77.6023 19.1886 77.6804 18.9471 77.7514C18.7103 77.8177 18.4357 77.8769 18.1232 77.929C17.8155 77.9763 17.5148 78.0189 17.2212 78.0568C16.9324 78.09 16.698 78.1184 16.5181 78.142C16.0825 78.1989 15.6753 78.2912 15.2965 78.419C14.9225 78.5421 14.6194 78.7292 14.3874 78.9801C14.1602 79.2263 14.0465 79.5625 14.0465 79.9886C14.0465 80.571 14.262 81.0114 14.6928 81.3097C15.1284 81.6032 15.68 81.75 16.3477 81.75ZM31.8786 74.5341L30.3729 74.9602C30.2782 74.7093 30.1385 74.4654 29.9538 74.2287C29.7739 73.9872 29.5277 73.7884 29.2152 73.6321C28.9027 73.4759 28.5026 73.3977 28.0149 73.3977C27.3473 73.3977 26.791 73.5516 26.3459 73.8594C25.9055 74.1624 25.6854 74.5483 25.6854 75.017C25.6854 75.4337 25.8369 75.7628 26.1399 76.0043C26.4429 76.2457 26.9164 76.447 27.5604 76.608L29.1797 77.0057C30.1551 77.2424 30.8819 77.6046 31.3601 78.0923C31.8383 78.5753 32.0774 79.1979 32.0774 79.9602C32.0774 80.5852 31.8975 81.1439 31.5376 81.6364C31.1825 82.1288 30.6854 82.517 30.0462 82.8011C29.407 83.0852 28.6636 83.2273 27.8161 83.2273C26.7034 83.2273 25.7824 82.9858 25.0533 82.5028C24.3241 82.0199 23.8625 81.3144 23.6683 80.3864L25.2592 79.9886C25.4107 80.5758 25.6972 81.0161 26.1186 81.3097C26.5447 81.6032 27.1011 81.75 27.7876 81.75C28.5689 81.75 29.1892 81.5843 29.6484 81.2528C30.1125 80.9167 30.3445 80.5142 30.3445 80.0455C30.3445 79.6667 30.2119 79.3494 29.9467 79.0938C29.6816 78.8333 29.2744 78.6392 28.7251 78.5114L26.907 78.0852C25.9079 77.8485 25.174 77.4815 24.7053 76.9844C24.2412 76.4825 24.0092 75.8551 24.0092 75.1023C24.0092 74.4867 24.1821 73.9422 24.5277 73.4688C24.8781 72.9953 25.3539 72.6236 25.9553 72.3537C26.5613 72.0838 27.2479 71.9489 28.0149 71.9489C29.0945 71.9489 29.942 72.1856 30.5575 72.6591C31.1778 73.1326 31.6181 73.7576 31.8786 74.5341ZM36.163 79.0227L36.1346 76.9489H36.4755L41.2482 72.0909H43.3221L38.2369 77.233H38.0948L36.163 79.0227ZM34.6005 83V68.4545H36.2766V83H34.6005ZM41.5323 83L37.271 77.6023L38.4641 76.4375L43.663 83H41.5323ZM53.2067 74.5341L51.701 74.9602C51.6063 74.7093 51.4666 74.4654 51.282 74.2287C51.102 73.9872 50.8558 73.7884 50.5433 73.6321C50.2308 73.4759 49.8307 73.3977 49.343 73.3977C48.6754 73.3977 48.1191 73.5516 47.674 73.8594C47.2337 74.1624 47.0135 74.5483 47.0135 75.017C47.0135 75.4337 47.165 75.7628 47.468 76.0043C47.7711 76.2457 48.2446 76.447 48.8885 76.608L50.5078 77.0057C51.4832 77.2424 52.21 77.6046 52.6882 78.0923C53.1664 78.5753 53.4055 79.1979 53.4055 79.9602C53.4055 80.5852 53.2256 81.1439 52.8658 81.6364C52.5107 82.1288 52.0135 82.517 51.3743 82.8011C50.7351 83.0852 49.9917 83.2273 49.1442 83.2273C48.0315 83.2273 47.1106 82.9858 46.3814 82.5028C45.6522 82.0199 45.1906 81.3144 44.9964 80.3864L46.5874 79.9886C46.7389 80.5758 47.0253 81.0161 47.4467 81.3097C47.8729 81.6032 48.4292 81.75 49.1158 81.75C49.897 81.75 50.5173 81.5843 50.9766 81.2528C51.4406 80.9167 51.6726 80.5142 51.6726 80.0455C51.6726 79.6667 51.54 79.3494 51.2749 79.0938C51.0097 78.8333 50.6025 78.6392 50.0533 78.5114L48.2351 78.0852C47.236 77.8485 46.5021 77.4815 46.0334 76.9844C45.5694 76.4825 45.3374 75.8551 45.3374 75.1023C45.3374 74.4867 45.5102 73.9422 45.8558 73.4688C46.2062 72.9953 46.6821 72.6236 47.2834 72.3537C47.8894 72.0838 48.576 71.9489 49.343 71.9489C50.4226 71.9489 51.2701 72.1856 51.8857 72.6591C52.5059 73.1326 52.9463 73.7576 53.2067 74.5341ZM64.7638 83.2557C64.0726 83.2557 63.4452 83.1255 62.8817 82.8651C62.3183 82.5999 61.8709 82.2188 61.5394 81.7216C61.208 81.2197 61.0423 80.6136 61.0423 79.9034C61.0423 79.2784 61.1654 78.7718 61.4116 78.3835C61.6578 77.9905 61.9869 77.6828 62.3988 77.4602C62.8107 77.2377 63.2653 77.072 63.7624 76.9631C64.2643 76.8494 64.7686 76.7595 65.2752 76.6932C65.9381 76.608 66.4755 76.544 66.8874 76.5014C67.3041 76.4541 67.6071 76.3759 67.7965 76.267C67.9906 76.1581 68.0877 75.9687 68.0877 75.6989V75.642C68.0877 74.9413 67.896 74.3968 67.5124 74.0085C67.1336 73.6203 66.5584 73.4261 65.7866 73.4261C64.9864 73.4261 64.359 73.6013 63.9045 73.9517C63.4499 74.3021 63.1303 74.6761 62.9457 75.0739L61.3548 74.5057C61.6388 73.8428 62.0176 73.3267 62.4911 72.9574C62.9693 72.5833 63.4902 72.3229 64.0536 72.1761C64.6218 72.0246 65.1805 71.9489 65.7298 71.9489C66.0801 71.9489 66.4826 71.9915 66.9371 72.0767C67.3964 72.1572 67.8391 72.3253 68.2653 72.581C68.6961 72.8366 69.0536 73.2225 69.3377 73.7386C69.6218 74.2547 69.7638 74.946 69.7638 75.8125V83H68.0877V81.5227H68.0025C67.8888 81.7595 67.6995 82.0128 67.4343 82.2827C67.1692 82.5526 66.8164 82.7822 66.3761 82.9716C65.9357 83.161 65.3983 83.2557 64.7638 83.2557ZM65.0195 81.75C65.6824 81.75 66.2411 81.6198 66.6957 81.3594C67.1549 81.099 67.5006 80.7628 67.7326 80.3509C67.9693 79.9389 68.0877 79.5057 68.0877 79.0511V77.517C68.0167 77.6023 67.8604 77.6804 67.619 77.7514C67.3822 77.8177 67.1076 77.8769 66.7951 77.929C66.4873 77.9763 66.1867 78.0189 65.8931 78.0568C65.6043 78.09 65.3699 78.1184 65.19 78.142C64.7544 78.1989 64.3472 78.2912 63.9684 78.419C63.5943 78.5421 63.2913 78.7292 63.0593 78.9801C62.832 79.2263 62.7184 79.5625 62.7184 79.9886C62.7184 80.571 62.9338 81.0114 63.3647 81.3097C63.8003 81.6032 64.3519 81.75 65.0195 81.75ZM72.8232 83V72.0909H74.4425V73.7386H74.5561C74.755 73.1989 75.1148 72.7609 75.6357 72.4247C76.1565 72.0885 76.7436 71.9205 77.397 71.9205C77.5201 71.9205 77.674 71.9228 77.8587 71.9276C78.0433 71.9323 78.183 71.9394 78.2777 71.9489V73.6534C78.2209 73.6392 78.0907 73.6179 77.8871 73.5895C77.6882 73.5563 77.4775 73.5398 77.255 73.5398C76.7247 73.5398 76.2512 73.651 75.8345 73.8736C75.4226 74.0914 75.0959 74.3944 74.8544 74.7827C74.6177 75.1662 74.4993 75.6042 74.4993 76.0966V83H72.8232ZM84.5064 83.2273C83.4553 83.2273 82.5485 82.9953 81.7862 82.5312C81.0286 82.0625 80.4439 81.4091 80.032 80.571C79.6248 79.7282 79.4212 78.7481 79.4212 77.6307C79.4212 76.5133 79.6248 75.5284 80.032 74.6761C80.4439 73.8191 81.0168 73.1515 81.7507 72.6733C82.4893 72.1903 83.3511 71.9489 84.3359 71.9489C84.9041 71.9489 85.4652 72.0436 86.0192 72.233C86.5732 72.4223 87.0774 72.7301 87.532 73.1562C87.9865 73.5777 88.3487 74.1364 88.6186 74.8324C88.8885 75.5284 89.0234 76.3854 89.0234 77.4034V78.1136H80.6143V76.6648H87.3189C87.3189 76.0492 87.1958 75.5 86.9496 75.017C86.7081 74.5341 86.3625 74.1529 85.9126 73.8736C85.4676 73.5942 84.942 73.4545 84.3359 73.4545C83.6683 73.4545 83.0907 73.6203 82.603 73.9517C82.12 74.2784 81.7483 74.7045 81.4879 75.2301C81.2275 75.7557 81.0973 76.3191 81.0973 76.9205V77.8864C81.0973 78.7102 81.2393 79.4086 81.5234 79.9815C81.8123 80.5497 82.2124 80.983 82.7237 81.2812C83.2351 81.5748 83.8293 81.7216 84.5064 81.7216C84.9467 81.7216 85.3445 81.66 85.6996 81.5369C86.0594 81.4091 86.3696 81.2197 86.63 80.9688C86.8904 80.7131 87.0916 80.3958 87.2337 80.017L88.853 80.4716C88.6825 81.0208 88.3961 81.5038 87.9936 81.9205C87.5911 82.3324 87.094 82.6544 86.5021 82.8864C85.9103 83.1136 85.245 83.2273 84.5064 83.2273ZM97.4254 83V68.4545H99.1016V73.8239H99.2436C99.3667 73.6345 99.5372 73.393 99.755 73.0994C99.9775 72.8011 100.295 72.536 100.707 72.304C101.123 72.0672 101.687 71.9489 102.397 71.9489C103.316 71.9489 104.125 72.1785 104.826 72.6378C105.527 73.0971 106.074 73.7481 106.467 74.5909C106.86 75.4337 107.056 76.428 107.056 77.5739C107.056 78.7292 106.86 79.7306 106.467 80.5781C106.074 81.4209 105.529 82.0743 104.833 82.5384C104.137 82.9976 103.335 83.2273 102.425 83.2273C101.725 83.2273 101.164 83.1113 100.742 82.8793C100.321 82.6425 99.9964 82.375 99.7692 82.0767C99.5419 81.7737 99.3667 81.5227 99.2436 81.3239H99.0447V83H97.4254ZM99.0732 77.5455C99.0732 78.3693 99.1939 79.0961 99.4354 79.7259C99.6768 80.3509 100.03 80.8409 100.494 81.196C100.958 81.5464 101.526 81.7216 102.198 81.7216C102.899 81.7216 103.484 81.5369 103.952 81.1676C104.426 80.7936 104.781 80.2917 105.018 79.6619C105.259 79.0275 105.38 78.322 105.38 77.5455C105.38 76.7784 105.262 76.0871 105.025 75.4716C104.793 74.8513 104.44 74.3613 103.967 74.0014C103.498 73.6368 102.908 73.4545 102.198 73.4545C101.516 73.4545 100.943 73.6274 100.479 73.973C100.015 74.3139 99.665 74.7921 99.4283 75.4077C99.1915 76.0185 99.0732 76.7311 99.0732 77.5455ZM114.194 83.2273C113.143 83.2273 112.236 82.9953 111.474 82.5312C110.716 82.0625 110.131 81.4091 109.719 80.571C109.312 79.7282 109.109 78.7481 109.109 77.6307C109.109 76.5133 109.312 75.5284 109.719 74.6761C110.131 73.8191 110.704 73.1515 111.438 72.6733C112.177 72.1903 113.039 71.9489 114.023 71.9489C114.592 71.9489 115.153 72.0436 115.707 72.233C116.261 72.4223 116.765 72.7301 117.219 73.1562C117.674 73.5777 118.036 74.1364 118.306 74.8324C118.576 75.5284 118.711 76.3854 118.711 77.4034V78.1136H110.302V76.6648H117.006C117.006 76.0492 116.883 75.5 116.637 75.017C116.396 74.5341 116.05 74.1529 115.6 73.8736C115.155 73.5942 114.629 73.4545 114.023 73.4545C113.356 73.4545 112.778 73.6203 112.29 73.9517C111.808 74.2784 111.436 74.7045 111.175 75.2301C110.915 75.7557 110.785 76.3191 110.785 76.9205V77.8864C110.785 78.7102 110.927 79.4086 111.211 79.9815C111.5 80.5497 111.9 80.983 112.411 81.2812C112.923 81.5748 113.517 81.7216 114.194 81.7216C114.634 81.7216 115.032 81.66 115.387 81.5369C115.747 81.4091 116.057 81.2197 116.317 80.9688C116.578 80.7131 116.779 80.3958 116.921 80.017L118.54 80.4716C118.37 81.0208 118.084 81.5038 117.681 81.9205C117.279 82.3324 116.781 82.6544 116.19 82.8864C115.598 83.1136 114.933 83.2273 114.194 83.2273ZM126.005 72.0909V73.5114H120.352V72.0909H126.005ZM121.999 69.4773H123.675V79.875C123.675 80.3485 123.744 80.7036 123.881 80.9403C124.023 81.1723 124.203 81.3286 124.421 81.4091C124.644 81.4848 124.878 81.5227 125.124 81.5227C125.309 81.5227 125.46 81.5133 125.579 81.4943C125.697 81.4706 125.792 81.4517 125.863 81.4375L126.204 82.9432C126.09 82.9858 125.932 83.0284 125.728 83.071C125.524 83.1184 125.266 83.142 124.954 83.142C124.48 83.142 124.016 83.0402 123.562 82.8366C123.112 82.633 122.738 82.3229 122.44 81.9062C122.146 81.4896 121.999 80.964 121.999 80.3295V69.4773ZM133.271 72.0909V73.5114H127.617V72.0909H133.271ZM129.265 69.4773H130.941V79.875C130.941 80.3485 131.01 80.7036 131.147 80.9403C131.289 81.1723 131.469 81.3286 131.687 81.4091C131.909 81.4848 132.144 81.5227 132.39 81.5227C132.575 81.5227 132.726 81.5133 132.844 81.4943C132.963 81.4706 133.058 81.4517 133.129 81.4375L133.469 82.9432C133.356 82.9858 133.197 83.0284 132.994 83.071C132.79 83.1184 132.532 83.142 132.219 83.142C131.746 83.142 131.282 83.0402 130.827 82.8366C130.378 82.633 130.004 82.3229 129.705 81.9062C129.412 81.4896 129.265 80.964 129.265 80.3295V69.4773ZM140.249 83.2273C139.197 83.2273 138.291 82.9953 137.528 82.5312C136.771 82.0625 136.186 81.4091 135.774 80.571C135.367 79.7282 135.163 78.7481 135.163 77.6307C135.163 76.5133 135.367 75.5284 135.774 74.6761C136.186 73.8191 136.759 73.1515 137.493 72.6733C138.232 72.1903 139.093 71.9489 140.078 71.9489C140.646 71.9489 141.207 72.0436 141.761 72.233C142.315 72.4223 142.82 72.7301 143.274 73.1562C143.729 73.5777 144.091 74.1364 144.361 74.8324C144.631 75.5284 144.766 76.3854 144.766 77.4034V78.1136H136.357V76.6648H143.061C143.061 76.0492 142.938 75.5 142.692 75.017C142.45 74.5341 142.105 74.1529 141.655 73.8736C141.21 73.5942 140.684 73.4545 140.078 73.4545C139.411 73.4545 138.833 73.6203 138.345 73.9517C137.862 74.2784 137.491 74.7045 137.23 75.2301C136.97 75.7557 136.839 76.3191 136.839 76.9205V77.8864C136.839 78.7102 136.982 79.4086 137.266 79.9815C137.554 80.5497 137.955 80.983 138.466 81.2812C138.977 81.5748 139.571 81.7216 140.249 81.7216C140.689 81.7216 141.087 81.66 141.442 81.5369C141.802 81.4091 142.112 81.2197 142.372 80.9688C142.633 80.7131 142.834 80.3958 142.976 80.017L144.595 80.4716C144.425 81.0208 144.138 81.5038 143.736 81.9205C143.333 82.3324 142.836 82.6544 142.244 82.8864C141.652 83.1136 140.987 83.2273 140.249 83.2273ZM147.315 83V72.0909H148.935V73.7386H149.048C149.247 73.1989 149.607 72.7609 150.128 72.4247C150.649 72.0885 151.236 71.9205 151.889 71.9205C152.012 71.9205 152.166 71.9228 152.351 71.9276C152.536 71.9323 152.675 71.9394 152.77 71.9489V73.6534C152.713 73.6392 152.583 73.6179 152.379 73.5895C152.18 73.5563 151.97 73.5398 151.747 73.5398C151.217 73.5398 150.743 73.651 150.327 73.8736C149.915 74.0914 149.588 74.3944 149.347 74.7827C149.11 75.1662 148.991 75.6042 148.991 76.0966V83H147.315ZM162.853 83L159.529 72.0909H161.291L163.649 80.4432H163.762L166.092 72.0909H167.882L170.183 80.4148H170.297L172.654 72.0909H174.416L171.092 83H169.444L167.058 74.6193H166.887L164.501 83H162.853ZM176.632 83V72.0909H178.308V83H176.632ZM177.484 70.2727C177.157 70.2727 176.876 70.1615 176.639 69.9389C176.407 69.7164 176.291 69.4489 176.291 69.1364C176.291 68.8239 176.407 68.5563 176.639 68.3338C176.876 68.1113 177.157 68 177.484 68C177.811 68 178.09 68.1113 178.322 68.3338C178.559 68.5563 178.677 68.8239 178.677 69.1364C178.677 69.4489 178.559 69.7164 178.322 69.9389C178.09 70.1615 177.811 70.2727 177.484 70.2727ZM186.122 72.0909V73.5114H180.469V72.0909H186.122ZM182.116 69.4773H183.793V79.875C183.793 80.3485 183.861 80.7036 183.999 80.9403C184.141 81.1723 184.321 81.3286 184.538 81.4091C184.761 81.4848 184.995 81.5227 185.241 81.5227C185.426 81.5227 185.578 81.5133 185.696 81.4943C185.814 81.4706 185.909 81.4517 185.98 81.4375L186.321 82.9432C186.207 82.9858 186.049 83.0284 185.845 83.071C185.642 83.1184 185.384 83.142 185.071 83.142C184.598 83.142 184.134 83.0402 183.679 82.8366C183.229 82.633 182.855 82.3229 182.557 81.9062C182.263 81.4896 182.116 80.964 182.116 80.3295V69.4773ZM190.554 76.4375V83H188.878V68.4545H190.554V73.7955H190.696C190.952 73.232 191.335 72.7846 191.847 72.4531C192.363 72.117 193.049 71.9489 193.906 71.9489C194.65 71.9489 195.301 72.098 195.859 72.3963C196.418 72.6899 196.851 73.142 197.159 73.7528C197.472 74.3589 197.628 75.1307 197.628 76.0682V83H195.952V76.1818C195.952 75.3153 195.727 74.6454 195.277 74.1719C194.832 73.6937 194.214 73.4545 193.423 73.4545C192.874 73.4545 192.382 73.5705 191.946 73.8026C191.515 74.0346 191.174 74.3731 190.923 74.8182C190.677 75.2633 190.554 75.803 190.554 76.4375ZM209.529 83.2557C208.838 83.2557 208.211 83.1255 207.647 82.8651C207.084 82.5999 206.636 82.2188 206.305 81.7216C205.974 81.2197 205.808 80.6136 205.808 79.9034C205.808 79.2784 205.931 78.7718 206.177 78.3835C206.423 77.9905 206.752 77.6828 207.164 77.4602C207.576 77.2377 208.031 77.072 208.528 76.9631C209.03 76.8494 209.534 76.7595 210.041 76.6932C210.704 76.608 211.241 76.544 211.653 76.5014C212.07 76.4541 212.373 76.3759 212.562 76.267C212.756 76.1581 212.853 75.9687 212.853 75.6989V75.642C212.853 74.9413 212.662 74.3968 212.278 74.0085C211.899 73.6203 211.324 73.4261 210.552 73.4261C209.752 73.4261 209.125 73.6013 208.67 73.9517C208.216 74.3021 207.896 74.6761 207.711 75.0739L206.12 74.5057C206.404 73.8428 206.783 73.3267 207.257 72.9574C207.735 72.5833 208.256 72.3229 208.819 72.1761C209.387 72.0246 209.946 71.9489 210.495 71.9489C210.846 71.9489 211.248 71.9915 211.703 72.0767C212.162 72.1572 212.605 72.3253 213.031 72.581C213.462 72.8366 213.819 73.2225 214.103 73.7386C214.387 74.2547 214.529 74.946 214.529 75.8125V83H212.853V81.5227H212.768C212.654 81.7595 212.465 82.0128 212.2 82.2827C211.935 82.5526 211.582 82.7822 211.142 82.9716C210.701 83.161 210.164 83.2557 209.529 83.2557ZM209.785 81.75C210.448 81.75 211.007 81.6198 211.461 81.3594C211.921 81.099 212.266 80.7628 212.498 80.3509C212.735 79.9389 212.853 79.5057 212.853 79.0511V77.517C212.782 77.6023 212.626 77.6804 212.385 77.7514C212.148 77.8177 211.873 77.8769 211.561 77.929C211.253 77.9763 210.952 78.0189 210.659 78.0568C210.37 78.09 210.136 78.1184 209.956 78.142C209.52 78.1989 209.113 78.2912 208.734 78.419C208.36 78.5421 208.057 78.7292 207.825 78.9801C207.598 79.2263 207.484 79.5625 207.484 79.9886C207.484 80.571 207.699 81.0114 208.13 81.3097C208.566 81.6032 209.118 81.75 209.785 81.75ZM227.958 72.0909V73.5114H222.305V72.0909H227.958ZM223.952 69.4773H225.629V79.875C225.629 80.3485 225.697 80.7036 225.835 80.9403C225.977 81.1723 226.156 81.3286 226.374 81.4091C226.597 81.4848 226.831 81.5227 227.077 81.5227C227.262 81.5227 227.414 81.5133 227.532 81.4943C227.65 81.4706 227.745 81.4517 227.816 81.4375L228.157 82.9432C228.043 82.9858 227.885 83.0284 227.681 83.071C227.478 83.1184 227.219 83.142 226.907 83.142C226.433 83.142 225.969 83.0402 225.515 82.8366C225.065 82.633 224.691 82.3229 224.393 81.9062C224.099 81.4896 223.952 80.964 223.952 80.3295V69.4773ZM234.936 83.2273C233.885 83.2273 232.978 82.9953 232.216 82.5312C231.458 82.0625 230.874 81.4091 230.462 80.571C230.054 79.7282 229.851 78.7481 229.851 77.6307C229.851 76.5133 230.054 75.5284 230.462 74.6761C230.874 73.8191 231.446 73.1515 232.18 72.6733C232.919 72.1903 233.781 71.9489 234.766 71.9489C235.334 71.9489 235.895 72.0436 236.449 72.233C237.003 72.4223 237.507 72.7301 237.962 73.1562C238.416 73.5777 238.778 74.1364 239.048 74.8324C239.318 75.5284 239.453 76.3854 239.453 77.4034V78.1136H231.044V76.6648H237.749C237.749 76.0492 237.625 75.5 237.379 75.017C237.138 74.5341 236.792 74.1529 236.342 73.8736C235.897 73.5942 235.372 73.4545 234.766 73.4545C234.098 73.4545 233.52 73.6203 233.033 73.9517C232.55 74.2784 232.178 74.7045 231.918 75.2301C231.657 75.7557 231.527 76.3191 231.527 76.9205V77.8864C231.527 78.7102 231.669 79.4086 231.953 79.9815C232.242 80.5497 232.642 80.983 233.153 81.2812C233.665 81.5748 234.259 81.7216 234.936 81.7216C235.376 81.7216 235.774 81.66 236.129 81.5369C236.489 81.4091 236.799 81.2197 237.06 80.9688C237.32 80.7131 237.521 80.3958 237.663 80.017L239.283 80.4716C239.112 81.0208 238.826 81.5038 238.423 81.9205C238.021 82.3324 237.524 82.6544 236.932 82.8864C236.34 83.1136 235.675 83.2273 234.936 83.2273ZM245.213 83.2557C244.522 83.2557 243.894 83.1255 243.331 82.8651C242.768 82.5999 242.32 82.2188 241.989 81.7216C241.657 81.2197 241.491 80.6136 241.491 79.9034C241.491 79.2784 241.615 78.7718 241.861 78.3835C242.107 77.9905 242.436 77.6828 242.848 77.4602C243.26 77.2377 243.714 77.072 244.212 76.9631C244.714 76.8494 245.218 76.7595 245.724 76.6932C246.387 76.608 246.925 76.544 247.337 76.5014C247.753 76.4541 248.056 76.3759 248.246 76.267C248.44 76.1581 248.537 75.9687 248.537 75.6989V75.642C248.537 74.9413 248.345 74.3968 247.962 74.0085C247.583 73.6203 247.008 73.4261 246.236 73.4261C245.436 73.4261 244.808 73.6013 244.354 73.9517C243.899 74.3021 243.58 74.6761 243.395 75.0739L241.804 74.5057C242.088 73.8428 242.467 73.3267 242.94 72.9574C243.419 72.5833 243.939 72.3229 244.503 72.1761C245.071 72.0246 245.63 71.9489 246.179 71.9489C246.529 71.9489 246.932 71.9915 247.386 72.0767C247.846 72.1572 248.288 72.3253 248.714 72.581C249.145 72.8366 249.503 73.2225 249.787 73.7386C250.071 74.2547 250.213 74.946 250.213 75.8125V83H248.537V81.5227H248.452C248.338 81.7595 248.149 82.0128 247.884 82.2827C247.618 82.5526 247.266 82.7822 246.825 82.9716C246.385 83.161 245.848 83.2557 245.213 83.2557ZM245.469 81.75C246.132 81.75 246.69 81.6198 247.145 81.3594C247.604 81.099 247.95 80.7628 248.182 80.3509C248.419 79.9389 248.537 79.5057 248.537 79.0511V77.517C248.466 77.6023 248.31 77.6804 248.068 77.7514C247.831 77.8177 247.557 77.8769 247.244 77.929C246.937 77.9763 246.636 78.0189 246.342 78.0568C246.054 78.09 245.819 78.1184 245.639 78.142C245.204 78.1989 244.796 78.2912 244.418 78.419C244.044 78.5421 243.741 78.7292 243.509 78.9801C243.281 79.2263 243.168 79.5625 243.168 79.9886C243.168 80.571 243.383 81.0114 243.814 81.3097C244.25 81.6032 244.801 81.75 245.469 81.75ZM253.272 83V72.0909H254.892V73.7955H255.034C255.261 73.2131 255.628 72.7609 256.135 72.4389C256.641 72.1122 257.25 71.9489 257.96 71.9489C258.68 71.9489 259.279 72.1122 259.757 72.4389C260.24 72.7609 260.616 73.2131 260.886 73.7955H261C261.279 73.232 261.698 72.7846 262.257 72.4531C262.815 72.117 263.485 71.9489 264.267 71.9489C265.242 71.9489 266.04 72.2543 266.66 72.8651C267.28 73.4711 267.591 74.4157 267.591 75.6989V83H265.914V75.6989C265.914 74.8939 265.694 74.3187 265.254 73.973C264.814 73.6274 264.295 73.4545 263.699 73.4545C262.931 73.4545 262.337 73.6866 261.916 74.1506C261.494 74.6098 261.284 75.1922 261.284 75.8977V83H259.579V75.5284C259.579 74.9081 259.378 74.4086 258.975 74.0298C258.573 73.6463 258.055 73.4545 257.42 73.4545C256.984 73.4545 256.577 73.5705 256.199 73.8026C255.824 74.0346 255.521 74.3565 255.289 74.7685C255.062 75.1757 254.949 75.6468 254.949 76.1818V83H253.272ZM272.871 68.4545L272.729 78.9091H271.081L270.939 68.4545H272.871ZM271.905 83.1136C271.555 83.1136 271.254 82.9882 271.003 82.7372C270.752 82.4863 270.627 82.1856 270.627 81.8352C270.627 81.4848 270.752 81.1842 271.003 80.9332C271.254 80.6823 271.555 80.5568 271.905 80.5568C272.256 80.5568 272.556 80.6823 272.807 80.9332C273.058 81.1842 273.184 81.4848 273.184 81.8352C273.184 82.0672 273.124 82.2803 273.006 82.4744C272.892 82.6686 272.739 82.8248 272.544 82.9432C272.355 83.0568 272.142 83.1136 271.905 83.1136Z" fill="white"/>
</svg>
