<svg width="100" height="51" viewBox="0 0 100 51" fill="none" xmlns="http://www.w3.org/2000/svg">
<rect x="0.5" width="99" height="51" rx="10" fill="#2A3647"/>
<path d="M20.1126 22.1197C20.0529 21.5181 19.7969 21.0508 19.3445 20.7177C18.892 20.3846 18.2781 20.218 17.5025 20.218C16.9755 20.218 16.5305 20.2926 16.1676 20.4418C15.8047 20.5859 15.5263 20.7873 15.3324 21.0458C15.1435 21.3043 15.049 21.5977 15.049 21.9258C15.0391 22.1992 15.0962 22.4379 15.2205 22.6417C15.3498 22.8455 15.5263 23.022 15.75 23.1712C15.9737 23.3153 16.2322 23.4421 16.5256 23.5515C16.8189 23.6559 17.1321 23.7454 17.4652 23.82L18.8374 24.1481C19.5036 24.2972 20.1151 24.4961 20.6719 24.7447C21.2287 24.9933 21.7109 25.299 22.1186 25.6619C22.5263 26.0249 22.842 26.4524 23.0657 26.9446C23.2944 27.4368 23.4112 28.0011 23.4162 28.6374C23.4112 29.5721 23.1726 30.3825 22.7003 31.0685C22.233 31.7496 21.5568 32.2791 20.6719 32.657C19.7919 33.0298 18.7305 33.2163 17.4876 33.2163C16.2546 33.2163 15.1808 33.0273 14.266 32.6495C13.3562 32.2717 12.6452 31.7124 12.1332 30.9716C11.6261 30.2259 11.3601 29.3036 11.3352 28.2049H14.4599C14.4947 28.717 14.6413 29.1445 14.8999 29.4876C15.1634 29.8256 15.5138 30.0817 15.9513 30.2557C16.3938 30.4247 16.8935 30.5092 17.4503 30.5092C17.9972 30.5092 18.4719 30.4297 18.8746 30.2706C19.2823 30.1115 19.598 29.8903 19.8217 29.6069C20.0455 29.3235 20.1573 28.9979 20.1573 28.63C20.1573 28.2869 20.0554 27.9986 19.8516 27.7649C19.6527 27.5312 19.3594 27.3324 18.9716 27.1683C18.5888 27.0043 18.119 26.8551 17.5621 26.7209L15.8991 26.3033C14.6115 25.9901 13.5948 25.5004 12.8491 24.8342C12.1033 24.168 11.733 23.2706 11.7379 22.142C11.733 21.2173 11.979 20.4094 12.4762 19.7184C12.9783 19.0273 13.6669 18.4879 14.5419 18.1001C15.4169 17.7124 16.4112 17.5185 17.5249 17.5185C18.6584 17.5185 19.6477 17.7124 20.4929 18.1001C21.343 18.4879 22.0043 19.0273 22.4766 19.7184C22.9489 20.4094 23.1925 21.2099 23.2074 22.1197H20.1126ZM28.7948 33.2163C28.064 33.2163 27.4127 33.0895 26.841 32.8359C26.2693 32.5774 25.8169 32.1971 25.4838 31.695C25.1556 31.1879 24.9916 30.5565 24.9916 29.8008C24.9916 29.1644 25.1084 28.63 25.3421 28.1974C25.5757 27.7649 25.8939 27.4169 26.2966 27.1534C26.6993 26.8899 27.1567 26.6911 27.6688 26.5568C28.1858 26.4226 28.7277 26.3281 29.2945 26.2734C29.9607 26.2038 30.4976 26.1392 30.9053 26.0795C31.3129 26.0149 31.6088 25.9205 31.7927 25.7962C31.9767 25.6719 32.0686 25.4879 32.0686 25.2443V25.1996C32.0686 24.7273 31.9195 24.3619 31.6212 24.1033C31.3279 23.8448 30.9102 23.7156 30.3683 23.7156C29.7966 23.7156 29.3417 23.8423 29.0036 24.0959C28.6656 24.3445 28.4419 24.6577 28.3325 25.0355L25.3943 24.7969C25.5434 24.1009 25.8367 23.4993 26.2742 22.9922C26.7117 22.4801 27.276 22.0874 27.9671 21.8139C28.6631 21.5355 29.4685 21.3963 30.3833 21.3963C31.0196 21.3963 31.6286 21.4709 32.2103 21.62C32.797 21.7692 33.3165 22.0004 33.7689 22.3136C34.2263 22.6268 34.5867 23.0295 34.8502 23.5217C35.1137 24.0089 35.2455 24.593 35.2455 25.2741V33H32.2327V31.4116H32.1432C31.9593 31.7695 31.7132 32.0852 31.4049 32.3587C31.0967 32.6271 30.7263 32.8384 30.2938 32.9925C29.8612 33.1417 29.3616 33.2163 28.7948 33.2163ZM29.7046 31.0238C30.172 31.0238 30.5846 30.9318 30.9426 30.7479C31.3005 30.5589 31.5814 30.3054 31.7852 29.9872C31.9891 29.669 32.091 29.3086 32.091 28.9059V27.6903C31.9916 27.755 31.8548 27.8146 31.6808 27.8693C31.5118 27.919 31.3204 27.9663 31.1066 28.011C30.8928 28.0508 30.6791 28.0881 30.4653 28.1229C30.2515 28.1527 30.0576 28.18 29.8836 28.2049C29.5107 28.2596 29.1851 28.3466 28.9067 28.4659C28.6283 28.5852 28.412 28.7468 28.2579 28.9506C28.1038 29.1495 28.0267 29.3981 28.0267 29.6964C28.0267 30.1289 28.1833 30.4595 28.4965 30.6882C28.8147 30.9119 29.2174 31.0238 29.7046 31.0238ZM47.979 21.5455L43.9743 33H40.3948L36.3902 21.5455H39.746L42.1249 29.7411H42.2442L44.6157 21.5455H47.979ZM54.4557 33.2237C53.2774 33.2237 52.2632 32.9851 51.4131 32.5078C50.5679 32.0256 49.9166 31.3445 49.4593 30.4645C49.0019 29.5795 48.7732 28.533 48.7732 27.3249C48.7732 26.1467 49.0019 25.1126 49.4593 24.2227C49.9166 23.3327 50.5605 22.6392 51.3907 22.142C52.2259 21.6449 53.2053 21.3963 54.3289 21.3963C55.0846 21.3963 55.7881 21.5181 56.4394 21.7617C57.0956 22.0004 57.6673 22.3608 58.1546 22.843C58.6468 23.3253 59.0296 23.9318 59.303 24.6626C59.5764 25.3885 59.7132 26.2386 59.7132 27.2131V28.0856H50.0409V26.1168H56.7227C56.7227 25.6594 56.6233 25.2543 56.4244 24.9013C56.2256 24.5483 55.9497 24.2724 55.5967 24.0735C55.2487 23.8697 54.8435 23.7678 54.3811 23.7678C53.8989 23.7678 53.4713 23.8796 53.0985 24.1033C52.7306 24.3221 52.4422 24.6179 52.2334 24.9908C52.0246 25.3587 51.9177 25.7688 51.9127 26.2212V28.093C51.9127 28.6598 52.0171 29.1495 52.2259 29.5621C52.4397 29.9748 52.7405 30.293 53.1283 30.5167C53.5161 30.7404 53.9759 30.8523 54.5079 30.8523C54.8609 30.8523 55.184 30.8026 55.4774 30.7031C55.7707 30.6037 56.0218 30.4545 56.2306 30.2557C56.4394 30.0568 56.5985 29.8132 56.7078 29.5249L59.646 29.7188C59.4969 30.4247 59.1911 31.0412 58.7288 31.5682C58.2714 32.0902 57.6798 32.4979 56.9539 32.7912C56.233 33.0795 55.4003 33.2237 54.4557 33.2237Z" fill="white"/>
<mask id="mask0_597_3926" style="mask-type:alpha" maskUnits="userSpaceOnUse" x="65" y="13" width="25" height="25">
<rect x="65.5" y="13.5" width="24" height="24" fill="#D9D9D9"/>
</mask>
<g mask="url(#mask0_597_3926)">
<path d="M75.0497 28.65L83.5247 20.175C83.7247 19.975 83.9622 19.875 84.2372 19.875C84.5122 19.875 84.7497 19.975 84.9497 20.175C85.1497 20.375 85.2497 20.6125 85.2497 20.8875C85.2497 21.1625 85.1497 21.4 84.9497 21.6L75.7497 30.8C75.5497 31 75.3164 31.1 75.0497 31.1C74.7831 31.1 74.5497 31 74.3497 30.8L70.0497 26.5C69.8497 26.3 69.7539 26.0625 69.7622 25.7875C69.7706 25.5125 69.8747 25.275 70.0747 25.075C70.2747 24.875 70.5122 24.775 70.7872 24.775C71.0622 24.775 71.2997 24.875 71.4997 25.075L75.0497 28.65Z" fill="white"/>
</g>
</svg>
