<svg width="104" height="56" viewBox="0 0 104 56" fill="none" xmlns="http://www.w3.org/2000/svg">
<mask id="mask0_111546_4302" style="mask-type:alpha" maskUnits="userSpaceOnUse" x="0" y="12" width="32" height="32">
<rect y="12" width="32" height="32" fill="#D9D9D9"/>
</mask>
<g mask="url(#mask0_111546_4302)">
<path d="M15.95 34C16.3 34 16.5958 33.8792 16.8375 33.6375C17.0792 33.3958 17.2 33.1 17.2 32.75C17.2 32.4 17.0792 32.1042 16.8375 31.8625C16.5958 31.6208 16.3 31.5 15.95 31.5C15.6 31.5 15.3042 31.6208 15.0625 31.8625C14.8208 32.1042 14.7 32.4 14.7 32.75C14.7 33.1 14.8208 33.3958 15.0625 33.6375C15.3042 33.8792 15.6 34 15.95 34ZM16 38C14.6167 38 13.3167 37.7375 12.1 37.2125C10.8833 36.6875 9.825 35.975 8.925 35.075C8.025 34.175 7.3125 33.1167 6.7875 31.9C6.2625 30.6833 6 29.3833 6 28C6 26.6167 6.2625 25.3167 6.7875 24.1C7.3125 22.8833 8.025 21.825 8.925 20.925C9.825 20.025 10.8833 19.3125 12.1 18.7875C13.3167 18.2625 14.6167 18 16 18C17.3833 18 18.6833 18.2625 19.9 18.7875C21.1167 19.3125 22.175 20.025 23.075 20.925C23.975 21.825 24.6875 22.8833 25.2125 24.1C25.7375 25.3167 26 26.6167 26 28C26 29.3833 25.7375 30.6833 25.2125 31.9C24.6875 33.1167 23.975 34.175 23.075 35.075C22.175 35.975 21.1167 36.6875 19.9 37.2125C18.6833 37.7375 17.3833 38 16 38ZM16 36C18.2333 36 20.125 35.225 21.675 33.675C23.225 32.125 24 30.2333 24 28C24 25.7667 23.225 23.875 21.675 22.325C20.125 20.775 18.2333 20 16 20C13.7667 20 11.875 20.775 10.325 22.325C8.775 23.875 8 25.7667 8 28C8 30.2333 8.775 32.125 10.325 33.675C11.875 35.225 13.7667 36 16 36ZM16.1 23.7C16.5167 23.7 16.8792 23.8333 17.1875 24.1C17.4958 24.3667 17.65 24.7 17.65 25.1C17.65 25.4667 17.5375 25.7917 17.3125 26.075C17.0875 26.3583 16.8333 26.625 16.55 26.875C16.1667 27.2083 15.8292 27.575 15.5375 27.975C15.2458 28.375 15.1 28.825 15.1 29.325C15.1 29.5583 15.1875 29.7542 15.3625 29.9125C15.5375 30.0708 15.7417 30.15 15.975 30.15C16.225 30.15 16.4375 30.0667 16.6125 29.9C16.7875 29.7333 16.9 29.525 16.95 29.275C17.0167 28.925 17.1667 28.6125 17.4 28.3375C17.6333 28.0625 17.8833 27.8 18.15 27.55C18.5333 27.1833 18.8625 26.7833 19.1375 26.35C19.4125 25.9167 19.55 25.4333 19.55 24.9C19.55 24.05 19.2042 23.3542 18.5125 22.8125C17.8208 22.2708 17.0167 22 16.1 22C15.4667 22 14.8625 22.1333 14.2875 22.4C13.7125 22.6667 13.275 23.075 12.975 23.625C12.8583 23.825 12.8208 24.0375 12.8625 24.2625C12.9042 24.4875 13.0167 24.6583 13.2 24.775C13.4333 24.9083 13.675 24.95 13.925 24.9C14.175 24.85 14.3833 24.7083 14.55 24.475C14.7333 24.225 14.9625 24.0333 15.2375 23.9C15.5125 23.7667 15.8 23.7 16.1 23.7Z" fill="#A8A8A8"/>
</g>
<rect width="48" height="48" rx="24" transform="matrix(1 0 0 -1 52 52)" fill="white"/>
<path d="M69.9891 25.0543C69.935 24.5087 69.7028 24.0848 69.2924 23.7826C68.8821 23.4805 68.3252 23.3295 67.6217 23.3295C67.1437 23.3295 66.7401 23.3971 66.4109 23.5324C66.0818 23.6631 65.8292 23.8458 65.6534 24.0803C65.482 24.3148 65.3963 24.5808 65.3963 24.8784C65.3873 25.1264 65.4392 25.3429 65.5519 25.5278C65.6692 25.7127 65.8292 25.8727 66.0322 26.008C66.2351 26.1388 66.4696 26.2538 66.7356 26.353C67.0017 26.4477 67.2858 26.5289 67.5879 26.5965L68.8325 26.8941C69.4367 27.0294 69.9914 27.2098 70.4964 27.4352C71.0015 27.6607 71.4389 27.938 71.8087 28.2672C72.1784 28.5964 72.4648 28.9842 72.6677 29.4306C72.8751 29.8771 72.9811 30.3889 72.9856 30.9661C72.9811 31.8139 72.7647 32.5489 72.3363 33.1712C71.9124 33.789 71.2991 34.2692 70.4964 34.6119C69.6983 34.9501 68.7355 35.1192 67.6082 35.1192C66.4899 35.1192 65.5158 34.9479 64.6861 34.6052C63.8609 34.2624 63.2161 33.7551 62.7516 33.0832C62.2916 32.4068 62.0504 31.5703 62.0278 30.5738H64.862C64.8935 31.0382 65.0266 31.426 65.2611 31.7372C65.5001 32.0438 65.818 32.2761 66.2148 32.4339C66.6161 32.5872 67.0693 32.6639 67.5744 32.6639C68.0704 32.6639 68.501 32.5917 68.8663 32.4474C69.2361 32.3031 69.5224 32.1025 69.7253 31.8454C69.9283 31.5884 70.0297 31.293 70.0297 30.9593C70.0297 30.6482 69.9373 30.3866 69.7524 30.1747C69.572 29.9627 69.306 29.7824 68.9542 29.6336C68.607 29.4848 68.1809 29.3495 67.6758 29.2277L66.1674 28.8489C64.9995 28.5648 64.0773 28.1207 63.4009 27.5164C62.7245 26.9122 62.3886 26.0982 62.3931 25.0746C62.3886 24.2358 62.6118 23.5031 63.0627 22.8763C63.5182 22.2495 64.1427 21.7602 64.9364 21.4085C65.73 21.0567 66.6319 20.8809 67.642 20.8809C68.6701 20.8809 69.5675 21.0567 70.3341 21.4085C71.1052 21.7602 71.705 22.2495 72.1334 22.8763C72.5617 23.5031 72.7827 24.2291 72.7962 25.0543H69.9891Z" fill="#29ABE2"/>
<path d="M74.9557 21.0703H78.5677L82.3826 30.3776H82.5449L86.3599 21.0703H89.9719V34.9231H87.131V25.9066H87.016L83.431 34.8554H81.4965L77.9116 25.8727H77.7966V34.9231H74.9557V21.0703Z" fill="#29ABE2"/>
<circle cx="76" cy="28" r="26.5" stroke="#2A3647" stroke-width="3"/>
</svg>
