<svg width="54" height="90" viewBox="0 0 54 90" fill="none" xmlns="http://www.w3.org/2000/svg">
<path d="M27.0501 45.4673C24.8247 45.4673 22.833 45.0501 21.0749 44.2156C19.3169 43.3699 17.9205 42.2127 16.8857 40.744C15.862 39.2752 15.3168 37.5951 15.25 35.7035H21.2585C21.3698 37.1055 21.9762 38.2515 23.0778 39.1417C24.1793 40.0207 25.5034 40.4602 27.0501 40.4602C28.2629 40.4602 29.3422 40.1821 30.288 39.6257C31.2338 39.0694 31.9793 38.296 32.5245 37.3058C33.0697 36.3155 33.3368 35.1861 33.3256 33.9176C33.3368 32.6269 33.0642 31.4808 32.5078 30.4794C31.9515 29.478 31.1893 28.6935 30.2212 28.1261C29.2532 27.5475 28.1405 27.2582 26.8832 27.2582C25.8595 27.247 24.8525 27.4362 23.8622 27.8256C22.8719 28.2151 22.0875 28.7269 21.5089 29.3611L15.9176 28.4432L17.7035 10.8182H37.5316V15.9922H22.8274L21.8427 25.055H22.043C22.6772 24.3095 23.5729 23.692 24.7301 23.2024C25.8873 22.7017 27.1558 22.4513 28.5355 22.4513C30.6051 22.4513 32.4522 22.9409 34.0767 23.9201C35.7012 24.8881 36.9808 26.2234 37.9155 27.9258C38.8501 29.6282 39.3175 31.5754 39.3175 33.7674C39.3175 36.0262 38.7945 38.0401 37.7486 39.8093C36.7138 41.5674 35.2728 42.9527 33.4258 43.9652C31.5898 44.9666 29.4646 45.4673 27.0501 45.4673Z" fill="black"/>
<path d="M0.913441 60.9119V59.8182H8.5498V60.9119H5.3481V70H4.11515V60.9119H0.913441ZM11.5017 70.179C11.0178 70.179 10.5786 70.0878 10.1842 69.9055C9.7898 69.7199 9.47659 69.4531 9.24458 69.1051C9.01258 68.7538 8.89657 68.3295 8.89657 67.8324C8.89657 67.3949 8.98275 67.0402 9.1551 66.7685C9.32744 66.4934 9.55779 66.2779 9.84615 66.1222C10.1345 65.9664 10.4527 65.8504 10.8007 65.7741C11.152 65.6946 11.505 65.6316 11.8596 65.5852C12.3237 65.5256 12.6998 65.4808 12.9882 65.451C13.2799 65.4179 13.492 65.3632 13.6246 65.2869C13.7604 65.2107 13.8284 65.0781 13.8284 64.8892V64.8494C13.8284 64.3589 13.6942 63.9777 13.4257 63.706C13.1605 63.4342 12.7578 63.2983 12.2176 63.2983C11.6575 63.2983 11.2183 63.4209 10.9001 63.6662C10.5819 63.9115 10.3582 64.1733 10.229 64.4517L9.11532 64.054C9.31419 63.59 9.57934 63.2287 9.91078 62.9702C10.2455 62.7083 10.6101 62.526 11.0045 62.4233C11.4023 62.3172 11.7934 62.2642 12.1778 62.2642C12.4231 62.2642 12.7048 62.294 13.023 62.3537C13.3445 62.41 13.6544 62.5277 13.9527 62.7067C14.2543 62.8857 14.5045 63.1558 14.7034 63.517C14.9023 63.8783 15.0017 64.3622 15.0017 64.9688V70H13.8284V68.9659H13.7687C13.6892 69.1316 13.5566 69.3089 13.371 69.4979C13.1854 69.6868 12.9385 69.8475 12.6302 69.9801C12.322 70.1127 11.9458 70.179 11.5017 70.179ZM11.6807 69.125C12.1447 69.125 12.5358 69.0339 12.854 68.8516C13.1755 68.6693 13.4174 68.4339 13.5798 68.1456C13.7455 67.8572 13.8284 67.554 13.8284 67.2358V66.1619C13.7787 66.2216 13.6693 66.2763 13.5003 66.326C13.3345 66.3724 13.1423 66.4138 12.9236 66.4503C12.7081 66.4834 12.4977 66.5133 12.2922 66.5398C12.09 66.563 11.9259 66.5829 11.8 66.5994C11.4951 66.6392 11.21 66.7038 10.9449 66.7933C10.683 66.8795 10.4709 67.0104 10.3085 67.1861C10.1494 67.3584 10.0699 67.5937 10.0699 67.892C10.0699 68.2997 10.2207 68.608 10.5223 68.8168C10.8272 69.0223 11.2133 69.125 11.6807 69.125ZM22.5523 64.0739L21.4983 64.3722C21.432 64.1965 21.3343 64.0258 21.205 63.8601C21.079 63.6911 20.9067 63.5518 20.6879 63.4425C20.4692 63.3331 20.1891 63.2784 19.8477 63.2784C19.3804 63.2784 18.991 63.3861 18.6794 63.6016C18.3712 63.8137 18.2171 64.0838 18.2171 64.4119C18.2171 64.7036 18.3231 64.9339 18.5352 65.103C18.7474 65.272 19.0788 65.4129 19.5296 65.5256L20.6631 65.804C21.3459 65.9697 21.8546 66.2232 22.1894 66.5646C22.5241 66.9027 22.6915 67.3385 22.6915 67.8722C22.6915 68.3097 22.5655 68.7008 22.3137 69.0455C22.0651 69.3902 21.7171 69.6619 21.2696 69.8608C20.8222 70.0597 20.3018 70.1591 19.7085 70.1591C18.9297 70.1591 18.285 69.9901 17.7746 69.652C17.2642 69.3139 16.941 68.8201 16.8051 68.1705L17.9188 67.892C18.0248 68.303 18.2253 68.6113 18.5203 68.8168C18.8186 69.0223 19.2081 69.125 19.6887 69.125C20.2355 69.125 20.6697 69.009 20.9912 68.777C21.316 68.5417 21.4784 68.2599 21.4784 67.9318C21.4784 67.6667 21.3856 67.4446 21.2 67.2656C21.0144 67.0833 20.7294 66.9474 20.3449 66.858L19.0722 66.5597C18.3728 66.3939 17.8591 66.1371 17.531 65.7891C17.2062 65.4377 17.0438 64.9986 17.0438 64.4716C17.0438 64.0407 17.1647 63.6596 17.4067 63.3281C17.652 62.9967 17.9851 62.7365 18.406 62.5476C18.8302 62.3587 19.3108 62.2642 19.8477 62.2642C20.6034 62.2642 21.1967 62.4299 21.6276 62.7614C22.0618 63.0928 22.37 63.5303 22.5523 64.0739ZM25.5514 67.2159L25.5315 65.7642H25.7702L29.1111 62.3636H30.5628L27.0031 65.9631H26.9037L25.5514 67.2159ZM24.4577 70V59.8182H25.6309V70H24.4577ZM29.3099 70L26.327 66.2216L27.1622 65.4062L30.8014 70H29.3099ZM37.482 64.0739L36.428 64.3722C36.3617 64.1965 36.2639 64.0258 36.1347 63.8601C36.0087 63.6911 35.8364 63.5518 35.6176 63.4425C35.3989 63.3331 35.1188 63.2784 34.7774 63.2784C34.3101 63.2784 33.9207 63.3861 33.6091 63.6016C33.3009 63.8137 33.1468 64.0838 33.1468 64.4119C33.1468 64.7036 33.2528 64.9339 33.4649 65.103C33.6771 65.272 34.0085 65.4129 34.4593 65.5256L35.5928 65.804C36.2755 65.9697 36.7843 66.2232 37.1191 66.5646C37.4538 66.9027 37.6212 67.3385 37.6212 67.8722C37.6212 68.3097 37.4952 68.7008 37.2433 69.0455C36.9948 69.3902 36.6468 69.6619 36.1993 69.8608C35.7519 70.0597 35.2315 70.1591 34.6382 70.1591C33.8593 70.1591 33.2147 69.9901 32.7043 69.652C32.1939 69.3139 31.8707 68.8201 31.7348 68.1705L32.8485 67.892C32.9545 68.303 33.155 68.6113 33.45 68.8168C33.7483 69.0223 34.1378 69.125 34.6183 69.125C35.1652 69.125 35.5994 69.009 35.9209 68.777C36.2457 68.5417 36.4081 68.2599 36.4081 67.9318C36.4081 67.6667 36.3153 67.4446 36.1297 67.2656C35.9441 67.0833 35.6591 66.9474 35.2746 66.858L34.0019 66.5597C33.3025 66.3939 32.7888 66.1371 32.4607 65.7891C32.1359 65.4377 31.9735 64.9986 31.9735 64.4716C31.9735 64.0407 32.0944 63.6596 32.3364 63.3281C32.5816 62.9967 32.9147 62.7365 33.3357 62.5476C33.7599 62.3587 34.2405 62.2642 34.7774 62.2642C35.5331 62.2642 36.1264 62.4299 36.5573 62.7614C36.9914 63.0928 37.2997 63.5303 37.482 64.0739ZM43.3248 70V62.3636H44.4981V70H43.3248ZM43.9214 61.0909C43.6927 61.0909 43.4955 61.013 43.3298 60.8572C43.1674 60.7015 43.0862 60.5142 43.0862 60.2955C43.0862 60.0767 43.1674 59.8894 43.3298 59.7337C43.4955 59.5779 43.6927 59.5 43.9214 59.5C44.1501 59.5 44.3457 59.5779 44.5081 59.7337C44.6738 59.8894 44.7567 60.0767 44.7567 60.2955C44.7567 60.5142 44.6738 60.7015 44.5081 60.8572C44.3457 61.013 44.1501 61.0909 43.9214 61.0909ZM47.8204 65.4062V70H46.6471V62.3636H47.7806V63.5568H47.8801C48.059 63.169 48.3308 62.8575 48.6954 62.6222C49.06 62.3835 49.5306 62.2642 50.1073 62.2642C50.6244 62.2642 51.0768 62.3703 51.4646 62.5824C51.8524 62.7912 52.154 63.1094 52.3694 63.5369C52.5848 63.9612 52.6926 64.4981 52.6926 65.1477V70H51.5193V65.2273C51.5193 64.6274 51.3635 64.16 51.0519 63.8253C50.7404 63.4872 50.3128 63.3182 49.7693 63.3182C49.3947 63.3182 49.06 63.3994 48.765 63.5618C48.4733 63.7242 48.243 63.9612 48.074 64.2727C47.9049 64.5843 47.8204 64.9621 47.8204 65.4062ZM8.72319 87V76.8182H12.2828C12.9921 76.8182 13.5771 76.9408 14.0378 77.1861C14.4985 77.428 14.8416 77.7545 15.0669 78.1655C15.2923 78.5732 15.405 79.0256 15.405 79.5227C15.405 79.9602 15.3271 80.3215 15.1713 80.6065C15.0189 80.8916 14.8167 81.117 14.5648 81.2827C14.3162 81.4484 14.0461 81.571 13.7544 81.6506V81.75C14.066 81.7699 14.3792 81.8793 14.6941 82.0781C15.0089 82.277 15.2724 82.562 15.4846 82.9332C15.6967 83.3045 15.8027 83.7585 15.8027 84.2955C15.8027 84.8059 15.6867 85.2649 15.4547 85.6726C15.2227 86.0803 14.8565 86.4034 14.356 86.642C13.8555 86.8807 13.2042 87 12.4022 87H8.72319ZM9.95614 85.9062H12.4022C13.2076 85.9062 13.7793 85.7505 14.1174 85.4389C14.4587 85.1241 14.6294 84.7429 14.6294 84.2955C14.6294 83.9508 14.5416 83.6326 14.3659 83.3409C14.1903 83.0459 13.94 82.8106 13.6152 82.6349C13.2904 82.456 12.906 82.3665 12.4618 82.3665H9.95614V85.9062ZM9.95614 81.2926H12.2431C12.6143 81.2926 12.949 81.2197 13.2473 81.0739C13.5489 80.928 13.7876 80.7225 13.9632 80.4574C14.1422 80.1922 14.2317 79.8807 14.2317 79.5227C14.2317 79.0753 14.0759 78.6958 13.7644 78.3842C13.4528 78.0694 12.959 77.9119 12.2828 77.9119H9.95614V81.2926ZM20.7718 87.1591C20.0824 87.1591 19.4776 86.995 18.9572 86.6669C18.4402 86.3388 18.0358 85.8797 17.7441 85.2898C17.4558 84.6998 17.3116 84.0104 17.3116 83.2216C17.3116 82.4261 17.4558 81.7318 17.7441 81.1385C18.0358 80.5452 18.4402 80.0845 18.9572 79.7564C19.4776 79.4283 20.0824 79.2642 20.7718 79.2642C21.4612 79.2642 22.0645 79.4283 22.5815 79.7564C23.1019 80.0845 23.5062 80.5452 23.7946 81.1385C24.0862 81.7318 24.2321 82.4261 24.2321 83.2216C24.2321 84.0104 24.0862 84.6998 23.7946 85.2898C23.5062 85.8797 23.1019 86.3388 22.5815 86.6669C22.0645 86.995 21.4612 87.1591 20.7718 87.1591ZM20.7718 86.1051C21.2955 86.1051 21.7264 85.9709 22.0645 85.7024C22.4025 85.4339 22.6528 85.081 22.8152 84.6435C22.9776 84.206 23.0588 83.732 23.0588 83.2216C23.0588 82.7112 22.9776 82.2356 22.8152 81.7947C22.6528 81.3539 22.4025 80.9976 22.0645 80.7259C21.7264 80.4541 21.2955 80.3182 20.7718 80.3182C20.2482 80.3182 19.8173 80.4541 19.4792 80.7259C19.1412 80.9976 18.8909 81.3539 18.7285 81.7947C18.5661 82.2356 18.4849 82.7112 18.4849 83.2216C18.4849 83.732 18.5661 84.206 18.7285 84.6435C18.8909 85.081 19.1412 85.4339 19.4792 85.7024C19.8173 85.9709 20.2482 86.1051 20.7718 86.1051ZM28.2702 87.179C27.7863 87.179 27.3472 87.0878 26.9528 86.9055C26.5584 86.7199 26.2451 86.4531 26.0131 86.1051C25.7811 85.7538 25.6651 85.3295 25.6651 84.8324C25.6651 84.3949 25.7513 84.0402 25.9237 83.7685C26.096 83.4934 26.3263 83.2779 26.6147 83.1222C26.9031 82.9664 27.2212 82.8504 27.5692 82.7741C27.9206 82.6946 28.2736 82.6316 28.6282 82.5852C29.0922 82.5256 29.4684 82.4808 29.7567 82.451C30.0484 82.4179 30.2605 82.3632 30.3931 82.2869C30.529 82.2107 30.5969 82.0781 30.5969 81.8892V81.8494C30.5969 81.3589 30.4627 80.9777 30.1942 80.706C29.9291 80.4342 29.5264 80.2983 28.9862 80.2983C28.426 80.2983 27.9869 80.4209 27.6687 80.6662C27.3505 80.9115 27.1268 81.1733 26.9975 81.4517L25.8839 81.054C26.0827 80.59 26.3479 80.2287 26.6793 79.9702C27.0141 79.7083 27.3787 79.526 27.7731 79.4233C28.1708 79.3172 28.5619 79.2642 28.9464 79.2642C29.1916 79.2642 29.4734 79.294 29.7915 79.3537C30.113 79.41 30.4229 79.5277 30.7212 79.7067C31.0228 79.8857 31.2731 80.1558 31.4719 80.517C31.6708 80.8783 31.7702 81.3622 31.7702 81.9688V87H30.5969V85.9659H30.5373C30.4577 86.1316 30.3252 86.3089 30.1396 86.4979C29.954 86.6868 29.707 86.8475 29.3988 86.9801C29.0906 87.1127 28.7144 87.179 28.2702 87.179ZM28.4492 86.125C28.9132 86.125 29.3043 86.0339 29.6225 85.8516C29.944 85.6693 30.186 85.4339 30.3484 85.1456C30.5141 84.8572 30.5969 84.554 30.5969 84.2358V83.1619C30.5472 83.2216 30.4379 83.2763 30.2688 83.326C30.1031 83.3724 29.9109 83.4138 29.6921 83.4503C29.4767 83.4834 29.2662 83.5133 29.0607 83.5398C28.8585 83.563 28.6945 83.5829 28.5685 83.5994C28.2636 83.6392 27.9786 83.7038 27.7134 83.7933C27.4516 83.8795 27.2395 84.0104 27.0771 84.1861C26.918 84.3584 26.8384 84.5937 26.8384 84.892C26.8384 85.2997 26.9892 85.608 27.2908 85.8168C27.5958 86.0223 27.9819 86.125 28.4492 86.125ZM33.9118 87V79.3636H35.0453V80.517H35.1248C35.264 80.1392 35.5159 79.8326 35.8805 79.5973C36.2451 79.362 36.6561 79.2443 37.1135 79.2443C37.1996 79.2443 37.3074 79.246 37.4366 79.2493C37.5659 79.2526 37.6636 79.2576 37.7299 79.2642V80.4574C37.6902 80.4474 37.599 80.4325 37.4565 80.4126C37.3173 80.3894 37.1698 80.3778 37.014 80.3778C36.6428 80.3778 36.3114 80.4557 36.0197 80.6115C35.7314 80.764 35.5027 80.9761 35.3336 81.2479C35.1679 81.5163 35.085 81.8229 35.085 82.1676V87H33.9118ZM41.7718 87.1591C41.1355 87.1591 40.5737 86.9983 40.0865 86.6768C39.5993 86.352 39.2181 85.8946 38.943 85.3047C38.6679 84.7114 38.5304 84.0104 38.5304 83.2017C38.5304 82.3996 38.6679 81.7036 38.943 81.1136C39.2181 80.5237 39.6009 80.0679 40.0914 79.7464C40.582 79.425 41.1487 79.2642 41.7917 79.2642C42.2889 79.2642 42.6816 79.3471 42.97 79.5128C43.2617 79.6752 43.4837 79.8608 43.6362 80.0696C43.792 80.2751 43.9129 80.4441 43.9991 80.5767H44.0985V76.8182H45.2718V87H44.1383V85.8267H43.9991C43.9129 85.9659 43.7903 86.1416 43.6312 86.3537C43.4721 86.5625 43.2451 86.7498 42.9501 86.9155C42.6551 87.0779 42.2624 87.1591 41.7718 87.1591ZM41.9309 86.1051C42.4016 86.1051 42.7993 85.9825 43.1241 85.7372C43.4489 85.4886 43.6958 85.1456 43.8649 84.7081C44.0339 84.2673 44.1184 83.7585 44.1184 83.1818C44.1184 82.6117 44.0356 82.1129 43.8699 81.6854C43.7041 81.2545 43.4589 80.9197 43.1341 80.6811C42.8092 80.4392 42.4082 80.3182 41.9309 80.3182C41.4338 80.3182 41.0195 80.4458 40.688 80.701C40.3599 80.9529 40.113 81.2959 39.9473 81.7301C39.7849 82.161 39.7037 82.6449 39.7037 83.1818C39.7037 83.7254 39.7865 84.2192 39.9522 84.6634C40.1213 85.1042 40.3699 85.4555 40.698 85.7173C41.0294 85.9759 41.4404 86.1051 41.9309 86.1051Z" fill="#2A3647"/>
</svg>
