<svg width="40" height="74" viewBox="0 0 40 74" fill="none" xmlns="http://www.w3.org/2000/svg">
<path d="M25.6497 11.3182V45.5H19.4576V17.3434H19.2573L11.2626 22.4506V16.7759L19.758 11.3182H25.6497Z" fill="black"/>
<path d="M0.676136 61.4119V60.3182H8.3125V61.4119H5.1108V70.5H3.87784V61.4119H0.676136ZM12.0511 70.6591C11.3617 70.6591 10.7569 70.495 10.2365 70.1669C9.71946 69.8388 9.3151 69.3797 9.02344 68.7898C8.73509 68.1998 8.59091 67.5104 8.59091 66.7216C8.59091 65.9261 8.73509 65.2318 9.02344 64.6385C9.3151 64.0452 9.71946 63.5845 10.2365 63.2564C10.7569 62.9283 11.3617 62.7642 12.0511 62.7642C12.7405 62.7642 13.3438 62.9283 13.8608 63.2564C14.3812 63.5845 14.7855 64.0452 15.0739 64.6385C15.3655 65.2318 15.5114 65.9261 15.5114 66.7216C15.5114 67.5104 15.3655 68.1998 15.0739 68.7898C14.7855 69.3797 14.3812 69.8388 13.8608 70.1669C13.3438 70.495 12.7405 70.6591 12.0511 70.6591ZM12.0511 69.6051C12.5748 69.6051 13.0057 69.4709 13.3438 69.2024C13.6818 68.9339 13.9321 68.581 14.0945 68.1435C14.2569 67.706 14.3381 67.232 14.3381 66.7216C14.3381 66.2112 14.2569 65.7356 14.0945 65.2947C13.9321 64.8539 13.6818 64.4976 13.3438 64.2259C13.0057 63.9541 12.5748 63.8182 12.0511 63.8182C11.5275 63.8182 11.0966 63.9541 10.7585 64.2259C10.4205 64.4976 10.1702 64.8539 10.0078 65.2947C9.84541 65.7356 9.7642 66.2112 9.7642 66.7216C9.7642 67.232 9.84541 67.706 10.0078 68.1435C10.1702 68.581 10.4205 68.9339 10.7585 69.2024C11.0966 69.4709 11.5275 69.6051 12.0511 69.6051ZM21.6774 65.5881V66.6818H17.2228V65.5881H21.6774ZM26.6254 70.6591C25.989 70.6591 25.4272 70.4983 24.94 70.1768C24.4528 69.852 24.0716 69.3946 23.7965 68.8047C23.5214 68.2114 23.3839 67.5104 23.3839 66.7017C23.3839 65.8996 23.5214 65.2036 23.7965 64.6136C24.0716 64.0237 24.4544 63.5679 24.945 63.2464C25.4355 62.925 26.0022 62.7642 26.6452 62.7642C27.1424 62.7642 27.5352 62.8471 27.8235 63.0128C28.1152 63.1752 28.3372 63.3608 28.4897 63.5696C28.6455 63.7751 28.7665 63.9441 28.8526 64.0767H28.9521V60.3182H30.1254V70.5H28.9918V69.3267H28.8526C28.7665 69.4659 28.6438 69.6416 28.4847 69.8537C28.3256 70.0625 28.0986 70.2498 27.8036 70.4155C27.5086 70.5779 27.1159 70.6591 26.6254 70.6591ZM26.7844 69.6051C27.2551 69.6051 27.6528 69.4825 27.9776 69.2372C28.3024 68.9886 28.5494 68.6456 28.7184 68.2081C28.8874 67.7673 28.9719 67.2585 28.9719 66.6818C28.9719 66.1117 28.8891 65.6129 28.7234 65.1854C28.5576 64.7545 28.3124 64.4197 27.9876 64.1811C27.6628 63.9392 27.2617 63.8182 26.7844 63.8182C26.2873 63.8182 25.873 63.9458 25.5415 64.201C25.2134 64.4529 24.9665 64.7959 24.8008 65.2301C24.6384 65.661 24.5572 66.1449 24.5572 66.6818C24.5572 67.2254 24.64 67.7192 24.8058 68.1634C24.9748 68.6042 25.2234 68.9555 25.5515 69.2173C25.8829 69.4759 26.2939 69.6051 26.7844 69.6051ZM35.5394 70.6591C34.85 70.6591 34.2451 70.495 33.7248 70.1669C33.2077 69.8388 32.8034 69.3797 32.5117 68.7898C32.2234 68.1998 32.0792 67.5104 32.0792 66.7216C32.0792 65.9261 32.2234 65.2318 32.5117 64.6385C32.8034 64.0452 33.2077 63.5845 33.7248 63.2564C34.2451 62.9283 34.85 62.7642 35.5394 62.7642C36.2288 62.7642 36.832 62.9283 37.3491 63.2564C37.8694 63.5845 38.2738 64.0452 38.5621 64.6385C38.8538 65.2318 38.9996 65.9261 38.9996 66.7216C38.9996 67.5104 38.8538 68.1998 38.5621 68.7898C38.2738 69.3797 37.8694 69.8388 37.3491 70.1669C36.832 70.495 36.2288 70.6591 35.5394 70.6591ZM35.5394 69.6051C36.0631 69.6051 36.494 69.4709 36.832 69.2024C37.1701 68.9339 37.4203 68.581 37.5827 68.1435C37.7451 67.706 37.8263 67.232 37.8263 66.7216C37.8263 66.2112 37.7451 65.7356 37.5827 65.2947C37.4203 64.8539 37.1701 64.4976 36.832 64.2259C36.494 63.9541 36.0631 63.8182 35.5394 63.8182C35.0157 63.8182 34.5849 63.9541 34.2468 64.2259C33.9087 64.4976 33.6585 64.8539 33.4961 65.2947C33.3337 65.7356 33.2525 66.2112 33.2525 66.7216C33.2525 67.232 33.3337 67.706 33.4961 68.1435C33.6585 68.581 33.9087 68.9339 34.2468 69.2024C34.5849 69.4709 35.0157 69.6051 35.5394 69.6051Z" fill="#2A3647"/>
</svg>
