<svg width="50" height="74" viewBox="0 0 50 74" fill="none" xmlns="http://www.w3.org/2000/svg">
<path d="M30.6497 11.3182V45.5H24.4576V17.3434H24.2573L16.2626 22.4506V16.7759L24.758 11.3182H30.6497Z" fill="black"/>
<path d="M11.875 70.5H8.73295V60.3182H12.0142C13.0019 60.3182 13.8471 60.522 14.5497 60.9297C15.2524 61.334 15.791 61.9157 16.1655 62.6747C16.54 63.4304 16.7273 64.3352 16.7273 65.3892C16.7273 66.4498 16.5384 67.3629 16.1605 68.1286C15.7827 68.8909 15.2325 69.4775 14.5099 69.8885C13.7874 70.2962 12.9091 70.5 11.875 70.5ZM9.96591 69.4062H11.7955C12.6373 69.4062 13.335 69.2438 13.8885 68.919C14.442 68.5942 14.8546 68.1319 15.1264 67.532C15.3982 66.9321 15.5341 66.2178 15.5341 65.3892C15.5341 64.5672 15.3999 63.8596 15.1314 63.2663C14.8629 62.6697 14.4619 62.2124 13.9283 61.8942C13.3946 61.5727 12.7301 61.4119 11.9347 61.4119H9.96591V69.4062ZM21.7386 70.6591C21.0492 70.6591 20.4444 70.495 19.924 70.1669C19.407 69.8388 19.0026 69.3797 18.7109 68.7898C18.4226 68.1998 18.2784 67.5104 18.2784 66.7216C18.2784 65.9261 18.4226 65.2318 18.7109 64.6385C19.0026 64.0452 19.407 63.5845 19.924 63.2564C20.4444 62.9283 21.0492 62.7642 21.7386 62.7642C22.428 62.7642 23.0313 62.9283 23.5483 63.2564C24.0687 63.5845 24.473 64.0452 24.7614 64.6385C25.053 65.2318 25.1989 65.9261 25.1989 66.7216C25.1989 67.5104 25.053 68.1998 24.7614 68.7898C24.473 69.3797 24.0687 69.8388 23.5483 70.1669C23.0313 70.495 22.428 70.6591 21.7386 70.6591ZM21.7386 69.6051C22.2623 69.6051 22.6932 69.4709 23.0312 69.2024C23.3693 68.9339 23.6196 68.581 23.782 68.1435C23.9444 67.706 24.0256 67.232 24.0256 66.7216C24.0256 66.2112 23.9444 65.7356 23.782 65.2947C23.6196 64.8539 23.3693 64.4976 23.0312 64.2259C22.6932 63.9541 22.2623 63.8182 21.7386 63.8182C21.215 63.8182 20.7841 63.9541 20.446 64.2259C20.108 64.4976 19.8577 64.8539 19.6953 65.2947C19.5329 65.7356 19.4517 66.2112 19.4517 66.7216C19.4517 67.232 19.5329 67.706 19.6953 68.1435C19.8577 68.581 20.108 68.9339 20.446 69.2024C20.7841 69.4709 21.215 69.6051 21.7386 69.6051ZM28.1632 65.9062V70.5H26.9899V62.8636H28.1234V64.0568H28.2228C28.4018 63.669 28.6736 63.3575 29.0382 63.1222C29.4028 62.8835 29.8734 62.7642 30.4501 62.7642C30.9672 62.7642 31.4196 62.8703 31.8074 63.0824C32.1951 63.2912 32.4967 63.6094 32.7122 64.0369C32.9276 64.4612 33.0353 64.9981 33.0353 65.6477V70.5H31.862V65.7273C31.862 65.1274 31.7063 64.66 31.3947 64.3253C31.0832 63.9872 30.6556 63.8182 30.112 63.8182C29.7375 63.8182 29.4028 63.8994 29.1078 64.0618C28.8161 64.2242 28.5858 64.4612 28.4167 64.7727C28.2477 65.0843 28.1632 65.4621 28.1632 65.9062ZM38.381 70.6591C37.6452 70.6591 37.0105 70.4967 36.4769 70.1719C35.9466 69.8438 35.5373 69.3864 35.2489 68.7997C34.9639 68.2098 34.8214 67.5237 34.8214 66.7415C34.8214 65.9593 34.9639 65.2699 35.2489 64.6733C35.5373 64.0734 35.9383 63.6061 36.4521 63.2713C36.9691 62.9332 37.5723 62.7642 38.2617 62.7642C38.6594 62.7642 39.0522 62.8305 39.44 62.9631C39.8278 63.0956 40.1808 63.3111 40.4989 63.6094C40.8171 63.9044 41.0707 64.2955 41.2596 64.7827C41.4485 65.2699 41.543 65.8698 41.543 66.5824V67.0795H35.6566V66.0653H40.3498C40.3498 65.6345 40.2636 65.25 40.0913 64.9119C39.9222 64.5739 39.6803 64.3071 39.3654 64.1115C39.0539 63.916 38.686 63.8182 38.2617 63.8182C37.7944 63.8182 37.39 63.9342 37.0487 64.1662C36.7106 64.3949 36.4504 64.6932 36.2681 65.0611C36.0858 65.429 35.9947 65.8234 35.9947 66.2443V66.9205C35.9947 67.4972 36.0941 67.986 36.293 68.3871C36.4951 68.7848 36.7752 69.0881 37.1332 69.2969C37.4911 69.5024 37.9071 69.6051 38.381 69.6051C38.6893 69.6051 38.9677 69.562 39.2163 69.4759C39.4682 69.3864 39.6853 69.2538 39.8675 69.0781C40.0498 68.8991 40.1907 68.6771 40.2901 68.4119L41.4237 68.7301C41.3043 69.1146 41.1038 69.4527 40.8221 69.7443C40.5404 70.0327 40.1924 70.258 39.7781 70.4205C39.3638 70.5795 38.8981 70.6591 38.381 70.6591Z" fill="#2A3647"/>
</svg>
