<svg width="60" height="91" viewBox="0 0 60 91" fill="none" xmlns="http://www.w3.org/2000/svg">
<path d="M18.4419 45V40.527L30.3088 28.8938C31.4437 27.7478 32.3895 26.7296 33.1461 25.8395C33.9028 24.9493 34.4702 24.087 34.8485 23.2525C35.2269 22.418 35.416 21.5278 35.416 20.582C35.416 19.5027 35.1712 18.5792 34.6816 17.8114C34.1921 17.0326 33.5189 16.4317 32.6621 16.0089C31.8053 15.5861 30.8317 15.3746 29.7413 15.3746C28.6175 15.3746 27.6328 15.6083 26.7871 16.0756C25.9415 16.5318 25.285 17.1828 24.8176 18.0284C24.3614 18.8741 24.1333 19.881 24.1333 21.0494H18.2417C18.2417 18.8796 18.7368 16.9936 19.7271 15.3913C20.7174 13.7891 22.0804 12.5484 23.8162 11.6694C25.5632 10.7904 27.566 10.3509 29.8248 10.3509C32.1169 10.3509 34.1309 10.7792 35.8667 11.636C37.6025 12.4928 38.9488 13.6667 39.9057 15.1577C40.8738 16.6487 41.3578 18.3511 41.3578 20.2649C41.3578 21.5445 41.113 22.8018 40.6234 24.0369C40.1338 25.272 39.2715 26.6406 38.0364 28.1428C36.8124 29.6449 35.0933 31.4641 32.8791 33.6005L26.9874 39.5923V39.826H41.8752V45H18.4419Z" fill="black"/>
<path d="M3.72203 60.9119V59.8182H11.3584V60.9119H8.15669V70H6.92374V60.9119H3.72203ZM14.3103 70.179C13.8264 70.179 13.3872 70.0878 12.9928 69.9055C12.5984 69.7199 12.2852 69.4531 12.0532 69.1051C11.8212 68.7538 11.7052 68.3295 11.7052 67.8324C11.7052 67.3949 11.7913 67.0402 11.9637 66.7685C12.136 66.4934 12.3664 66.2779 12.6547 66.1222C12.9431 65.9664 13.2613 65.8504 13.6093 65.7741C13.9606 65.6946 14.3136 65.6316 14.6682 65.5852C15.1323 65.5256 15.5084 65.4808 15.7968 65.451C16.0885 65.4179 16.3006 65.3632 16.4331 65.2869C16.569 65.2107 16.637 65.0781 16.637 64.8892V64.8494C16.637 64.3589 16.5028 63.9777 16.2343 63.706C15.9691 63.4342 15.5664 63.2983 15.0262 63.2983C14.4661 63.2983 14.0269 63.4209 13.7087 63.6662C13.3905 63.9115 13.1668 64.1733 13.0376 64.4517L11.9239 64.054C12.1228 63.59 12.3879 63.2287 12.7194 62.9702C13.0541 62.7083 13.4187 62.526 13.8131 62.4233C14.2108 62.3172 14.6019 62.2642 14.9864 62.2642C15.2317 62.2642 15.5134 62.294 15.8316 62.3537C16.1531 62.41 16.463 62.5277 16.7613 62.7067C17.0629 62.8857 17.3131 63.1558 17.512 63.517C17.7108 63.8783 17.8103 64.3622 17.8103 64.9688V70H16.637V68.9659H16.5773C16.4978 69.1316 16.3652 69.3089 16.1796 69.4979C15.994 69.6868 15.7471 69.8475 15.4388 69.9801C15.1306 70.1127 14.7544 70.179 14.3103 70.179ZM14.4893 69.125C14.9533 69.125 15.3444 69.0339 15.6626 68.8516C15.984 68.6693 16.226 68.4339 16.3884 68.1456C16.5541 67.8572 16.637 67.554 16.637 67.2358V66.1619C16.5873 66.2216 16.4779 66.2763 16.3089 66.326C16.1431 66.3724 15.9509 66.4138 15.7322 66.4503C15.5167 66.4834 15.3063 66.5133 15.1008 66.5398C14.8986 66.563 14.7345 66.5829 14.6086 66.5994C14.3037 66.6392 14.0186 66.7038 13.7535 66.7933C13.4916 66.8795 13.2795 67.0104 13.1171 67.1861C12.958 67.3584 12.8785 67.5937 12.8785 67.892C12.8785 68.2997 13.0293 68.608 13.3309 68.8168C13.6358 69.0223 14.0219 69.125 14.4893 69.125ZM25.3609 64.0739L24.3069 64.3722C24.2406 64.1965 24.1428 64.0258 24.0136 63.8601C23.8876 63.6911 23.7153 63.5518 23.4965 63.4425C23.2778 63.3331 22.9977 63.2784 22.6563 63.2784C22.189 63.2784 21.7996 63.3861 21.488 63.6016C21.1798 63.8137 21.0257 64.0838 21.0257 64.4119C21.0257 64.7036 21.1317 64.9339 21.3438 65.103C21.556 65.272 21.8874 65.4129 22.3382 65.5256L23.4717 65.804C24.1544 65.9697 24.6632 66.2232 24.998 66.5646C25.3327 66.9027 25.5001 67.3385 25.5001 67.8722C25.5001 68.3097 25.3741 68.7008 25.1222 69.0455C24.8737 69.3902 24.5257 69.6619 24.0782 69.8608C23.6308 70.0597 23.1104 70.1591 22.5171 70.1591C21.7383 70.1591 21.0936 69.9901 20.5832 69.652C20.0728 69.3139 19.7496 68.8201 19.6137 68.1705L20.7274 67.892C20.8334 68.303 21.0339 68.6113 21.3289 68.8168C21.6272 69.0223 22.0167 69.125 22.4972 69.125C23.0441 69.125 23.4783 69.009 23.7998 68.777C24.1246 68.5417 24.287 68.2599 24.287 67.9318C24.287 67.6667 24.1942 67.4446 24.0086 67.2656C23.823 67.0833 23.538 66.9474 23.1535 66.858L21.8808 66.5597C21.1814 66.3939 20.6677 66.1371 20.3396 65.7891C20.0148 65.4377 19.8524 64.9986 19.8524 64.4716C19.8524 64.0407 19.9733 63.6596 20.2153 63.3281C20.4606 62.9967 20.7936 62.7365 21.2146 62.5476C21.6388 62.3587 22.1194 62.2642 22.6563 62.2642C23.412 62.2642 24.0053 62.4299 24.4362 62.7614C24.8704 63.0928 25.1786 63.5303 25.3609 64.0739ZM28.36 67.2159L28.3401 65.7642H28.5787L31.9197 62.3636H33.3714L29.8117 65.9631H29.7123L28.36 67.2159ZM27.2662 70V59.8182H28.4395V70H27.2662ZM32.1185 70L29.1356 66.2216L29.9708 65.4062L33.61 70H32.1185ZM40.2906 64.0739L39.2366 64.3722C39.1703 64.1965 39.0725 64.0258 38.9433 63.8601C38.8173 63.6911 38.645 63.5518 38.4262 63.4425C38.2075 63.3331 37.9274 63.2784 37.586 63.2784C37.1187 63.2784 36.7293 63.3861 36.4177 63.6016C36.1095 63.8137 35.9553 64.0838 35.9553 64.4119C35.9553 64.7036 36.0614 64.9339 36.2735 65.103C36.4856 65.272 36.8171 65.4129 37.2678 65.5256L38.4014 65.804C39.0841 65.9697 39.5929 66.2232 39.9276 66.5646C40.2624 66.9027 40.4298 67.3385 40.4298 67.8722C40.4298 68.3097 40.3038 68.7008 40.0519 69.0455C39.8034 69.3902 39.4553 69.6619 39.0079 69.8608C38.5605 70.0597 38.0401 70.1591 37.4468 70.1591C36.6679 70.1591 36.0233 69.9901 35.5129 69.652C35.0025 69.3139 34.6793 68.8201 34.5434 68.1705L35.657 67.892C35.7631 68.303 35.9636 68.6113 36.2586 68.8168C36.5569 69.0223 36.9463 69.125 37.4269 69.125C37.9738 69.125 38.408 69.009 38.7295 68.777C39.0543 68.5417 39.2167 68.2599 39.2167 67.9318C39.2167 67.6667 39.1239 67.4446 38.9383 67.2656C38.7527 67.0833 38.4677 66.9474 38.0832 66.858L36.8105 66.5597C36.1111 66.3939 35.5974 66.1371 35.2693 65.7891C34.9445 65.4377 34.782 64.9986 34.782 64.4716C34.782 64.0407 34.903 63.6596 35.145 63.3281C35.3902 62.9967 35.7233 62.7365 36.1443 62.5476C36.5685 62.3587 37.0491 62.2642 37.586 62.2642C38.3417 62.2642 38.935 62.4299 39.3659 62.7614C39.8 63.0928 40.1083 63.5303 40.2906 64.0739ZM47.5255 59.8182V70H46.2925V59.8182H47.5255ZM51.0118 65.4062V70H49.8385V62.3636H50.972V63.5568H51.0715C51.2504 63.169 51.5222 62.8575 51.8868 62.6222C52.2514 62.3835 52.722 62.2642 53.2987 62.2642C53.8158 62.2642 54.2682 62.3703 54.656 62.5824C55.0438 62.7912 55.3454 63.1094 55.5608 63.5369C55.7762 63.9612 55.884 64.4981 55.884 65.1477V70H54.7107V65.2273C54.7107 64.6274 54.5549 64.16 54.2433 63.8253C53.9318 63.4872 53.5042 63.3182 52.9607 63.3182C52.5861 63.3182 52.2514 63.3994 51.9564 63.5618C51.6647 63.7242 51.4344 63.9612 51.2654 64.2727C51.0963 64.5843 51.0118 64.9621 51.0118 65.4062ZM1.98198 87V76.8182H5.42232C6.22109 76.8182 6.87402 76.9624 7.38113 77.2507C7.89154 77.5357 8.26938 77.9219 8.51465 78.4091C8.75991 78.8963 8.88255 79.4399 8.88255 80.0398C8.88255 80.6397 8.75991 81.1849 8.51465 81.6754C8.2727 82.166 7.89817 82.5571 7.39107 82.8487C6.88397 83.1371 6.23435 83.2812 5.44221 83.2812H2.9763V82.1875H5.40243C5.94931 82.1875 6.38846 82.093 6.7199 81.9041C7.05134 81.7152 7.29164 81.46 7.44078 81.1385C7.59325 80.8137 7.66948 80.4474 7.66948 80.0398C7.66948 79.6321 7.59325 79.2675 7.44078 78.946C7.29164 78.6245 7.04969 78.3726 6.71493 78.1903C6.38018 78.0047 5.93605 77.9119 5.38255 77.9119H3.21493V87H1.98198ZM10.7096 87V79.3636H11.8431V80.517H11.9227C12.0619 80.1392 12.3138 79.8326 12.6784 79.5973C13.0429 79.362 13.4539 79.2443 13.9113 79.2443C13.9975 79.2443 14.1052 79.246 14.2345 79.2493C14.3637 79.2526 14.4615 79.2576 14.5278 79.2642V80.4574C14.488 80.4474 14.3969 80.4325 14.2544 80.4126C14.1151 80.3894 13.9677 80.3778 13.8119 80.3778C13.4407 80.3778 13.1092 80.4557 12.8176 80.6115C12.5292 80.764 12.3005 80.9761 12.1315 81.2479C11.9658 81.5163 11.8829 81.8229 11.8829 82.1676V87H10.7096ZM18.7884 87.1591C18.099 87.1591 17.4942 86.995 16.9738 86.6669C16.4568 86.3388 16.0524 85.8797 15.7607 85.2898C15.4724 84.6998 15.3282 84.0104 15.3282 83.2216C15.3282 82.4261 15.4724 81.7318 15.7607 81.1385C16.0524 80.5452 16.4568 80.0845 16.9738 79.7564C17.4942 79.4283 18.099 79.2642 18.7884 79.2642C19.4778 79.2642 20.0811 79.4283 20.5981 79.7564C21.1185 80.0845 21.5228 80.5452 21.8112 81.1385C22.1028 81.7318 22.2487 82.4261 22.2487 83.2216C22.2487 84.0104 22.1028 84.6998 21.8112 85.2898C21.5228 85.8797 21.1185 86.3388 20.5981 86.6669C20.0811 86.995 19.4778 87.1591 18.7884 87.1591ZM18.7884 86.1051C19.3121 86.1051 19.743 85.9709 20.0811 85.7024C20.4191 85.4339 20.6694 85.081 20.8318 84.6435C20.9942 84.206 21.0754 83.732 21.0754 83.2216C21.0754 82.7112 20.9942 82.2356 20.8318 81.7947C20.6694 81.3539 20.4191 80.9976 20.0811 80.7259C19.743 80.4541 19.3121 80.3182 18.7884 80.3182C18.2648 80.3182 17.8339 80.4541 17.4958 80.7259C17.1578 80.9976 16.9075 81.3539 16.7451 81.7947C16.5827 82.2356 16.5015 82.7112 16.5015 83.2216C16.5015 83.732 16.5827 84.206 16.7451 84.6435C16.9075 85.081 17.1578 85.4339 17.4958 85.7024C17.8339 85.9709 18.2648 86.1051 18.7884 86.1051ZM27.1221 90.0227C26.5553 90.0227 26.0681 89.9498 25.6604 89.804C25.2528 89.6615 24.913 89.4725 24.6412 89.2372C24.3728 89.0052 24.159 88.7566 23.9999 88.4915L24.9346 87.8352C25.0406 87.9744 25.1749 88.1335 25.3373 88.3125C25.4997 88.4948 25.7217 88.6522 26.0035 88.7848C26.2885 88.9207 26.6614 88.9886 27.1221 88.9886C27.7385 88.9886 28.2473 88.8395 28.6483 88.5412C29.0494 88.2429 29.2499 87.7756 29.2499 87.1392V85.5881H29.1505C29.0643 85.7273 28.9417 85.8996 28.7826 86.1051C28.6268 86.3073 28.4014 86.4879 28.1064 86.647C27.8148 86.8028 27.4204 86.8807 26.9232 86.8807C26.3067 86.8807 25.7532 86.7348 25.2627 86.4432C24.7755 86.1515 24.3894 85.7273 24.1043 85.1705C23.8226 84.6136 23.6817 83.9375 23.6817 83.142C23.6817 82.3598 23.8193 81.6787 24.0944 81.0987C24.3695 80.5154 24.7523 80.0646 25.2428 79.7464C25.7333 79.425 26.3001 79.2642 26.9431 79.2642C27.4403 79.2642 27.8347 79.3471 28.1263 79.5128C28.4213 79.6752 28.6467 79.8608 28.8025 80.0696C28.9616 80.2751 29.0842 80.4441 29.1704 80.5767H29.2897V79.3636H30.4232V87.2188C30.4232 87.875 30.2741 88.4086 29.9758 88.8196C29.6808 89.2339 29.2831 89.5372 28.7826 89.7294C28.2854 89.925 27.7319 90.0227 27.1221 90.0227ZM27.0823 85.8267C27.5529 85.8267 27.9507 85.719 28.2755 85.5036C28.6003 85.2881 28.8472 84.9782 29.0162 84.5739C29.1853 84.1695 29.2698 83.6856 29.2698 83.1222C29.2698 82.572 29.1869 82.0864 29.0212 81.6655C28.8555 81.2446 28.6102 80.9148 28.2854 80.6761C27.9606 80.4375 27.5596 80.3182 27.0823 80.3182C26.5851 80.3182 26.1708 80.4441 25.8394 80.696C25.5113 80.9479 25.2644 81.286 25.0986 81.7102C24.9362 82.1345 24.855 82.6051 24.855 83.1222C24.855 83.6525 24.9379 84.1214 25.1036 84.5291C25.2726 84.9335 25.5212 85.2517 25.8493 85.4837C26.1808 85.7124 26.5918 85.8267 27.0823 85.8267ZM32.5709 87V79.3636H33.7045V80.517H33.784C33.9232 80.1392 34.1751 79.8326 34.5397 79.5973C34.9043 79.362 35.3153 79.2443 35.7726 79.2443C35.8588 79.2443 35.9665 79.246 36.0958 79.2493C36.2251 79.2526 36.3228 79.2576 36.3891 79.2642V80.4574C36.3493 80.4474 36.2582 80.4325 36.1157 80.4126C35.9765 80.3894 35.829 80.3778 35.6732 80.3778C35.302 80.3778 34.9706 80.4557 34.6789 80.6115C34.3905 80.764 34.1618 80.9761 33.9928 81.2479C33.8271 81.5163 33.7442 81.8229 33.7442 82.1676V87H32.5709ZM40.7492 87.1591C40.0134 87.1591 39.3787 86.9967 38.8451 86.6719C38.3148 86.3438 37.9055 85.8864 37.6171 85.2997C37.3321 84.7098 37.1895 84.0237 37.1895 83.2415C37.1895 82.4593 37.3321 81.7699 37.6171 81.1733C37.9055 80.5734 38.3065 80.1061 38.8202 79.7713C39.3373 79.4332 39.9405 79.2642 40.6299 79.2642C41.0276 79.2642 41.4204 79.3305 41.8081 79.4631C42.1959 79.5956 42.5489 79.8111 42.8671 80.1094C43.1853 80.4044 43.4388 80.7955 43.6278 81.2827C43.8167 81.7699 43.9111 82.3698 43.9111 83.0824V83.5795H38.0248V82.5653H42.718C42.718 82.1345 42.6318 81.75 42.4594 81.4119C42.2904 81.0739 42.0484 80.8071 41.7336 80.6115C41.422 80.416 41.0541 80.3182 40.6299 80.3182C40.1626 80.3182 39.7582 80.4342 39.4168 80.6662C39.0787 80.8949 38.8186 81.1932 38.6363 81.5611C38.454 81.929 38.3628 82.3234 38.3628 82.7443V83.4205C38.3628 83.9972 38.4623 84.486 38.6611 84.8871C38.8633 85.2848 39.1434 85.5881 39.5013 85.7969C39.8593 86.0024 40.2752 86.1051 40.7492 86.1051C41.0574 86.1051 41.3358 86.062 41.5844 85.9759C41.8363 85.8864 42.0534 85.7538 42.2357 85.5781C42.418 85.3991 42.5589 85.1771 42.6583 84.9119L43.7918 85.2301C43.6725 85.6146 43.472 85.9527 43.1903 86.2443C42.9085 86.5327 42.5605 86.758 42.1462 86.9205C41.7319 87.0795 41.2662 87.1591 40.7492 87.1591ZM51.105 81.0739L50.051 81.3722C49.9848 81.1965 49.887 81.0258 49.7577 80.8601C49.6318 80.6911 49.4594 80.5518 49.2407 80.4425C49.0219 80.3331 48.7419 80.2784 48.4005 80.2784C47.9331 80.2784 47.5437 80.3861 47.2322 80.6016C46.9239 80.8137 46.7698 81.0838 46.7698 81.4119C46.7698 81.7036 46.8759 81.9339 47.088 82.103C47.3001 82.272 47.6315 82.4129 48.0823 82.5256L49.2158 82.804C49.8986 82.9697 50.4073 83.2232 50.7421 83.5646C51.0769 83.9027 51.2442 84.3385 51.2442 84.8722C51.2442 85.3097 51.1183 85.7008 50.8664 86.0455C50.6178 86.3902 50.2698 86.6619 49.8224 86.8608C49.3749 87.0597 48.8546 87.1591 48.2613 87.1591C47.4824 87.1591 46.8377 86.9901 46.3273 86.652C45.8169 86.3139 45.4938 85.8201 45.3579 85.1705L46.4715 84.892C46.5776 85.303 46.7781 85.6113 47.0731 85.8168C47.3714 86.0223 47.7608 86.125 48.2414 86.125C48.7883 86.125 49.2224 86.009 49.5439 85.777C49.8688 85.5417 50.0312 85.2599 50.0312 84.9318C50.0312 84.6667 49.9384 84.4446 49.7528 84.2656C49.5671 84.0833 49.2821 83.9474 48.8976 83.858L47.6249 83.5597C46.9256 83.3939 46.4118 83.1371 46.0837 82.7891C45.7589 82.4377 45.5965 81.9986 45.5965 81.4716C45.5965 81.0407 45.7175 80.6596 45.9594 80.3281C46.2047 79.9967 46.5378 79.7365 46.9587 79.5476C47.383 79.3587 47.8635 79.2642 48.4005 79.2642C49.1562 79.2642 49.7494 79.4299 50.1803 79.7614C50.6145 80.0928 50.9227 80.5303 51.105 81.0739ZM58.4195 81.0739L57.3655 81.3722C57.2992 81.1965 57.2014 81.0258 57.0722 80.8601C56.9462 80.6911 56.7739 80.5518 56.5551 80.4425C56.3364 80.3331 56.0563 80.2784 55.7149 80.2784C55.2476 80.2784 54.8582 80.3861 54.5466 80.6016C54.2384 80.8137 54.0843 81.0838 54.0843 81.4119C54.0843 81.7036 54.1903 81.9339 54.4024 82.103C54.6146 82.272 54.946 82.4129 55.3968 82.5256L56.5303 82.804C57.213 82.9697 57.7218 83.2232 58.0566 83.5646C58.3913 83.9027 58.5587 84.3385 58.5587 84.8722C58.5587 85.3097 58.4327 85.7008 58.1808 86.0455C57.9323 86.3902 57.5843 86.6619 57.1368 86.8608C56.6894 87.0597 56.169 87.1591 55.5757 87.1591C54.7968 87.1591 54.1522 86.9901 53.6418 86.652C53.1314 86.3139 52.8082 85.8201 52.6723 85.1705L53.786 84.892C53.892 85.303 54.0925 85.6113 54.3875 85.8168C54.6858 86.0223 55.0753 86.125 55.5558 86.125C56.1027 86.125 56.5369 86.009 56.8584 85.777C57.1832 85.5417 57.3456 85.2599 57.3456 84.9318C57.3456 84.6667 57.2528 84.4446 57.0672 84.2656C56.8816 84.0833 56.5966 83.9474 56.2121 83.858L54.9394 83.5597C54.24 83.3939 53.7263 83.1371 53.3982 82.7891C53.0734 82.4377 52.911 81.9986 52.911 81.4716C52.911 81.0407 53.0319 80.6596 53.2739 80.3281C53.5191 79.9967 53.8522 79.7365 54.2732 79.5476C54.6974 79.3587 55.178 79.2642 55.7149 79.2642C56.4706 79.2642 57.0639 79.4299 57.4948 79.7614C57.9289 80.0928 58.2372 80.5303 58.4195 81.0739Z" fill="#2A3647"/>
</svg>
