<svg width="136" height="45" viewBox="0 0 136 45" fill="none" xmlns="http://www.w3.org/2000/svg">
<path d="M12.2045 9.18182C12.2045 10.4508 11.964 11.5303 11.483 12.4205C11.0057 13.3106 10.3542 13.9905 9.52841 14.4602C8.70644 14.9261 7.7822 15.1591 6.75568 15.1591C5.72159 15.1591 4.79356 14.9242 3.97159 14.4545C3.14962 13.9848 2.5 13.3049 2.02273 12.4148C1.54545 11.5246 1.30682 10.447 1.30682 9.18182C1.30682 7.91288 1.54545 6.83333 2.02273 5.94318C2.5 5.05303 3.14962 4.375 3.97159 3.90909C4.79356 3.43939 5.72159 3.20455 6.75568 3.20455C7.7822 3.20455 8.70644 3.43939 9.52841 3.90909C10.3542 4.375 11.0057 5.05303 11.483 5.94318C11.964 6.83333 12.2045 7.91288 12.2045 9.18182ZM9.71023 9.18182C9.71023 8.35985 9.58712 7.66667 9.34091 7.10227C9.09848 6.53788 8.75568 6.10985 8.3125 5.81818C7.86932 5.52652 7.35038 5.38068 6.75568 5.38068C6.16098 5.38068 5.64205 5.52652 5.19886 5.81818C4.75568 6.10985 4.41098 6.53788 4.16477 7.10227C3.92235 7.66667 3.80114 8.35985 3.80114 9.18182C3.80114 10.0038 3.92235 10.697 4.16477 11.2614C4.41098 11.8258 4.75568 12.2538 5.19886 12.5455C5.64205 12.8371 6.16098 12.983 6.75568 12.983C7.35038 12.983 7.86932 12.8371 8.3125 12.5455C8.75568 12.2538 9.09848 11.8258 9.34091 11.2614C9.58712 10.697 9.71023 10.0038 9.71023 9.18182ZM17.9247 15.1705C17.0308 15.1705 16.2618 14.9811 15.6179 14.6023C14.9777 14.2197 14.4853 13.6894 14.1406 13.0114C13.7997 12.3333 13.6293 11.553 13.6293 10.6705C13.6293 9.77652 13.8016 8.99242 14.1463 8.31818C14.4948 7.64015 14.9891 7.11174 15.6293 6.73295C16.2694 6.35038 17.0308 6.15909 17.9134 6.15909C18.6747 6.15909 19.3414 6.29735 19.9134 6.57386C20.4853 6.85038 20.938 7.23864 21.2713 7.73864C21.6046 8.23864 21.7884 8.82576 21.8224 9.5H19.5384C19.474 9.06439 19.3035 8.71401 19.027 8.44886C18.7543 8.17992 18.3963 8.04545 17.9531 8.04545C17.5781 8.04545 17.2505 8.14773 16.9702 8.35227C16.6937 8.55303 16.4777 8.84659 16.3224 9.23295C16.1671 9.61932 16.0895 10.0871 16.0895 10.6364C16.0895 11.1932 16.1652 11.6667 16.3168 12.0568C16.4721 12.447 16.6899 12.7443 16.9702 12.9489C17.2505 13.1534 17.5781 13.2557 17.9531 13.2557C18.2296 13.2557 18.4777 13.1989 18.6974 13.0852C18.9209 12.9716 19.1046 12.8068 19.2486 12.5909C19.3963 12.3712 19.4929 12.108 19.5384 11.8011H21.8224C21.7846 12.4678 21.6027 13.0549 21.277 13.5625C20.955 14.0663 20.5099 14.4602 19.9418 14.7443C19.3736 15.0284 18.7012 15.1705 17.9247 15.1705ZM28.0142 6.27273V8.09091H22.7585V6.27273H28.0142ZM23.9517 4.18182H26.3722V12.3182C26.3722 12.5417 26.4063 12.7159 26.4744 12.8409C26.5426 12.9621 26.6373 13.0473 26.7585 13.0966C26.8835 13.1458 27.0275 13.1705 27.1903 13.1705C27.304 13.1705 27.4176 13.161 27.5312 13.142C27.6449 13.1193 27.732 13.1023 27.7926 13.0909L28.1733 14.892C28.0521 14.9299 27.8816 14.9735 27.6619 15.0227C27.4422 15.0758 27.1752 15.108 26.8608 15.1193C26.2775 15.142 25.7661 15.0644 25.3267 14.8864C24.8911 14.7083 24.5521 14.4318 24.3097 14.0568C24.0672 13.6818 23.9479 13.2083 23.9517 12.6364V4.18182ZM33.4403 15.1705C32.5578 15.1705 31.7945 14.983 31.1506 14.608C30.5104 14.2292 30.0161 13.7027 29.6676 13.0284C29.3191 12.3504 29.1449 11.5644 29.1449 10.6705C29.1449 9.76894 29.3191 8.98106 29.6676 8.30682C30.0161 7.62879 30.5104 7.10227 31.1506 6.72727C31.7945 6.34848 32.5578 6.15909 33.4403 6.15909C34.3229 6.15909 35.0843 6.34848 35.7244 6.72727C36.3684 7.10227 36.8646 7.62879 37.2131 8.30682C37.5616 8.98106 37.7358 9.76894 37.7358 10.6705C37.7358 11.5644 37.5616 12.3504 37.2131 13.0284C36.8646 13.7027 36.3684 14.2292 35.7244 14.608C35.0843 14.983 34.3229 15.1705 33.4403 15.1705ZM33.4517 13.2955C33.8532 13.2955 34.1884 13.1818 34.4574 12.9545C34.7263 12.7235 34.929 12.4091 35.0653 12.0114C35.2055 11.6136 35.2756 11.161 35.2756 10.6534C35.2756 10.1458 35.2055 9.69318 35.0653 9.29545C34.929 8.89773 34.7263 8.58333 34.4574 8.35227C34.1884 8.12121 33.8532 8.00568 33.4517 8.00568C33.0464 8.00568 32.7055 8.12121 32.429 8.35227C32.1563 8.58333 31.9498 8.89773 31.8097 9.29545C31.6733 9.69318 31.6051 10.1458 31.6051 10.6534C31.6051 11.161 31.6733 11.6136 31.8097 12.0114C31.9498 12.4091 32.1563 12.7235 32.429 12.9545C32.7055 13.1818 33.0464 13.2955 33.4517 13.2955ZM39.3551 15V3.36364H41.7756V7.73864H41.8494C41.9555 7.50379 42.1089 7.26515 42.3097 7.02273C42.5142 6.77652 42.7794 6.57197 43.1051 6.40909C43.4347 6.24242 43.8438 6.15909 44.3324 6.15909C44.9688 6.15909 45.5559 6.32576 46.0938 6.65909C46.6316 6.98864 47.0616 7.48674 47.3835 8.15341C47.7055 8.81629 47.8665 9.64773 47.8665 10.6477C47.8665 11.6212 47.7093 12.4432 47.3949 13.1136C47.0843 13.7803 46.66 14.286 46.1222 14.6307C45.5881 14.9716 44.9896 15.142 44.3267 15.142C43.857 15.142 43.4574 15.0644 43.1278 14.9091C42.8021 14.7538 42.535 14.5587 42.3267 14.3239C42.1184 14.0852 41.9593 13.8447 41.8494 13.6023H41.7415V15H39.3551ZM41.7244 10.6364C41.7244 11.1553 41.7964 11.608 41.9403 11.9943C42.0843 12.3807 42.2926 12.6818 42.5653 12.8977C42.8381 13.1098 43.1695 13.2159 43.5597 13.2159C43.9536 13.2159 44.2869 13.108 44.5597 12.892C44.8324 12.6723 45.0388 12.3693 45.179 11.983C45.3229 11.5928 45.3949 11.1439 45.3949 10.6364C45.3949 10.1326 45.3248 9.68939 45.1847 9.30682C45.0445 8.92424 44.8381 8.625 44.5653 8.40909C44.2926 8.19318 43.9574 8.08523 43.5597 8.08523C43.1657 8.08523 42.8324 8.18939 42.5597 8.39773C42.2907 8.60606 42.0843 8.90151 41.9403 9.28409C41.7964 9.66667 41.7244 10.1174 41.7244 10.6364ZM53.4588 15.1705C52.5611 15.1705 51.7884 14.9886 51.1406 14.625C50.4967 14.2576 50.0005 13.7386 49.652 13.0682C49.3035 12.3939 49.1293 11.5966 49.1293 10.6761C49.1293 9.77841 49.3035 8.99053 49.652 8.3125C50.0005 7.63447 50.491 7.10606 51.1236 6.72727C51.7599 6.34848 52.5062 6.15909 53.3622 6.15909C53.938 6.15909 54.474 6.25189 54.9702 6.4375C55.4702 6.61932 55.9058 6.89394 56.277 7.26136C56.652 7.62879 56.9437 8.09091 57.152 8.64773C57.3603 9.20076 57.4645 9.84848 57.4645 10.5909V11.2557H50.0952V9.75568H55.1861C55.1861 9.4072 55.1103 9.09848 54.9588 8.82955C54.8073 8.56061 54.5971 8.35038 54.3281 8.19886C54.063 8.04356 53.7543 7.96591 53.402 7.96591C53.0346 7.96591 52.7088 8.05114 52.4247 8.22159C52.1444 8.38826 51.9247 8.61364 51.7656 8.89773C51.6065 9.17803 51.5251 9.49053 51.5213 9.83523V11.2614C51.5213 11.6932 51.6009 12.0663 51.7599 12.3807C51.9228 12.6951 52.152 12.9375 52.4474 13.108C52.7429 13.2784 53.0933 13.3636 53.4986 13.3636C53.7675 13.3636 54.0137 13.3258 54.2372 13.25C54.4607 13.1742 54.652 13.0606 54.8111 12.9091C54.9702 12.7576 55.0914 12.572 55.1747 12.3523L57.4134 12.5C57.2997 13.0379 57.0668 13.5076 56.7145 13.9091C56.366 14.3068 55.9152 14.6174 55.3622 14.8409C54.813 15.0606 54.1785 15.1705 53.4588 15.1705ZM59.044 15V6.27273H61.3906V7.79545H61.4815C61.6406 7.25379 61.9077 6.8447 62.2827 6.56818C62.6577 6.28788 63.0895 6.14773 63.5781 6.14773C63.6993 6.14773 63.83 6.1553 63.9702 6.17045C64.1103 6.18561 64.2334 6.20644 64.3395 6.23295V8.38068C64.2259 8.34659 64.0687 8.31629 63.8679 8.28977C63.6671 8.26326 63.4834 8.25 63.3168 8.25C62.9607 8.25 62.6425 8.32765 62.3622 8.48295C62.0857 8.63447 61.866 8.84659 61.7031 9.11932C61.544 9.39205 61.4645 9.70644 61.4645 10.0625V15H59.044ZM74.3338 3.36364V15H71.8736V5.69886H71.8054L69.1406 7.36932V5.1875L72.0213 3.36364H74.3338ZM81.5653 15.1591C80.9669 15.1553 80.3892 15.0549 79.8324 14.858C79.2794 14.661 78.7831 14.3409 78.3438 13.8977C77.9044 13.4545 77.5559 12.8674 77.2983 12.1364C77.0445 11.4053 76.9176 10.5076 76.9176 9.44318C76.9214 8.46591 77.0331 7.5928 77.2528 6.82386C77.4763 6.05114 77.7945 5.39583 78.2074 4.85795C78.6241 4.32008 79.1222 3.91098 79.7017 3.63068C80.2813 3.34659 80.9309 3.20455 81.6506 3.20455C82.4271 3.20455 83.1127 3.35606 83.7074 3.65909C84.3021 3.95833 84.7794 4.36553 85.1392 4.88068C85.5028 5.39583 85.7225 5.97348 85.7983 6.61364H83.3722C83.2775 6.20833 83.0786 5.89015 82.7756 5.65909C82.4725 5.42803 82.0975 5.3125 81.6506 5.3125C80.893 5.3125 80.3172 5.64205 79.9233 6.30114C79.5331 6.96023 79.3343 7.85606 79.3267 8.98864H79.4062C79.5805 8.64394 79.8153 8.35038 80.1108 8.10795C80.41 7.86174 80.7491 7.67424 81.1278 7.54545C81.5104 7.41288 81.9138 7.34659 82.3381 7.34659C83.0275 7.34659 83.6411 7.50947 84.179 7.83523C84.7169 8.1572 85.1411 8.60038 85.4517 9.16477C85.7623 9.72917 85.9176 10.375 85.9176 11.1023C85.9176 11.8902 85.7339 12.5909 85.3665 13.2045C85.0028 13.8182 84.4934 14.2992 83.8381 14.6477C83.1866 14.9924 82.429 15.1629 81.5653 15.1591ZM81.554 13.2273C81.9328 13.2273 82.2718 13.1364 82.571 12.9545C82.8703 12.7727 83.1051 12.5265 83.2756 12.2159C83.446 11.9053 83.5312 11.5568 83.5312 11.1705C83.5312 10.7841 83.446 10.4375 83.2756 10.1307C83.1089 9.82386 82.8778 9.57955 82.5824 9.39773C82.2869 9.21591 81.9498 9.125 81.571 9.125C81.2869 9.125 81.0237 9.17803 80.7812 9.28409C80.5426 9.39015 80.3324 9.53788 80.1506 9.72727C79.9725 9.91667 79.8324 10.1364 79.7301 10.3864C79.6278 10.6326 79.5767 10.8958 79.5767 11.1761C79.5767 11.5511 79.6619 11.8939 79.8324 12.2045C80.0066 12.5152 80.2415 12.7633 80.5369 12.9489C80.8362 13.1345 81.1752 13.2273 81.554 13.2273ZM89.831 13.4091L89.7685 14.0341C89.7192 14.5341 89.6245 15.0322 89.4844 15.5284C89.348 16.0284 89.2041 16.4811 89.0526 16.8864C88.9048 17.2917 88.7855 17.6098 88.6946 17.8409H87.1264C87.1832 17.6174 87.2609 17.3049 87.3594 16.9034C87.4579 16.5057 87.5507 16.0587 87.6378 15.5625C87.7249 15.0663 87.7798 14.5606 87.8026 14.0455L87.831 13.4091H89.831ZM95.1776 15V13.2273L99.3196 9.39205C99.6719 9.05114 99.9673 8.74432 100.206 8.47159C100.448 8.19886 100.632 7.93182 100.757 7.67045C100.882 7.4053 100.945 7.11932 100.945 6.8125C100.945 6.47159 100.867 6.17803 100.712 5.93182C100.556 5.68182 100.344 5.49053 100.075 5.35795C99.8063 5.22159 99.5014 5.15341 99.1605 5.15341C98.8045 5.15341 98.4938 5.22538 98.2287 5.36932C97.9635 5.51326 97.759 5.7197 97.6151 5.98864C97.4711 6.25758 97.3991 6.57765 97.3991 6.94886H95.0639C95.0639 6.1875 95.2363 5.52652 95.581 4.96591C95.9257 4.4053 96.4086 3.97159 97.0298 3.66477C97.651 3.35795 98.367 3.20455 99.1776 3.20455C100.011 3.20455 100.736 3.35227 101.354 3.64773C101.975 3.93939 102.458 4.3447 102.803 4.86364C103.147 5.38258 103.32 5.97727 103.32 6.64773C103.32 7.08712 103.232 7.52083 103.058 7.94886C102.888 8.37689 102.583 8.85227 102.143 9.375C101.704 9.89394 101.085 10.517 100.286 11.2443L98.5866 12.9091V12.9886H103.473V15H95.1776ZM109.818 15.2557C108.841 15.2519 108 15.0114 107.295 14.5341C106.595 14.0568 106.055 13.3655 105.676 12.4602C105.301 11.5549 105.116 10.4659 105.119 9.19318C105.119 7.92424 105.307 6.8428 105.682 5.94886C106.061 5.05492 106.6 4.375 107.301 3.90909C108.006 3.43939 108.845 3.20455 109.818 3.20455C110.792 3.20455 111.629 3.43939 112.33 3.90909C113.034 4.37879 113.576 5.06061 113.955 5.95455C114.333 6.8447 114.521 7.92424 114.517 9.19318C114.517 10.4697 114.328 11.5606 113.949 12.4659C113.574 13.3712 113.036 14.0625 112.335 14.5398C111.634 15.017 110.795 15.2557 109.818 15.2557ZM109.818 13.2159C110.485 13.2159 111.017 12.8807 111.415 12.2102C111.813 11.5398 112.009 10.5341 112.006 9.19318C112.006 8.31061 111.915 7.57576 111.733 6.98864C111.555 6.40151 111.301 5.96023 110.972 5.66477C110.646 5.36932 110.261 5.22159 109.818 5.22159C109.155 5.22159 108.625 5.55303 108.227 6.21591C107.83 6.87879 107.629 7.87121 107.625 9.19318C107.625 10.0871 107.714 10.8333 107.892 11.4318C108.074 12.0265 108.33 12.4735 108.659 12.7727C108.989 13.0682 109.375 13.2159 109.818 13.2159ZM116.271 15V13.2273L120.413 9.39205C120.766 9.05114 121.061 8.74432 121.3 8.47159C121.542 8.19886 121.726 7.93182 121.851 7.67045C121.976 7.4053 122.038 7.11932 122.038 6.8125C122.038 6.47159 121.961 6.17803 121.805 5.93182C121.65 5.68182 121.438 5.49053 121.169 5.35795C120.9 5.22159 120.595 5.15341 120.254 5.15341C119.898 5.15341 119.588 5.22538 119.322 5.36932C119.057 5.51326 118.853 5.7197 118.709 5.98864C118.565 6.25758 118.493 6.57765 118.493 6.94886H116.158C116.158 6.1875 116.33 5.52652 116.675 4.96591C117.019 4.4053 117.502 3.97159 118.124 3.66477C118.745 3.35795 119.461 3.20455 120.271 3.20455C121.105 3.20455 121.83 3.35227 122.447 3.64773C123.069 3.93939 123.552 4.3447 123.896 4.86364C124.241 5.38258 124.413 5.97727 124.413 6.64773C124.413 7.08712 124.326 7.52083 124.152 7.94886C123.982 8.37689 123.677 8.85227 123.237 9.375C122.798 9.89394 122.179 10.517 121.379 11.2443L119.68 12.9091V12.9886H124.567V15H116.271ZM126.349 15V13.2273L130.491 9.39205C130.844 9.05114 131.139 8.74432 131.378 8.47159C131.62 8.19886 131.804 7.93182 131.929 7.67045C132.054 7.4053 132.116 7.11932 132.116 6.8125C132.116 6.47159 132.039 6.17803 131.884 5.93182C131.728 5.68182 131.516 5.49053 131.247 5.35795C130.978 5.22159 130.673 5.15341 130.332 5.15341C129.976 5.15341 129.666 5.22538 129.401 5.36932C129.135 5.51326 128.931 5.7197 128.787 5.98864C128.643 6.25758 128.571 6.57765 128.571 6.94886H126.236C126.236 6.1875 126.408 5.52652 126.753 4.96591C127.098 4.4053 127.58 3.97159 128.202 3.66477C128.823 3.35795 129.539 3.20455 130.349 3.20455C131.183 3.20455 131.908 3.35227 132.526 3.64773C133.147 3.93939 133.63 4.3447 133.974 4.86364C134.319 5.38258 134.491 5.97727 134.491 6.64773C134.491 7.08712 134.404 7.52083 134.23 7.94886C134.06 8.37689 133.755 8.85227 133.315 9.375C132.876 9.89394 132.257 10.517 131.457 11.2443L129.759 12.9091V12.9886H134.645V15H126.349Z" fill="#2A3647"/>
<path d="M8.41477 30.8182H9.64773V37.5597C9.64773 38.2557 9.48367 38.8771 9.15554 39.424C8.83073 39.9676 8.37169 40.3968 7.77841 40.7116C7.18513 41.0232 6.48911 41.179 5.69034 41.179C4.89157 41.179 4.19555 41.0232 3.60227 40.7116C3.009 40.3968 2.5483 39.9676 2.22017 39.424C1.89536 38.8771 1.73295 38.2557 1.73295 37.5597V30.8182H2.96591V37.4602C2.96591 37.9574 3.07528 38.3999 3.29403 38.7876C3.51278 39.1721 3.82434 39.4754 4.22869 39.6974C4.63636 39.9162 5.12358 40.0256 5.69034 40.0256C6.2571 40.0256 6.74432 39.9162 7.15199 39.6974C7.55966 39.4754 7.87121 39.1721 8.08665 38.7876C8.3054 38.3999 8.41477 37.9574 8.41477 37.4602V30.8182ZM11.9508 43.8636V33.3636H13.0843V34.5767H13.2235C13.3097 34.4441 13.429 34.2751 13.5815 34.0696C13.7373 33.8608 13.9593 33.6752 14.2477 33.5128C14.5394 33.3471 14.9338 33.2642 15.4309 33.2642C16.0739 33.2642 16.6407 33.425 17.1312 33.7464C17.6217 34.0679 18.0046 34.5237 18.2797 35.1136C18.5547 35.7036 18.6923 36.3996 18.6923 37.2017C18.6923 38.0104 18.5547 38.7114 18.2797 39.3047C18.0046 39.8946 17.6234 40.352 17.1362 40.6768C16.649 40.9983 16.0872 41.1591 15.4508 41.1591C14.9603 41.1591 14.5675 41.0779 14.2725 40.9155C13.9776 40.7498 13.7505 40.5625 13.5914 40.3537C13.4324 40.1416 13.3097 39.9659 13.2235 39.8267H13.1241V43.8636H11.9508ZM13.1042 37.1818C13.1042 37.7585 13.1887 38.2673 13.3578 38.7081C13.5268 39.1456 13.7737 39.4886 14.0985 39.7372C14.4234 39.9825 14.8211 40.1051 15.2917 40.1051C15.7823 40.1051 16.1916 39.9759 16.5197 39.7173C16.8511 39.4555 17.0997 39.1042 17.2654 38.6634C17.4345 38.2192 17.519 37.7254 17.519 37.1818C17.519 36.6449 17.4361 36.161 17.2704 35.7301C17.108 35.2959 16.8611 34.9529 16.5297 34.701C16.2015 34.4458 15.7889 34.3182 15.2917 34.3182C14.8145 34.3182 14.4134 34.4392 14.0886 34.6811C13.7638 34.9197 13.5185 35.2545 13.3528 35.6854C13.1871 36.1129 13.1042 36.6117 13.1042 37.1818ZM23.5843 41.1591C22.8684 41.1591 22.252 40.9901 21.7349 40.652C21.2179 40.3139 20.8201 39.8482 20.5417 39.255C20.2633 38.6617 20.1241 37.9839 20.1241 37.2216C20.1241 36.446 20.2666 35.7616 20.5517 35.1683C20.84 34.5717 21.2411 34.1061 21.7548 33.7713C22.2718 33.4332 22.8751 33.2642 23.5645 33.2642C24.1014 33.2642 24.5853 33.3636 25.0162 33.5625C25.447 33.7614 25.8 34.0398 26.0751 34.3977C26.3502 34.7557 26.5209 35.1733 26.5872 35.6506H25.4139C25.3244 35.3026 25.1255 34.9943 24.8173 34.7259C24.5124 34.4541 24.1014 34.3182 23.5843 34.3182C23.127 34.3182 22.7259 34.4375 22.3812 34.6761C22.0398 34.9115 21.773 35.2446 21.5808 35.6754C21.3919 36.103 21.2974 36.6051 21.2974 37.1818C21.2974 37.7718 21.3902 38.2855 21.5758 38.723C21.7647 39.1605 22.0299 39.5002 22.3713 39.7422C22.716 39.9841 23.1203 40.1051 23.5843 40.1051C23.8893 40.1051 24.166 40.0521 24.4146 39.946C24.6632 39.84 24.8736 39.6875 25.046 39.4886C25.2183 39.2898 25.341 39.0511 25.4139 38.7727H26.5872C26.5209 39.2235 26.3568 39.6295 26.095 39.9908C25.8365 40.3487 25.4934 40.6338 25.0659 40.8459C24.6416 41.0547 24.1478 41.1591 23.5843 41.1591ZM31.4047 41.1591C30.7153 41.1591 30.1104 40.995 29.59 40.6669C29.073 40.3388 28.6686 39.8797 28.377 39.2898C28.0886 38.6998 27.9444 38.0104 27.9444 37.2216C27.9444 36.4261 28.0886 35.7318 28.377 35.1385C28.6686 34.5452 29.073 34.0845 29.59 33.7564C30.1104 33.4283 30.7153 33.2642 31.4047 33.2642C32.094 33.2642 32.6973 33.4283 33.2143 33.7564C33.7347 34.0845 34.139 34.5452 34.4274 35.1385C34.719 35.7318 34.8649 36.4261 34.8649 37.2216C34.8649 38.0104 34.719 38.6998 34.4274 39.2898C34.139 39.8797 33.7347 40.3388 33.2143 40.6669C32.6973 40.995 32.094 41.1591 31.4047 41.1591ZM31.4047 40.1051C31.9283 40.1051 32.3592 39.9709 32.6973 39.7024C33.0353 39.4339 33.2856 39.081 33.448 38.6435C33.6104 38.206 33.6916 37.732 33.6916 37.2216C33.6916 36.7112 33.6104 36.2356 33.448 35.7947C33.2856 35.3539 33.0353 34.9976 32.6973 34.7259C32.3592 34.4541 31.9283 34.3182 31.4047 34.3182C30.881 34.3182 30.4501 34.4541 30.112 34.7259C29.774 34.9976 29.5237 35.3539 29.3613 35.7947C29.1989 36.2356 29.1177 36.7112 29.1177 37.2216C29.1177 37.732 29.1989 38.206 29.3613 38.6435C29.5237 39.081 29.774 39.4339 30.112 39.7024C30.4501 39.9709 30.881 40.1051 31.4047 40.1051ZM36.6559 41V33.3636H37.7894V34.5568H37.8888C38.0479 34.1491 38.3048 33.8326 38.6594 33.6072C39.0141 33.3786 39.44 33.2642 39.9371 33.2642C40.4409 33.2642 40.8602 33.3786 41.195 33.6072C41.533 33.8326 41.7965 34.1491 41.9854 34.5568H42.065C42.2605 34.1624 42.5539 33.8492 42.945 33.6172C43.3361 33.3819 43.805 33.2642 44.3519 33.2642C45.0347 33.2642 45.5932 33.478 46.0273 33.9055C46.4615 34.3298 46.6786 34.991 46.6786 35.8892V41H45.5053V35.8892C45.5053 35.3258 45.3512 34.9231 45.043 34.6811C44.7347 34.4392 44.3718 34.3182 43.9542 34.3182C43.4173 34.3182 43.0013 34.4806 42.7063 34.8054C42.4113 35.1269 42.2638 35.5346 42.2638 36.0284V41H41.0707V35.7699C41.0707 35.3357 40.9298 34.986 40.6481 34.7209C40.3664 34.4524 40.0034 34.3182 39.5593 34.3182C39.2544 34.3182 38.9693 34.3994 38.7042 34.5618C38.4424 34.7242 38.2302 34.9496 38.0678 35.2379C37.9087 35.523 37.8292 35.8527 37.8292 36.2273V41H36.6559ZM48.8239 41V33.3636H49.9972V41H48.8239ZM49.4205 32.0909C49.1918 32.0909 48.9946 32.013 48.8288 31.8572C48.6664 31.7015 48.5852 31.5142 48.5852 31.2955C48.5852 31.0767 48.6664 30.8894 48.8288 30.7337C48.9946 30.5779 49.1918 30.5 49.4205 30.5C49.6491 30.5 49.8447 30.5779 50.0071 30.7337C50.1728 30.8894 50.2557 31.0767 50.2557 31.2955C50.2557 31.5142 50.1728 31.7015 50.0071 31.8572C49.8447 32.013 49.6491 32.0909 49.4205 32.0909ZM53.3194 36.4062V41H52.1461V33.3636H53.2797V34.5568H53.3791C53.5581 34.169 53.8298 33.8575 54.1944 33.6222C54.559 33.3835 55.0297 33.2642 55.6064 33.2642C56.1234 33.2642 56.5758 33.3703 56.9636 33.5824C57.3514 33.7912 57.653 34.1094 57.8684 34.5369C58.0839 34.9612 58.1916 35.4981 58.1916 36.1477V41H57.0183V36.2273C57.0183 35.6274 56.8625 35.16 56.551 34.8253C56.2394 34.4872 55.8118 34.3182 55.2683 34.3182C54.8938 34.3182 54.559 34.3994 54.264 34.5618C53.9724 34.7242 53.742 34.9612 53.573 35.2727C53.4039 35.5843 53.3194 35.9621 53.3194 36.4062ZM63.418 44.0227C62.8512 44.0227 62.364 43.9498 61.9563 43.804C61.5487 43.6615 61.2089 43.4725 60.9371 43.2372C60.6687 43.0052 60.4549 42.7566 60.2958 42.4915L61.2305 41.8352C61.3365 41.9744 61.4708 42.1335 61.6332 42.3125C61.7956 42.4948 62.0176 42.6522 62.2994 42.7848C62.5844 42.9207 62.9573 42.9886 63.418 42.9886C64.0344 42.9886 64.5432 42.8395 64.9442 42.5412C65.3453 42.2429 65.5458 41.7756 65.5458 41.1392V39.5881H65.4464C65.3602 39.7273 65.2376 39.8996 65.0785 40.1051C64.9227 40.3073 64.6973 40.4879 64.4023 40.647C64.1107 40.8028 63.7163 40.8807 63.2191 40.8807C62.6026 40.8807 62.0491 40.7348 61.5586 40.4432C61.0714 40.1515 60.6853 39.7273 60.4002 39.1705C60.1185 38.6136 59.9776 37.9375 59.9776 37.142C59.9776 36.3598 60.1152 35.6787 60.3903 35.0987C60.6654 34.5154 61.0482 34.0646 61.5387 33.7464C62.0292 33.425 62.596 33.2642 63.239 33.2642C63.7362 33.2642 64.1306 33.3471 64.4222 33.5128C64.7172 33.6752 64.9426 33.8608 65.0984 34.0696C65.2575 34.2751 65.3801 34.4441 65.4663 34.5767H65.5856V33.3636H66.7191V41.2188C66.7191 41.875 66.57 42.4086 66.2717 42.8196C65.9767 43.2339 65.579 43.5372 65.0785 43.7294C64.5813 43.925 64.0278 44.0227 63.418 44.0227ZM63.3782 39.8267C63.8488 39.8267 64.2466 39.719 64.5714 39.5036C64.8962 39.2881 65.1431 38.9782 65.3121 38.5739C65.4812 38.1695 65.5657 37.6856 65.5657 37.1222C65.5657 36.572 65.4828 36.0864 65.3171 35.6655C65.1514 35.2446 64.9061 34.9148 64.5813 34.6761C64.2565 34.4375 63.8555 34.3182 63.3782 34.3182C62.881 34.3182 62.4667 34.4441 62.1353 34.696C61.8072 34.9479 61.5603 35.286 61.3945 35.7102C61.2321 36.1345 61.1509 36.6051 61.1509 37.1222C61.1509 37.6525 61.2338 38.1214 61.3995 38.5291C61.5685 38.9335 61.8171 39.2517 62.1452 39.4837C62.4767 39.7124 62.8877 39.8267 63.3782 39.8267ZM76.1055 41H72.9634V30.8182H76.2447C77.2324 30.8182 78.0775 31.022 78.7802 31.4297C79.4828 31.834 80.0214 32.4157 80.396 33.1747C80.7705 33.9304 80.9577 34.8352 80.9577 35.8892C80.9577 36.9498 80.7688 37.8629 80.391 38.6286C80.0131 39.3909 79.4629 39.9775 78.7404 40.3885C78.0179 40.7962 77.1396 41 76.1055 41ZM74.1964 39.9062H76.0259C76.8678 39.9062 77.5655 39.7438 78.119 39.419C78.6725 39.0942 79.0851 38.6319 79.3569 38.032C79.6287 37.4321 79.7646 36.7178 79.7646 35.8892C79.7646 35.0672 79.6303 34.3596 79.3619 33.7663C79.0934 33.1697 78.6924 32.7124 78.1587 32.3942C77.6251 32.0727 76.9606 31.9119 76.1651 31.9119H74.1964V39.9062ZM86.0685 41.1591C85.3327 41.1591 84.698 40.9967 84.1644 40.6719C83.6341 40.3438 83.2248 39.8864 82.9364 39.2997C82.6514 38.7098 82.5089 38.0237 82.5089 37.2415C82.5089 36.4593 82.6514 35.7699 82.9364 35.1733C83.2248 34.5734 83.6258 34.1061 84.1396 33.7713C84.6566 33.4332 85.2598 33.2642 85.9492 33.2642C86.3469 33.2642 86.7397 33.3305 87.1275 33.4631C87.5153 33.5956 87.8683 33.8111 88.1864 34.1094C88.5046 34.4044 88.7582 34.7955 88.9471 35.2827C89.136 35.7699 89.2305 36.3698 89.2305 37.0824V37.5795H83.3441V36.5653H88.0373C88.0373 36.1345 87.9511 35.75 87.7788 35.4119C87.6097 35.0739 87.3678 34.8071 87.0529 34.6115C86.7414 34.416 86.3735 34.3182 85.9492 34.3182C85.4819 34.3182 85.0775 34.4342 84.7362 34.6662C84.3981 34.8949 84.1379 35.1932 83.9556 35.5611C83.7733 35.929 83.6822 36.3234 83.6822 36.7443V37.4205C83.6822 37.9972 83.7816 38.486 83.9805 38.8871C84.1826 39.2848 84.4627 39.5881 84.8207 39.7969C85.1786 40.0024 85.5946 40.1051 86.0685 40.1051C86.3768 40.1051 86.6552 40.062 86.9038 39.9759C87.1557 39.8864 87.3728 39.7538 87.555 39.5781C87.7373 39.3991 87.8782 39.1771 87.9776 38.9119L89.1112 39.2301C88.9918 39.6146 88.7913 39.9527 88.5096 40.2443C88.2279 40.5327 87.8799 40.758 87.4656 40.9205C87.0513 41.0795 86.5856 41.1591 86.0685 41.1591ZM93.2624 41.179C92.7785 41.179 92.3394 41.0878 91.945 40.9055C91.5505 40.7199 91.2373 40.4531 91.0053 40.1051C90.7733 39.7538 90.6573 39.3295 90.6573 38.8324C90.6573 38.3949 90.7435 38.0402 90.9158 37.7685C91.0882 37.4934 91.3185 37.2779 91.6069 37.1222C91.8952 36.9664 92.2134 36.8504 92.5614 36.7741C92.9128 36.6946 93.2657 36.6316 93.6204 36.5852C94.0844 36.5256 94.4606 36.4808 94.7489 36.451C95.0406 36.4179 95.2527 36.3632 95.3853 36.2869C95.5212 36.2107 95.5891 36.0781 95.5891 35.8892V35.8494C95.5891 35.3589 95.4549 34.9777 95.1864 34.706C94.9213 34.4342 94.5186 34.2983 93.9783 34.2983C93.4182 34.2983 92.979 34.4209 92.6609 34.6662C92.3427 34.9115 92.119 35.1733 91.9897 35.4517L90.8761 35.054C91.0749 34.59 91.3401 34.2287 91.6715 33.9702C92.0063 33.7083 92.3709 33.526 92.7653 33.4233C93.163 33.3172 93.5541 33.2642 93.9386 33.2642C94.1838 33.2642 94.4656 33.294 94.7837 33.3537C95.1052 33.41 95.4151 33.5277 95.7134 33.7067C96.015 33.8857 96.2653 34.1558 96.4641 34.517C96.663 34.8783 96.7624 35.3622 96.7624 35.9688V41H95.5891V39.9659H95.5295C95.4499 40.1316 95.3174 40.3089 95.1317 40.4979C94.9461 40.6868 94.6992 40.8475 94.391 40.9801C94.0827 41.1127 93.7066 41.179 93.2624 41.179ZM93.4414 40.125C93.9054 40.125 94.2965 40.0339 94.6147 39.8516C94.9362 39.6693 95.1781 39.4339 95.3406 39.1456C95.5063 38.8572 95.5891 38.554 95.5891 38.2358V37.1619C95.5394 37.2216 95.43 37.2763 95.261 37.326C95.0953 37.3724 94.9031 37.4138 94.6843 37.4503C94.4689 37.4834 94.2584 37.5133 94.0529 37.5398C93.8507 37.563 93.6867 37.5829 93.5607 37.5994C93.2558 37.6392 92.9708 37.7038 92.7056 37.7933C92.4438 37.8795 92.2317 38.0104 92.0692 38.1861C91.9102 38.3584 91.8306 38.5937 91.8306 38.892C91.8306 39.2997 91.9814 39.608 92.283 39.8168C92.5879 40.0223 92.9741 40.125 93.4414 40.125ZM101.787 41.1591C101.151 41.1591 100.589 40.9983 100.102 40.6768C99.6149 40.352 99.2337 39.8946 98.9586 39.3047C98.6835 38.7114 98.546 38.0104 98.546 37.2017C98.546 36.3996 98.6835 35.7036 98.9586 35.1136C99.2337 34.5237 99.6165 34.0679 100.107 33.7464C100.598 33.425 101.164 33.2642 101.807 33.2642C102.305 33.2642 102.697 33.3471 102.986 33.5128C103.277 33.6752 103.499 33.8608 103.652 34.0696C103.808 34.2751 103.929 34.4441 104.015 34.5767H104.114V30.8182H105.287V41H104.154V39.8267H104.015C103.929 39.9659 103.806 40.1416 103.647 40.3537C103.488 40.5625 103.261 40.7498 102.966 40.9155C102.671 41.0779 102.278 41.1591 101.787 41.1591ZM101.947 40.1051C102.417 40.1051 102.815 39.9825 103.14 39.7372C103.465 39.4886 103.711 39.1456 103.881 38.7081C104.05 38.2673 104.134 37.7585 104.134 37.1818C104.134 36.6117 104.051 36.1129 103.885 35.6854C103.72 35.2545 103.474 34.9197 103.15 34.6811C102.825 34.4392 102.424 34.3182 101.947 34.3182C101.449 34.3182 101.035 34.4458 100.704 34.701C100.376 34.9529 100.129 35.2959 99.9629 35.7301C99.8005 36.161 99.7193 36.6449 99.7193 37.1818C99.7193 37.7254 99.8021 38.2192 99.9679 38.6634C100.137 39.1042 100.385 39.4555 100.714 39.7173C101.045 39.9759 101.456 40.1051 101.947 40.1051ZM108.773 30.8182V41H107.599V30.8182H108.773ZM110.922 41V33.3636H112.095V41H110.922ZM111.518 32.0909C111.289 32.0909 111.092 32.013 110.926 31.8572C110.764 31.7015 110.683 31.5142 110.683 31.2955C110.683 31.0767 110.764 30.8894 110.926 30.7337C111.092 30.5779 111.289 30.5 111.518 30.5C111.747 30.5 111.942 30.5779 112.105 30.7337C112.27 30.8894 112.353 31.0767 112.353 31.2955C112.353 31.5142 112.27 31.7015 112.105 31.8572C111.942 32.013 111.747 32.0909 111.518 32.0909ZM115.417 36.4062V41H114.244V33.3636H115.377V34.5568H115.477C115.656 34.169 115.927 33.8575 116.292 33.6222C116.657 33.3835 117.127 33.2642 117.704 33.2642C118.221 33.2642 118.673 33.3703 119.061 33.5824C119.449 33.7912 119.751 34.1094 119.966 34.5369C120.182 34.9612 120.289 35.4981 120.289 36.1477V41H119.116V36.2273C119.116 35.6274 118.96 35.16 118.649 34.8253C118.337 34.4872 117.91 34.3182 117.366 34.3182C116.991 34.3182 116.657 34.3994 116.362 34.5618C116.07 34.7242 115.84 34.9612 115.671 35.2727C115.502 35.5843 115.417 35.9621 115.417 36.4062ZM125.635 41.1591C124.899 41.1591 124.264 40.9967 123.731 40.6719C123.201 40.3438 122.791 39.8864 122.503 39.2997C122.218 38.7098 122.075 38.0237 122.075 37.2415C122.075 36.4593 122.218 35.7699 122.503 35.1733C122.791 34.5734 123.192 34.1061 123.706 33.7713C124.223 33.4332 124.826 33.2642 125.516 33.2642C125.913 33.2642 126.306 33.3305 126.694 33.4631C127.082 33.5956 127.435 33.8111 127.753 34.1094C128.071 34.4044 128.325 34.7955 128.513 35.2827C128.702 35.7699 128.797 36.3698 128.797 37.0824V37.5795H122.911V36.5653H127.604C127.604 36.1345 127.518 35.75 127.345 35.4119C127.176 35.0739 126.934 34.8071 126.619 34.6115C126.308 34.416 125.94 34.3182 125.516 34.3182C125.048 34.3182 124.644 34.4342 124.303 34.6662C123.964 34.8949 123.704 35.1932 123.522 35.5611C123.34 35.929 123.249 36.3234 123.249 36.7443V37.4205C123.249 37.9972 123.348 38.486 123.547 38.8871C123.749 39.2848 124.029 39.5881 124.387 39.7969C124.745 40.0024 125.161 40.1051 125.635 40.1051C125.943 40.1051 126.222 40.062 126.47 39.9759C126.722 39.8864 126.939 39.7538 127.121 39.5781C127.304 39.3991 127.445 39.1771 127.544 38.9119L128.678 39.2301C128.558 39.6146 128.358 39.9527 128.076 40.2443C127.794 40.5327 127.446 40.758 127.032 40.9205C126.618 41.0795 126.152 41.1591 125.635 41.1591Z" fill="#2A3647"/>
</svg>
