<svg width="51" height="74" viewBox="0 0 51 74" fill="none" xmlns="http://www.w3.org/2000/svg">
<path d="M31.1497 11.3182V45.5H24.9576V17.3434H24.7573L16.7626 22.4506V16.7759L25.258 11.3182H31.1497Z" fill="black"/>
<path d="M10.4148 60.3182H11.6477V67.0597C11.6477 67.7557 11.4837 68.3771 11.1555 68.924C10.8307 69.4676 10.3717 69.8968 9.77841 70.2116C9.18513 70.5232 8.48911 70.679 7.69034 70.679C6.89157 70.679 6.19555 70.5232 5.60227 70.2116C5.009 69.8968 4.5483 69.4676 4.22017 68.924C3.89536 68.3771 3.73295 67.7557 3.73295 67.0597V60.3182H4.96591V66.9602C4.96591 67.4574 5.07528 67.8999 5.29403 68.2876C5.51278 68.6721 5.82434 68.9754 6.22869 69.1974C6.63636 69.4162 7.12358 69.5256 7.69034 69.5256C8.2571 69.5256 8.74432 69.4162 9.15199 69.1974C9.55966 68.9754 9.87121 68.6721 10.0866 68.2876C10.3054 67.8999 10.4148 67.4574 10.4148 66.9602V60.3182ZM13.9508 70.5V62.8636H15.0843V64.017H15.1639C15.3031 63.6392 15.555 63.3326 15.9196 63.0973C16.2842 62.862 16.6951 62.7443 17.1525 62.7443C17.2387 62.7443 17.3464 62.746 17.4757 62.7493C17.6049 62.7526 17.7027 62.7576 17.769 62.7642V63.9574C17.7292 63.9474 17.6381 63.9325 17.4956 63.9126C17.3564 63.8894 17.2089 63.8778 17.0531 63.8778C16.6819 63.8778 16.3504 63.9557 16.0588 64.1115C15.7704 64.264 15.5417 64.4761 15.3727 64.7479C15.207 65.0163 15.1241 65.3229 15.1241 65.6676V70.5H13.9508ZM22.0098 73.5227C21.443 73.5227 20.9558 73.4498 20.5481 73.304C20.1404 73.1615 19.8007 72.9725 19.5289 72.7372C19.2605 72.5052 19.0467 72.2566 18.8876 71.9915L19.8223 71.3352C19.9283 71.4744 20.0626 71.6335 20.225 71.8125C20.3874 71.9948 20.6094 72.1522 20.8912 72.2848C21.1762 72.4207 21.5491 72.4886 22.0098 72.4886C22.6262 72.4886 23.135 72.3395 23.536 72.0412C23.9371 71.7429 24.1376 71.2756 24.1376 70.6392V69.0881H24.0382C23.952 69.2273 23.8294 69.3996 23.6703 69.6051C23.5145 69.8073 23.2891 69.9879 22.9941 70.147C22.7025 70.3028 22.3081 70.3807 21.8109 70.3807C21.1944 70.3807 20.6409 70.2348 20.1504 69.9432C19.6632 69.6515 19.277 69.2273 18.992 68.6705C18.7103 68.1136 18.5694 67.4375 18.5694 66.642C18.5694 65.8598 18.707 65.1787 18.9821 64.5987C19.2572 64.0154 19.64 63.5646 20.1305 63.2464C20.621 62.925 21.1878 62.7642 21.8308 62.7642C22.3279 62.7642 22.7224 62.8471 23.014 63.0128C23.309 63.1752 23.5344 63.3608 23.6902 63.5696C23.8493 63.7751 23.9719 63.9441 24.0581 64.0767H24.1774V62.8636H25.3109V70.7188C25.3109 71.375 25.1618 71.9086 24.8635 72.3196C24.5685 72.7339 24.1708 73.0372 23.6703 73.2294C23.1731 73.425 22.6196 73.5227 22.0098 73.5227ZM21.97 69.3267C22.4406 69.3267 22.8384 69.219 23.1632 69.0036C23.488 68.7881 23.7349 68.4782 23.9039 68.0739C24.073 67.6695 24.1575 67.1856 24.1575 66.6222C24.1575 66.072 24.0746 65.5864 23.9089 65.1655C23.7432 64.7446 23.4979 64.4148 23.1731 64.1761C22.8483 63.9375 22.4473 63.8182 21.97 63.8182C21.4728 63.8182 21.0585 63.9441 20.7271 64.196C20.399 64.4479 20.152 64.786 19.9863 65.2102C19.8239 65.6345 19.7427 66.1051 19.7427 66.6222C19.7427 67.1525 19.8256 67.6214 19.9913 68.0291C20.1603 68.4335 20.4089 68.7517 20.737 68.9837C21.0685 69.2124 21.4795 69.3267 21.97 69.3267ZM30.6603 70.6591C29.9245 70.6591 29.2898 70.4967 28.7562 70.1719C28.2259 69.8438 27.8166 69.3864 27.5282 68.7997C27.2432 68.2098 27.1007 67.5237 27.1007 66.7415C27.1007 65.9593 27.2432 65.2699 27.5282 64.6733C27.8166 64.0734 28.2176 63.6061 28.7314 63.2713C29.2484 62.9332 29.8516 62.7642 30.541 62.7642C30.9387 62.7642 31.3315 62.8305 31.7193 62.9631C32.1071 63.0956 32.4601 63.3111 32.7782 63.6094C33.0964 63.9044 33.35 64.2955 33.5389 64.7827C33.7278 65.2699 33.8223 65.8698 33.8223 66.5824V67.0795H27.9359V66.0653H32.6291C32.6291 65.6345 32.5429 65.25 32.3706 64.9119C32.2015 64.5739 31.9596 64.3071 31.6447 64.1115C31.3332 63.916 30.9653 63.8182 30.541 63.8182C30.0737 63.8182 29.6693 63.9342 29.3279 64.1662C28.9899 64.3949 28.7297 64.6932 28.5474 65.0611C28.3651 65.429 28.274 65.8234 28.274 66.2443V66.9205C28.274 67.4972 28.3734 67.986 28.5723 68.3871C28.7744 68.7848 29.0545 69.0881 29.4125 69.2969C29.7704 69.5024 30.1864 69.6051 30.6603 69.6051C30.9686 69.6051 31.247 69.562 31.4956 69.4759C31.7475 69.3864 31.9645 69.2538 32.1468 69.0781C32.3291 68.8991 32.47 68.6771 32.5694 68.4119L33.7029 68.7301C33.5836 69.1146 33.3831 69.4527 33.1014 69.7443C32.8197 70.0327 32.4717 70.258 32.0574 70.4205C31.6431 70.5795 31.1774 70.6591 30.6603 70.6591ZM36.7804 65.9062V70.5H35.6071V62.8636H36.7406V64.0568H36.84C37.019 63.669 37.2908 63.3575 37.6554 63.1222C38.0199 62.8835 38.4906 62.7642 39.0673 62.7642C39.5843 62.7642 40.0368 62.8703 40.4245 63.0824C40.8123 63.2912 41.1139 63.6094 41.3294 64.0369C41.5448 64.4612 41.6525 64.9981 41.6525 65.6477V70.5H40.4792V65.7273C40.4792 65.1274 40.3234 64.66 40.0119 64.3253C39.7003 63.9872 39.2728 63.8182 38.7292 63.8182C38.3547 63.8182 38.0199 63.8994 37.725 64.0618C37.4333 64.2242 37.2029 64.4612 37.0339 64.7727C36.8649 65.0843 36.7804 65.4621 36.7804 65.9062ZM47.1175 62.8636V63.858H43.1602V62.8636H47.1175ZM44.3136 61.0341H45.4869V68.3125C45.4869 68.6439 45.5349 68.8925 45.631 69.0582C45.7305 69.2206 45.8564 69.33 46.0089 69.3864C46.1647 69.4394 46.3287 69.4659 46.5011 69.4659C46.6303 69.4659 46.7364 69.4593 46.8192 69.446C46.9021 69.4295 46.9684 69.4162 47.0181 69.4062L47.2567 70.4602C47.1772 70.4901 47.0662 70.5199 46.9237 70.5497C46.7811 70.5829 46.6005 70.5994 46.3817 70.5994C46.0503 70.5994 45.7255 70.5282 45.4073 70.3857C45.0924 70.2431 44.8306 70.026 44.6218 69.7344C44.4163 69.4427 44.3136 69.0748 44.3136 68.6307V61.0341Z" fill="#2A3647"/>
</svg>
