<svg width="62" height="90" viewBox="0 0 62 90" fill="none" xmlns="http://www.w3.org/2000/svg">
<path d="M19.4419 45V40.527L31.3088 28.8938C32.4437 27.7478 33.3895 26.7296 34.1461 25.8395C34.9028 24.9493 35.4702 24.087 35.8485 23.2525C36.2269 22.418 36.416 21.5278 36.416 20.582C36.416 19.5027 36.1712 18.5792 35.6816 17.8114C35.1921 17.0326 34.5189 16.4317 33.6621 16.0089C32.8053 15.5861 31.8317 15.3746 30.7413 15.3746C29.6175 15.3746 28.6328 15.6083 27.7871 16.0756C26.9415 16.5318 26.285 17.1828 25.8176 18.0284C25.3614 18.8741 25.1333 19.881 25.1333 21.0494H19.2417C19.2417 18.8796 19.7368 16.9936 20.7271 15.3913C21.7174 13.7891 23.0804 12.5484 24.8162 11.6694C26.5632 10.7904 28.566 10.3509 30.8248 10.3509C33.1169 10.3509 35.1309 10.7792 36.8667 11.636C38.6025 12.4928 39.9488 13.6667 40.9057 15.1577C41.8738 16.6487 42.3578 18.3511 42.3578 20.2649C42.3578 21.5445 42.113 22.8018 41.6234 24.0369C41.1338 25.272 40.2715 26.6406 39.0364 28.1428C37.8124 29.6449 36.0933 31.4641 33.8791 33.6005L27.9874 39.5923V39.826H42.8752V45H19.4419Z" fill="black"/>
<path d="M2.57244 70H1.27983L5.01847 59.8182H6.29119L10.0298 70H8.73722L5.6946 61.429H5.61506L2.57244 70ZM3.04972 66.0227H8.25994V67.1165H3.04972V66.0227ZM12.2298 70L9.90305 62.3636H11.136L12.7866 68.2102H12.8661L14.4968 62.3636H15.7496L17.3604 68.1903H17.44L19.0906 62.3636H20.3235L17.9968 70H16.8434L15.1729 64.1335H15.0536L13.3832 70H12.2298ZM24.1218 70.179C23.6379 70.179 23.1987 70.0878 22.8043 69.9055C22.4099 69.7199 22.0967 69.4531 21.8647 69.1051C21.6327 68.7538 21.5167 68.3295 21.5167 67.8324C21.5167 67.3949 21.6029 67.0402 21.7752 66.7685C21.9476 66.4934 22.1779 66.2779 22.4663 66.1222C22.7546 65.9664 23.0728 65.8504 23.4208 65.7741C23.7721 65.6946 24.1251 65.6316 24.4798 65.5852C24.9438 65.5256 25.32 65.4808 25.6083 65.451C25.9 65.4179 26.1121 65.3632 26.2447 65.2869C26.3806 65.2107 26.4485 65.0781 26.4485 64.8892V64.8494C26.4485 64.3589 26.3143 63.9777 26.0458 63.706C25.7807 63.4342 25.378 63.2983 24.8377 63.2983C24.2776 63.2983 23.8384 63.4209 23.5202 63.6662C23.2021 63.9115 22.9783 64.1733 22.8491 64.4517L21.7354 64.054C21.9343 63.59 22.1995 63.2287 22.5309 62.9702C22.8656 62.7083 23.2302 62.526 23.6246 62.4233C24.0224 62.3172 24.4135 62.2642 24.7979 62.2642C25.0432 62.2642 25.3249 62.294 25.6431 62.3537C25.9646 62.41 26.2745 62.5277 26.5728 62.7067C26.8744 62.8857 27.1246 63.1558 27.3235 63.517C27.5224 63.8783 27.6218 64.3622 27.6218 64.9688V70H26.4485V68.9659H26.3888C26.3093 69.1316 26.1767 69.3089 25.9911 69.4979C25.8055 69.6868 25.5586 69.8475 25.2504 69.9801C24.9421 70.1127 24.5659 70.179 24.1218 70.179ZM24.3008 69.125C24.7648 69.125 25.1559 69.0339 25.4741 68.8516C25.7956 68.6693 26.0375 68.4339 26.1999 68.1456C26.3656 67.8572 26.4485 67.554 26.4485 67.2358V66.1619C26.3988 66.2216 26.2894 66.2763 26.1204 66.326C25.9547 66.3724 25.7624 66.4138 25.5437 66.4503C25.3282 66.4834 25.1178 66.5133 24.9123 66.5398C24.7101 66.563 24.546 66.5829 24.4201 66.5994C24.1152 66.6392 23.8301 66.7038 23.565 66.7933C23.3031 66.8795 23.091 67.0104 22.9286 67.1861C22.7695 67.3584 22.69 67.5937 22.69 67.892C22.69 68.2997 22.8408 68.608 23.1424 68.8168C23.4473 69.0223 23.8335 69.125 24.3008 69.125ZM29.7633 70V62.3636H30.9366V70H29.7633ZM30.3599 61.0909C30.1312 61.0909 29.934 61.013 29.7683 60.8572C29.6059 60.7015 29.5247 60.5142 29.5247 60.2955C29.5247 60.0767 29.6059 59.8894 29.7683 59.7337C29.934 59.5779 30.1312 59.5 30.3599 59.5C30.5886 59.5 30.7842 59.5779 30.9466 59.7337C31.1123 59.8894 31.1951 60.0767 31.1951 60.2955C31.1951 60.5142 31.1123 60.7015 30.9466 60.8572C30.7842 61.013 30.5886 61.0909 30.3599 61.0909ZM36.4066 62.3636V63.358H32.4492V62.3636H36.4066ZM33.6026 60.5341H34.7759V67.8125C34.7759 68.1439 34.824 68.3925 34.9201 68.5582C35.0195 68.7206 35.1455 68.83 35.2979 68.8864C35.4537 68.9394 35.6178 68.9659 35.7901 68.9659C35.9194 68.9659 36.0255 68.9593 36.1083 68.946C36.1912 68.9295 36.2575 68.9162 36.3072 68.9062L36.5458 69.9602C36.4663 69.9901 36.3552 70.0199 36.2127 70.0497C36.0702 70.0829 35.8896 70.0994 35.6708 70.0994C35.3394 70.0994 35.0146 70.0282 34.6964 69.8857C34.3815 69.7431 34.1197 69.526 33.9109 69.2344C33.7054 68.9427 33.6026 68.5748 33.6026 68.1307V60.5341ZM38.1715 70V62.3636H39.3448V70H38.1715ZM38.7681 61.0909C38.5394 61.0909 38.3422 61.013 38.1765 60.8572C38.0141 60.7015 37.9329 60.5142 37.9329 60.2955C37.9329 60.0767 38.0141 59.8894 38.1765 59.7337C38.3422 59.5779 38.5394 59.5 38.7681 59.5C38.9968 59.5 39.1924 59.5779 39.3548 59.7337C39.5205 59.8894 39.6033 60.0767 39.6033 60.2955C39.6033 60.5142 39.5205 60.7015 39.3548 60.8572C39.1924 61.013 38.9968 61.0909 38.7681 61.0909ZM42.6671 65.4062V70H41.4938V62.3636H42.6273V63.5568H42.7267C42.9057 63.169 43.1775 62.8575 43.5421 62.6222C43.9067 62.3835 44.3773 62.2642 44.954 62.2642C45.4711 62.2642 45.9235 62.3703 46.3113 62.5824C46.699 62.7912 47.0007 63.1094 47.2161 63.5369C47.4315 63.9612 47.5392 64.4981 47.5392 65.1477V70H46.3659V65.2273C46.3659 64.6274 46.2102 64.16 45.8986 63.8253C45.5871 63.4872 45.1595 63.3182 44.6159 63.3182C44.2414 63.3182 43.9067 63.3994 43.6117 63.5618C43.32 63.7242 43.0897 63.9612 42.9206 64.2727C42.7516 64.5843 42.6671 64.9621 42.6671 65.4062ZM52.7656 73.0227C52.1989 73.0227 51.7116 72.9498 51.304 72.804C50.8963 72.6615 50.5566 72.4725 50.2848 72.2372C50.0163 72.0052 49.8026 71.7566 49.6435 71.4915L50.5781 70.8352C50.6842 70.9744 50.8184 71.1335 50.9808 71.3125C51.1432 71.4948 51.3653 71.6522 51.647 71.7848C51.9321 71.9207 52.3049 71.9886 52.7656 71.9886C53.3821 71.9886 53.8909 71.8395 54.2919 71.5412C54.6929 71.2429 54.8935 70.7756 54.8935 70.1392V68.5881H54.794C54.7079 68.7273 54.5852 68.8996 54.4261 69.1051C54.2704 69.3073 54.045 69.4879 53.75 69.647C53.4583 69.8028 53.0639 69.8807 52.5668 69.8807C51.9503 69.8807 51.3968 69.7348 50.9062 69.4432C50.419 69.1515 50.0329 68.7273 49.7479 68.1705C49.4661 67.6136 49.3253 66.9375 49.3253 66.142C49.3253 65.3598 49.4628 64.6787 49.7379 64.0987C50.013 63.5154 50.3958 63.0646 50.8864 62.7464C51.3769 62.425 51.9437 62.2642 52.5866 62.2642C53.0838 62.2642 53.4782 62.3471 53.7699 62.5128C54.0649 62.6752 54.2902 62.8608 54.446 63.0696C54.6051 63.2751 54.7277 63.4441 54.8139 63.5767H54.9332V62.3636H56.0668V70.2188C56.0668 70.875 55.9176 71.4086 55.6193 71.8196C55.3243 72.2339 54.9266 72.5372 54.4261 72.7294C53.929 72.925 53.3755 73.0227 52.7656 73.0227ZM52.7259 68.8267C53.1965 68.8267 53.5942 68.719 53.919 68.5036C54.2438 68.2881 54.4908 67.9782 54.6598 67.5739C54.8288 67.1695 54.9134 66.6856 54.9134 66.1222C54.9134 65.572 54.8305 65.0864 54.6648 64.6655C54.4991 64.2446 54.2538 63.9148 53.929 63.6761C53.6042 63.4375 53.2031 63.3182 52.7259 63.3182C52.2287 63.3182 51.8144 63.4441 51.483 63.696C51.1548 63.9479 50.9079 64.286 50.7422 64.7102C50.5798 65.1345 50.4986 65.6051 50.4986 66.1222C50.4986 66.6525 50.5814 67.1214 50.7472 67.5291C50.9162 67.9335 51.1648 68.2517 51.4929 68.4837C51.8243 68.7124 52.2353 68.8267 52.7259 68.8267ZM4.60334 79.3636V80.358H0.486861V79.3636H4.60334ZM1.71982 87V78.3097C1.71982 77.8722 1.82256 77.5076 2.02805 77.2159C2.23355 76.9242 2.50036 76.7055 2.82848 76.5597C3.15661 76.4138 3.50296 76.3409 3.86754 76.3409C4.15589 76.3409 4.39122 76.3641 4.57351 76.4105C4.7558 76.4569 4.89169 76.5 4.98118 76.5398L4.64311 77.554C4.58345 77.5341 4.50059 77.5092 4.39453 77.4794C4.29179 77.4496 4.1559 77.4347 3.98686 77.4347C3.59908 77.4347 3.31901 77.5324 3.14666 77.728C2.97763 77.9235 2.89311 78.2102 2.89311 78.5881V87H1.71982ZM9.13494 87.1591C8.39915 87.1591 7.76444 86.9967 7.23082 86.6719C6.70052 86.3438 6.29119 85.8864 6.00284 85.2997C5.7178 84.7098 5.57528 84.0237 5.57528 83.2415C5.57528 82.4593 5.7178 81.7699 6.00284 81.1733C6.29119 80.5734 6.69223 80.1061 7.20597 79.7713C7.72301 79.4332 8.32623 79.2642 9.01562 79.2642C9.41335 79.2642 9.80611 79.3305 10.1939 79.4631C10.5817 79.5956 10.9347 79.8111 11.2528 80.1094C11.571 80.4044 11.8246 80.7955 12.0135 81.2827C12.2024 81.7699 12.2969 82.3698 12.2969 83.0824V83.5795H6.41051V82.5653H11.1037C11.1037 82.1345 11.0175 81.75 10.8452 81.4119C10.6761 81.0739 10.4342 80.8071 10.1193 80.6115C9.80777 80.416 9.43987 80.3182 9.01562 80.3182C8.5483 80.3182 8.14394 80.4342 7.80256 80.6662C7.46449 80.8949 7.20431 81.1932 7.02202 81.5611C6.83973 81.929 6.74858 82.3234 6.74858 82.7443V83.4205C6.74858 83.9972 6.84801 84.486 7.04688 84.8871C7.24905 85.2848 7.52912 85.5881 7.88707 85.7969C8.24503 86.0024 8.66099 86.1051 9.13494 86.1051C9.44318 86.1051 9.72159 86.062 9.97017 85.9759C10.2221 85.8864 10.4392 85.7538 10.6214 85.5781C10.8037 85.3991 10.9446 85.1771 11.044 84.9119L12.1776 85.2301C12.0582 85.6146 11.8577 85.9527 11.576 86.2443C11.2943 86.5327 10.9463 86.758 10.532 86.9205C10.1177 87.0795 9.65199 87.1591 9.13494 87.1591ZM17.2834 87.1591C16.5476 87.1591 15.9129 86.9967 15.3793 86.6719C14.849 86.3438 14.4396 85.8864 14.1513 85.2997C13.8662 84.7098 13.7237 84.0237 13.7237 83.2415C13.7237 82.4593 13.8662 81.7699 14.1513 81.1733C14.4396 80.5734 14.8407 80.1061 15.3544 79.7713C15.8714 79.4332 16.4747 79.2642 17.1641 79.2642C17.5618 79.2642 17.9545 79.3305 18.3423 79.4631C18.7301 79.5956 19.0831 79.8111 19.4013 80.1094C19.7195 80.4044 19.973 80.7955 20.1619 81.2827C20.3509 81.7699 20.4453 82.3698 20.4453 83.0824V83.5795H14.5589V82.5653H19.2521C19.2521 82.1345 19.166 81.75 18.9936 81.4119C18.8246 81.0739 18.5826 80.8071 18.2678 80.6115C17.9562 80.416 17.5883 80.3182 17.1641 80.3182C16.6967 80.3182 16.2924 80.4342 15.951 80.6662C15.6129 80.8949 15.3527 81.1932 15.1705 81.5611C14.9882 81.929 14.897 82.3234 14.897 82.7443V83.4205C14.897 83.9972 14.9964 84.486 15.1953 84.8871C15.3975 85.2848 15.6776 85.5881 16.0355 85.7969C16.3935 86.0024 16.8094 86.1051 17.2834 86.1051C17.5916 86.1051 17.87 86.062 18.1186 85.9759C18.3705 85.8864 18.5876 85.7538 18.7699 85.5781C18.9522 85.3991 19.093 85.1771 19.1925 84.9119L20.326 85.2301C20.2067 85.6146 20.0062 85.9527 19.7244 86.2443C19.4427 86.5327 19.0947 86.758 18.6804 86.9205C18.2661 87.0795 17.8004 87.1591 17.2834 87.1591ZM25.1136 87.1591C24.4773 87.1591 23.9155 86.9983 23.4283 86.6768C22.9411 86.352 22.5599 85.8946 22.2848 85.3047C22.0097 84.7114 21.8722 84.0104 21.8722 83.2017C21.8722 82.3996 22.0097 81.7036 22.2848 81.1136C22.5599 80.5237 22.9427 80.0679 23.4332 79.7464C23.9238 79.425 24.4905 79.2642 25.1335 79.2642C25.6307 79.2642 26.0234 79.3471 26.3118 79.5128C26.6035 79.6752 26.8255 79.8608 26.978 80.0696C27.1338 80.2751 27.2547 80.4441 27.3409 80.5767H27.4403V76.8182H28.6136V87H27.4801V85.8267H27.3409C27.2547 85.9659 27.1321 86.1416 26.973 86.3537C26.8139 86.5625 26.5869 86.7498 26.2919 86.9155C25.9969 87.0779 25.6042 87.1591 25.1136 87.1591ZM25.2727 86.1051C25.7434 86.1051 26.1411 85.9825 26.4659 85.7372C26.7907 85.4886 27.0376 85.1456 27.2067 84.7081C27.3757 84.2673 27.4602 83.7585 27.4602 83.1818C27.4602 82.6117 27.3774 82.1129 27.2116 81.6854C27.0459 81.2545 26.8007 80.9197 26.4759 80.6811C26.151 80.4392 25.75 80.3182 25.2727 80.3182C24.7756 80.3182 24.3613 80.4458 24.0298 80.701C23.7017 80.9529 23.4548 81.2959 23.2891 81.7301C23.1267 82.161 23.0455 82.6449 23.0455 83.1818C23.0455 83.7254 23.1283 84.2192 23.294 84.6634C23.4631 85.1042 23.7116 85.4555 24.0398 85.7173C24.3712 85.9759 24.7822 86.1051 25.2727 86.1051ZM31.0845 87V76.8182H32.2578V80.5767H32.3572C32.4434 80.4441 32.5627 80.2751 32.7152 80.0696C32.871 79.8608 33.093 79.6752 33.3814 79.5128C33.6731 79.3471 34.0675 79.2642 34.5646 79.2642C35.2076 79.2642 35.7744 79.425 36.2649 79.7464C36.7554 80.0679 37.1383 80.5237 37.4134 81.1136C37.6884 81.7036 37.826 82.3996 37.826 83.2017C37.826 84.0104 37.6884 84.7114 37.4134 85.3047C37.1383 85.8946 36.7571 86.352 36.2699 86.6768C35.7827 86.9983 35.2209 87.1591 34.5845 87.1591C34.094 87.1591 33.7012 87.0779 33.4062 86.9155C33.1113 86.7498 32.8842 86.5625 32.7251 86.3537C32.5661 86.1416 32.4434 85.9659 32.3572 85.8267H32.218V87H31.0845ZM32.2379 83.1818C32.2379 83.7585 32.3224 84.2673 32.4915 84.7081C32.6605 85.1456 32.9074 85.4886 33.2322 85.7372C33.5571 85.9825 33.9548 86.1051 34.4254 86.1051C34.916 86.1051 35.3253 85.9759 35.6534 85.7173C35.9848 85.4555 36.2334 85.1042 36.3991 84.6634C36.5682 84.2192 36.6527 83.7254 36.6527 83.1818C36.6527 82.6449 36.5698 82.161 36.4041 81.7301C36.2417 81.2959 35.9948 80.9529 35.6634 80.701C35.3352 80.4458 34.9226 80.3182 34.4254 80.3182C33.9482 80.3182 33.5471 80.4392 33.2223 80.6811C32.8975 80.9197 32.6522 81.2545 32.4865 81.6854C32.3208 82.1129 32.2379 82.6117 32.2379 83.1818ZM41.8679 87.179C41.384 87.179 40.9448 87.0878 40.5504 86.9055C40.156 86.7199 39.8428 86.4531 39.6108 86.1051C39.3788 85.7538 39.2628 85.3295 39.2628 84.8324C39.2628 84.3949 39.349 84.0402 39.5213 83.7685C39.6937 83.4934 39.924 83.2779 40.2124 83.1222C40.5007 82.9664 40.8189 82.8504 41.1669 82.7741C41.5182 82.6946 41.8712 82.6316 42.2259 82.5852C42.6899 82.5256 43.0661 82.4808 43.3544 82.451C43.6461 82.4179 43.8582 82.3632 43.9908 82.2869C44.1267 82.2107 44.1946 82.0781 44.1946 81.8892V81.8494C44.1946 81.3589 44.0604 80.9777 43.7919 80.706C43.5268 80.4342 43.1241 80.2983 42.5838 80.2983C42.0237 80.2983 41.5845 80.4209 41.2663 80.6662C40.9482 80.9115 40.7244 81.1733 40.5952 81.4517L39.4815 81.054C39.6804 80.59 39.9455 80.2287 40.277 79.9702C40.6117 79.7083 40.9763 79.526 41.3707 79.4233C41.7685 79.3172 42.1596 79.2642 42.544 79.2642C42.7893 79.2642 43.071 79.294 43.3892 79.3537C43.7107 79.41 44.0206 79.5277 44.3189 79.7067C44.6205 79.8857 44.8707 80.1558 45.0696 80.517C45.2685 80.8783 45.3679 81.3622 45.3679 81.9688V87H44.1946V85.9659H44.1349C44.0554 86.1316 43.9228 86.3089 43.7372 86.4979C43.5516 86.6868 43.3047 86.8475 42.9964 86.9801C42.6882 87.1127 42.312 87.179 41.8679 87.179ZM42.0469 86.125C42.5109 86.125 42.902 86.0339 43.2202 85.8516C43.5417 85.6693 43.7836 85.4339 43.946 85.1456C44.1117 84.8572 44.1946 84.554 44.1946 84.2358V83.1619C44.1449 83.2216 44.0355 83.2763 43.8665 83.326C43.7008 83.3724 43.5085 83.4138 43.2898 83.4503C43.0743 83.4834 42.8639 83.5133 42.6584 83.5398C42.4562 83.563 42.2921 83.5829 42.1662 83.5994C41.8613 83.6392 41.5762 83.7038 41.3111 83.7933C41.0492 83.8795 40.8371 84.0104 40.6747 84.1861C40.5156 84.3584 40.4361 84.5937 40.4361 84.892C40.4361 85.2997 40.5869 85.608 40.8885 85.8168C41.1934 86.0223 41.5795 86.125 42.0469 86.125ZM50.6117 87.1591C49.8958 87.1591 49.2793 86.9901 48.7623 86.652C48.2452 86.3139 47.8475 85.8482 47.5691 85.255C47.2907 84.6617 47.1515 83.9839 47.1515 83.2216C47.1515 82.446 47.294 81.7616 47.579 81.1683C47.8674 80.5717 48.2684 80.1061 48.7821 79.7713C49.2992 79.4332 49.9024 79.2642 50.5918 79.2642C51.1287 79.2642 51.6126 79.3636 52.0435 79.5625C52.4744 79.7614 52.8274 80.0398 53.1025 80.3977C53.3775 80.7557 53.5482 81.1733 53.6145 81.6506H52.4412C52.3517 81.3026 52.1529 80.9943 51.8446 80.7259C51.5397 80.4541 51.1287 80.3182 50.6117 80.3182C50.1543 80.3182 49.7533 80.4375 49.4086 80.6761C49.0672 80.9115 48.8004 81.2446 48.6081 81.6754C48.4192 82.103 48.3248 82.6051 48.3248 83.1818C48.3248 83.7718 48.4176 84.2855 48.6032 84.723C48.7921 85.1605 49.0572 85.5002 49.3986 85.7422C49.7433 85.9841 50.1477 86.1051 50.6117 86.1051C50.9166 86.1051 51.1934 86.0521 51.4419 85.946C51.6905 85.84 51.901 85.6875 52.0733 85.4886C52.2457 85.2898 52.3683 85.0511 52.4412 84.7727H53.6145C53.5482 85.2235 53.3842 85.6295 53.1223 85.9908C52.8638 86.3487 52.5208 86.6338 52.0932 86.8459C51.669 87.0547 51.1751 87.1591 50.6117 87.1591ZM56.4235 84.2159L56.4036 82.7642H56.6422L59.9831 79.3636H61.4348L57.8752 82.9631H57.7757L56.4235 84.2159ZM55.3297 87V76.8182H56.503V87H55.3297ZM60.182 87L57.199 83.2216L58.0343 82.4062L61.6735 87H60.182Z" fill="#2A3647"/>
</svg>
