<svg width="126" height="57" viewBox="0 0 126 57" fill="none" xmlns="http://www.w3.org/2000/svg">
<rect x="0.5" y="1" width="125" height="55" rx="9.5" stroke="#2A3647"/>
<path d="M29.4659 25.5H27.7045C27.6004 24.9934 27.4181 24.5483 27.1577 24.1648C26.902 23.7812 26.5895 23.4593 26.2202 23.1989C25.8556 22.9337 25.4508 22.7348 25.0057 22.6023C24.5606 22.4697 24.0966 22.4034 23.6136 22.4034C22.733 22.4034 21.9351 22.6259 21.2202 23.071C20.5099 23.5161 19.9441 24.1719 19.5227 25.0384C19.1061 25.9048 18.8977 26.9678 18.8977 28.2273C18.8977 29.4867 19.1061 30.5497 19.5227 31.4162C19.9441 32.2827 20.5099 32.9384 21.2202 33.3835C21.9351 33.8286 22.733 34.0511 23.6136 34.0511C24.0966 34.0511 24.5606 33.9848 25.0057 33.8523C25.4508 33.7197 25.8556 33.5232 26.2202 33.2628C26.5895 32.9976 26.902 32.6733 27.1577 32.2898C27.4181 31.9015 27.6004 31.4564 27.7045 30.9545H29.4659C29.3333 31.6979 29.0919 32.3632 28.7415 32.9503C28.3911 33.5374 27.9555 34.0369 27.4347 34.4489C26.9138 34.8561 26.3291 35.1662 25.6804 35.3793C25.0365 35.5923 24.3475 35.6989 23.6136 35.6989C22.3731 35.6989 21.2699 35.3958 20.304 34.7898C19.3381 34.1837 18.5781 33.322 18.0241 32.2045C17.4702 31.0871 17.1932 29.7614 17.1932 28.2273C17.1932 26.6932 17.4702 25.3674 18.0241 24.25C18.5781 23.1326 19.3381 22.2708 20.304 21.6648C21.2699 21.0587 22.3731 20.7557 23.6136 20.7557C24.3475 20.7557 25.0365 20.8622 25.6804 21.0753C26.3291 21.2884 26.9138 21.6009 27.4347 22.0128C27.9555 22.42 28.3911 22.9171 28.7415 23.5043C29.0919 24.0866 29.3333 24.7519 29.4659 25.5ZM35.2951 35.7557C34.6038 35.7557 33.9764 35.6255 33.413 35.3651C32.8496 35.0999 32.4021 34.7188 32.0707 34.2216C31.7392 33.7197 31.5735 33.1136 31.5735 32.4034C31.5735 31.7784 31.6966 31.2718 31.9428 30.8835C32.189 30.4905 32.5181 30.1828 32.93 29.9602C33.342 29.7377 33.7965 29.572 34.2937 29.4631C34.7956 29.3494 35.2998 29.2595 35.8065 29.1932C36.4693 29.108 37.0067 29.044 37.4187 29.0014C37.8353 28.9541 38.1384 28.8759 38.3278 28.767C38.5219 28.6581 38.619 28.4687 38.619 28.1989V28.142C38.619 27.4413 38.4272 26.8968 38.0437 26.5085C37.6649 26.1203 37.0896 25.9261 36.3178 25.9261C35.5176 25.9261 34.8903 26.1013 34.4357 26.4517C33.9812 26.8021 33.6616 27.1761 33.4769 27.5739L31.886 27.0057C32.1701 26.3428 32.5489 25.8267 33.0224 25.4574C33.5006 25.0833 34.0214 24.8229 34.5849 24.6761C35.1531 24.5246 35.7118 24.4489 36.261 24.4489C36.6114 24.4489 37.0138 24.4915 37.4684 24.5767C37.9277 24.6572 38.3704 24.8253 38.7965 25.081C39.2274 25.3366 39.5849 25.7225 39.869 26.2386C40.1531 26.7547 40.2951 27.446 40.2951 28.3125V35.5H38.619V34.0227H38.5337C38.4201 34.2595 38.2307 34.5128 37.9656 34.7827C37.7004 35.0526 37.3477 35.2822 36.9073 35.4716C36.467 35.661 35.9296 35.7557 35.2951 35.7557ZM35.5508 34.25C36.2137 34.25 36.7724 34.1198 37.2269 33.8594C37.6862 33.599 38.0318 33.2628 38.2638 32.8509C38.5006 32.4389 38.619 32.0057 38.619 31.5511V30.017C38.5479 30.1023 38.3917 30.1804 38.1502 30.2514C37.9135 30.3177 37.6388 30.3769 37.3263 30.429C37.0186 30.4763 36.7179 30.5189 36.4244 30.5568C36.1355 30.59 35.9012 30.6184 35.7212 30.642C35.2856 30.6989 34.8784 30.7912 34.4996 30.919C34.1256 31.0421 33.8226 31.2292 33.5906 31.4801C33.3633 31.7263 33.2496 32.0625 33.2496 32.4886C33.2496 33.071 33.4651 33.5114 33.896 33.8097C34.3316 34.1032 34.8832 34.25 35.5508 34.25ZM45.0305 28.9375V35.5H43.3544V24.5909H44.9737V26.2955H45.1158C45.3714 25.7415 45.7597 25.2964 46.2805 24.9602C46.8014 24.6193 47.4737 24.4489 48.2976 24.4489C49.0362 24.4489 49.6825 24.6004 50.2365 24.9034C50.7905 25.2017 51.2214 25.6562 51.5291 26.267C51.8369 26.8731 51.9908 27.6402 51.9908 28.5682V35.5H50.3146V28.6818C50.3146 27.8248 50.0921 27.1572 49.647 26.679C49.2019 26.196 48.5911 25.9545 47.8146 25.9545C47.2796 25.9545 46.8014 26.0705 46.38 26.3026C45.9633 26.5346 45.6342 26.8731 45.3928 27.3182C45.1513 27.7633 45.0305 28.303 45.0305 28.9375ZM59.4854 35.7273C58.4627 35.7273 57.582 35.4858 56.8434 35.0028C56.1048 34.5199 55.5366 33.8546 55.1388 33.0071C54.7411 32.1596 54.5423 31.1913 54.5423 30.1023C54.5423 28.9943 54.7459 28.0166 55.1531 27.169C55.565 26.3168 56.1379 25.6515 56.8718 25.1733C57.6104 24.6903 58.4722 24.4489 59.457 24.4489C60.2241 24.4489 60.9154 24.5909 61.5309 24.875C62.1464 25.1591 62.6507 25.5568 63.0437 26.0682C63.4367 26.5795 63.6805 27.1761 63.7752 27.858H62.0991C61.9712 27.3608 61.6871 26.9205 61.2468 26.5369C60.8112 26.1487 60.2241 25.9545 59.4854 25.9545C58.832 25.9545 58.2591 26.125 57.7667 26.4659C57.279 26.8021 56.8978 27.2779 56.6232 27.8935C56.3533 28.5043 56.2184 29.2216 56.2184 30.0455C56.2184 30.8883 56.351 31.6222 56.6161 32.2472C56.886 32.8722 57.2648 33.3575 57.7525 33.7031C58.2449 34.0488 58.8226 34.2216 59.4854 34.2216C59.921 34.2216 60.3164 34.1458 60.6715 33.9943C61.0266 33.8428 61.3273 33.625 61.5735 33.3409C61.8197 33.0568 61.9949 32.7159 62.0991 32.3182H63.7752C63.6805 32.9621 63.4461 33.5421 63.0721 34.0582C62.7028 34.5696 62.2127 34.9768 61.6019 35.2798C60.9959 35.5781 60.2904 35.7273 59.4854 35.7273ZM70.7994 35.7273C69.7482 35.7273 68.8415 35.4953 68.0792 35.0312C67.3216 34.5625 66.7369 33.9091 66.3249 33.071C65.9177 32.2282 65.7141 31.2481 65.7141 30.1307C65.7141 29.0133 65.9177 28.0284 66.3249 27.1761C66.7369 26.3191 67.3098 25.6515 68.0437 25.1733C68.7823 24.6903 69.6441 24.4489 70.6289 24.4489C71.1971 24.4489 71.7582 24.5436 72.3121 24.733C72.8661 24.9223 73.3704 25.2301 73.8249 25.6562C74.2795 26.0777 74.6417 26.6364 74.9116 27.3324C75.1815 28.0284 75.3164 28.8854 75.3164 29.9034V30.6136H66.9073V29.1648H73.6119C73.6119 28.5492 73.4888 28 73.2425 27.517C73.0011 27.0341 72.6554 26.6529 72.2056 26.3736C71.7605 26.0942 71.235 25.9545 70.6289 25.9545C69.9613 25.9545 69.3836 26.1203 68.896 26.4517C68.413 26.7784 68.0413 27.2045 67.7809 27.7301C67.5205 28.2557 67.3903 28.8191 67.3903 29.4205V30.3864C67.3903 31.2102 67.5323 31.9086 67.8164 32.4815C68.1052 33.0497 68.5053 33.483 69.0167 33.7812C69.5281 34.0748 70.1223 34.2216 70.7994 34.2216C71.2397 34.2216 71.6374 34.16 71.9925 34.0369C72.3524 33.9091 72.6625 33.7197 72.9229 33.4688C73.1834 33.2131 73.3846 32.8958 73.5266 32.517L75.146 32.9716C74.9755 33.5208 74.689 34.0038 74.2866 34.4205C73.8841 34.8324 73.387 35.1544 72.7951 35.3864C72.2032 35.6136 71.538 35.7273 70.7994 35.7273ZM79.5423 20.9545V35.5H77.8661V20.9545H79.5423Z" fill="#2A3647"/>
<path d="M98.001 28.5001L103.244 33.7431M92.758 33.7431L98.001 28.5001L92.758 33.7431ZM103.244 23.2571L98 28.5001L103.244 23.2571ZM98 28.5001L92.758 23.2571L98 28.5001Z" stroke="#2A3647" stroke-width="2" stroke-linecap="round" stroke-linejoin="round"/>
</svg>
