<svg width="352" height="57" viewBox="0 0 352 57" fill="none" xmlns="http://www.w3.org/2000/svg">
<rect x="0.5" y="1" width="351" height="55" rx="9.5" fill="#2A3647"/>
<rect x="0.5" y="1" width="351" height="55" rx="9.5" stroke="#2A3647"/>
<path d="M68.4599 36H64.9996L70.272 20.7273H74.4332L79.6982 36H76.2379L72.4123 24.2173H72.293L68.4599 36ZM68.2436 29.9968H76.4169V32.5174H68.2436V29.9968ZM85.1644 36.1864C84.2944 36.1864 83.5064 35.9627 82.8004 35.5153C82.0994 35.0629 81.5426 34.3991 81.13 33.5241C80.7223 32.6442 80.5185 31.5653 80.5185 30.2876C80.5185 28.9751 80.7298 27.8839 81.1523 27.0138C81.5749 26.1388 82.1367 25.4851 82.8377 25.0526C83.5437 24.6151 84.3168 24.3963 85.157 24.3963C85.7983 24.3963 86.3327 24.5057 86.7603 24.7244C87.1928 24.9382 87.5408 25.2067 87.8043 25.5298C88.0728 25.848 88.2766 26.1612 88.4158 26.4695H88.5128V20.7273H91.6822V36H88.5501V34.1655H88.4158C88.2667 34.4837 88.0554 34.7994 87.782 35.1126C87.5135 35.4208 87.163 35.6768 86.7305 35.8807C86.3029 36.0845 85.7809 36.1864 85.1644 36.1864ZM86.1712 33.6584C86.6832 33.6584 87.1158 33.5192 87.4688 33.2408C87.8267 32.9574 88.1001 32.5621 88.2891 32.055C88.483 31.5479 88.5799 30.9538 88.5799 30.2727C88.5799 29.5916 88.4854 29 88.2965 28.4979C88.1076 27.9957 87.8342 27.608 87.4762 27.3345C87.1183 27.0611 86.6832 26.9244 86.1712 26.9244C85.6491 26.9244 85.2092 27.0661 84.8512 27.3494C84.4933 27.6328 84.2223 28.0256 84.0384 28.5277C83.8544 29.0298 83.7624 29.6115 83.7624 30.2727C83.7624 30.9389 83.8544 31.5281 84.0384 32.0401C84.2273 32.5472 84.4982 32.945 84.8512 33.2333C85.2092 33.5167 85.6491 33.6584 86.1712 33.6584ZM98.515 36.1864C97.645 36.1864 96.857 35.9627 96.151 35.5153C95.45 35.0629 94.8932 34.3991 94.4806 33.5241C94.0729 32.6442 93.8691 31.5653 93.8691 30.2876C93.8691 28.9751 94.0803 27.8839 94.5029 27.0138C94.9255 26.1388 95.4873 25.4851 96.1883 25.0526C96.8943 24.6151 97.6673 24.3963 98.5075 24.3963C99.1489 24.3963 99.6833 24.5057 100.111 24.7244C100.543 24.9382 100.891 25.2067 101.155 25.5298C101.423 25.848 101.627 26.1612 101.766 26.4695H101.863V20.7273H105.033V36H101.901V34.1655H101.766C101.617 34.4837 101.406 34.7994 101.133 35.1126C100.864 35.4208 100.514 35.6768 100.081 35.8807C99.6535 36.0845 99.1315 36.1864 98.515 36.1864ZM99.5218 33.6584C100.034 33.6584 100.466 33.5192 100.819 33.2408C101.177 32.9574 101.451 32.5621 101.64 32.055C101.834 31.5479 101.93 30.9538 101.93 30.2727C101.93 29.5916 101.836 29 101.647 28.4979C101.458 27.9957 101.185 27.608 100.827 27.3345C100.469 27.0611 100.034 26.9244 99.5218 26.9244C98.9997 26.9244 98.5597 27.0661 98.2018 27.3494C97.8438 27.6328 97.5729 28.0256 97.3889 28.5277C97.205 29.0298 97.113 29.6115 97.113 30.2727C97.113 30.9389 97.205 31.5281 97.3889 32.0401C97.5779 32.5472 97.8488 32.945 98.2018 33.2333C98.5597 33.5167 98.9997 33.6584 99.5218 33.6584ZM115.682 29.3778V36H112.505V24.5455H115.533V26.5664H115.667C115.921 25.9002 116.346 25.3732 116.942 24.9854C117.539 24.5927 118.262 24.3963 119.112 24.3963C119.908 24.3963 120.601 24.5703 121.193 24.9183C121.785 25.2663 122.244 25.7635 122.573 26.4098C122.901 27.0511 123.065 27.8168 123.065 28.7067V36H119.888V29.2734C119.893 28.5724 119.714 28.0256 119.351 27.6328C118.988 27.2351 118.488 27.0362 117.852 27.0362C117.424 27.0362 117.047 27.1282 116.718 27.3121C116.395 27.4961 116.142 27.7646 115.958 28.1175C115.779 28.4656 115.687 28.8857 115.682 29.3778ZM130.789 36.2237C129.61 36.2237 128.596 35.9851 127.746 35.5078C126.901 35.0256 126.25 34.3445 125.792 33.4645C125.335 32.5795 125.106 31.533 125.106 30.3249C125.106 29.1467 125.335 28.1126 125.792 27.2227C126.25 26.3327 126.893 25.6392 127.724 25.142C128.559 24.6449 129.538 24.3963 130.662 24.3963C131.418 24.3963 132.121 24.5181 132.772 24.7617C133.429 25.0004 134 25.3608 134.488 25.843C134.98 26.3253 135.363 26.9318 135.636 27.6626C135.909 28.3885 136.046 29.2386 136.046 30.2131V31.0856H126.374V29.1168H133.056C133.056 28.6594 132.956 28.2543 132.757 27.9013C132.559 27.5483 132.283 27.2724 131.93 27.0735C131.582 26.8697 131.176 26.7678 130.714 26.7678C130.232 26.7678 129.804 26.8796 129.431 27.1033C129.064 27.3221 128.775 27.6179 128.566 27.9908C128.358 28.3587 128.251 28.7688 128.246 29.2212V31.093C128.246 31.6598 128.35 32.1495 128.559 32.5621C128.773 32.9748 129.074 33.293 129.461 33.5167C129.849 33.7404 130.309 33.8523 130.841 33.8523C131.194 33.8523 131.517 33.8026 131.81 33.7031C132.104 33.6037 132.355 33.4545 132.564 33.2557C132.772 33.0568 132.931 32.8132 133.041 32.5249L135.979 32.7188C135.83 33.4247 135.524 34.0412 135.062 34.5682C134.604 35.0902 134.013 35.4979 133.287 35.7912C132.566 36.0795 131.733 36.2237 130.789 36.2237ZM140.297 36L137.18 24.5455H140.394L142.169 32.2415H142.273L144.123 24.5455H147.277L149.156 32.1967H149.253L150.998 24.5455H154.205L151.095 36H147.732L145.763 28.7962H145.621L143.653 36H140.297ZM165.935 36.2237C164.762 36.2237 163.753 35.9751 162.908 35.478C162.067 34.9759 161.421 34.2798 160.969 33.3899C160.521 32.5 160.298 31.4759 160.298 30.3175C160.298 29.1442 160.524 28.1151 160.976 27.2301C161.434 26.3402 162.082 25.6467 162.923 25.1495C163.763 24.6474 164.762 24.3963 165.92 24.3963C166.92 24.3963 167.795 24.5778 168.545 24.9407C169.296 25.3036 169.89 25.8132 170.328 26.4695C170.765 27.1257 171.006 27.8963 171.051 28.7812H168.053C167.969 28.2095 167.745 27.7496 167.382 27.4016C167.024 27.0487 166.554 26.8722 165.973 26.8722C165.48 26.8722 165.05 27.0064 164.683 27.2749C164.32 27.5384 164.036 27.9237 163.832 28.4308C163.629 28.9379 163.527 29.5518 163.527 30.2727C163.527 31.0036 163.626 31.625 163.825 32.1371C164.029 32.6491 164.315 33.0394 164.683 33.3079C165.05 33.5763 165.48 33.7106 165.973 33.7106C166.336 33.7106 166.661 33.636 166.95 33.4869C167.243 33.3377 167.484 33.1214 167.673 32.8381C167.867 32.5497 167.994 32.2042 168.053 31.8015H171.051C171.001 32.6765 170.763 33.4471 170.335 34.1133C169.913 34.7745 169.328 35.2915 168.583 35.6644C167.837 36.0373 166.955 36.2237 165.935 36.2237ZM178.261 36.2237C177.102 36.2237 176.1 35.9776 175.255 35.4854C174.415 34.9883 173.766 34.2972 173.309 33.4123C172.851 32.5224 172.623 31.4908 172.623 30.3175C172.623 29.1342 172.851 28.1001 173.309 27.2152C173.766 26.3253 174.415 25.6342 175.255 25.142C176.1 24.6449 177.102 24.3963 178.261 24.3963C179.419 24.3963 180.418 24.6449 181.258 25.142C182.104 25.6342 182.755 26.3253 183.212 27.2152C183.67 28.1001 183.898 29.1342 183.898 30.3175C183.898 31.4908 183.67 32.5224 183.212 33.4123C182.755 34.2972 182.104 34.9883 181.258 35.4854C180.418 35.9776 179.419 36.2237 178.261 36.2237ZM178.275 33.7628C178.802 33.7628 179.242 33.6136 179.595 33.3153C179.948 33.0121 180.214 32.5994 180.393 32.0774C180.577 31.5554 180.669 30.9613 180.669 30.2951C180.669 29.6289 180.577 29.0348 180.393 28.5128C180.214 27.9908 179.948 27.5781 179.595 27.2749C179.242 26.9716 178.802 26.82 178.275 26.82C177.744 26.82 177.296 26.9716 176.933 27.2749C176.575 27.5781 176.304 27.9908 176.12 28.5128C175.941 29.0348 175.852 29.6289 175.852 30.2951C175.852 30.9613 175.941 31.5554 176.12 32.0774C176.304 32.5994 176.575 33.0121 176.933 33.3153C177.296 33.6136 177.744 33.7628 178.275 33.7628ZM189.141 29.3778V36H185.964V24.5455H188.992V26.5664H189.126C189.38 25.9002 189.805 25.3732 190.401 24.9854C190.998 24.5927 191.721 24.3963 192.571 24.3963C193.367 24.3963 194.06 24.5703 194.652 24.9183C195.244 25.2663 195.703 25.7635 196.032 26.4098C196.36 27.0511 196.524 27.8168 196.524 28.7067V36H193.347V29.2734C193.352 28.5724 193.173 28.0256 192.81 27.6328C192.447 27.2351 191.947 27.0362 191.311 27.0362C190.883 27.0362 190.506 27.1282 190.177 27.3121C189.854 27.4961 189.601 27.7646 189.417 28.1175C189.238 28.4656 189.146 28.8857 189.141 29.3778ZM205.12 24.5455V26.9318H198.222V24.5455H205.12ZM199.788 21.8011H202.965V32.4801C202.965 32.7734 203.01 33.0021 203.099 33.1662C203.189 33.3253 203.313 33.4371 203.472 33.5018C203.636 33.5664 203.825 33.5987 204.039 33.5987C204.188 33.5987 204.337 33.5863 204.486 33.5614C204.635 33.5316 204.75 33.5092 204.829 33.4943L205.329 35.8583C205.17 35.908 204.946 35.9652 204.658 36.0298C204.369 36.0994 204.019 36.1417 203.606 36.1566C202.841 36.1864 202.17 36.0845 201.593 35.8509C201.021 35.6172 200.576 35.2543 200.258 34.7621C199.94 34.2699 199.783 33.6484 199.788 32.8977V21.8011ZM210.456 36.2163C209.725 36.2163 209.074 36.0895 208.502 35.8359C207.93 35.5774 207.478 35.1971 207.145 34.695C206.817 34.1879 206.653 33.5565 206.653 32.8008C206.653 32.1644 206.77 31.63 207.003 31.1974C207.237 30.7649 207.555 30.4169 207.958 30.1534C208.36 29.8899 208.818 29.6911 209.33 29.5568C209.847 29.4226 210.389 29.3281 210.956 29.2734C211.622 29.2038 212.159 29.1392 212.566 29.0795C212.974 29.0149 213.27 28.9205 213.454 28.7962C213.638 28.6719 213.73 28.4879 213.73 28.2443V28.1996C213.73 27.7273 213.581 27.3619 213.282 27.1033C212.989 26.8448 212.571 26.7156 212.029 26.7156C211.458 26.7156 211.003 26.8423 210.665 27.0959C210.327 27.3445 210.103 27.6577 209.994 28.0355L207.055 27.7969C207.205 27.1009 207.498 26.4993 207.935 25.9922C208.373 25.4801 208.937 25.0874 209.628 24.8139C210.324 24.5355 211.13 24.3963 212.044 24.3963C212.681 24.3963 213.29 24.4709 213.871 24.62C214.458 24.7692 214.978 25.0004 215.43 25.3136C215.887 25.6268 216.248 26.0295 216.511 26.5217C216.775 27.0089 216.907 27.593 216.907 28.2741V36H213.894V34.4116H213.804C213.62 34.7695 213.374 35.0852 213.066 35.3587C212.758 35.6271 212.387 35.8384 211.955 35.9925C211.522 36.1417 211.023 36.2163 210.456 36.2163ZM211.366 34.0238C211.833 34.0238 212.246 33.9318 212.604 33.7479C212.962 33.5589 213.243 33.3054 213.446 32.9872C213.65 32.669 213.752 32.3086 213.752 31.9059V30.6903C213.653 30.755 213.516 30.8146 213.342 30.8693C213.173 30.919 212.982 30.9663 212.768 31.011C212.554 31.0508 212.34 31.0881 212.126 31.1229C211.913 31.1527 211.719 31.18 211.545 31.2049C211.172 31.2596 210.846 31.3466 210.568 31.4659C210.289 31.5852 210.073 31.7468 209.919 31.9506C209.765 32.1495 209.688 32.3981 209.688 32.6964C209.688 33.1289 209.844 33.4595 210.158 33.6882C210.476 33.9119 210.879 34.0238 211.366 34.0238ZM224.547 36.2237C223.373 36.2237 222.364 35.9751 221.519 35.478C220.679 34.9759 220.032 34.2798 219.58 33.3899C219.133 32.5 218.909 31.4759 218.909 30.3175C218.909 29.1442 219.135 28.1151 219.588 27.2301C220.045 26.3402 220.694 25.6467 221.534 25.1495C222.374 24.6474 223.373 24.3963 224.532 24.3963C225.531 24.3963 226.406 24.5778 227.157 24.9407C227.907 25.3036 228.502 25.8132 228.939 26.4695C229.377 27.1257 229.618 27.8963 229.662 28.7812H226.665C226.58 28.2095 226.356 27.7496 225.993 27.4016C225.635 27.0487 225.166 26.8722 224.584 26.8722C224.092 26.8722 223.662 27.0064 223.294 27.2749C222.931 27.5384 222.648 27.9237 222.444 28.4308C222.24 28.9379 222.138 29.5518 222.138 30.2727C222.138 31.0036 222.237 31.625 222.436 32.1371C222.64 32.6491 222.926 33.0394 223.294 33.3079C223.662 33.5763 224.092 33.7106 224.584 33.7106C224.947 33.7106 225.273 33.636 225.561 33.4869C225.854 33.3377 226.095 33.1214 226.284 32.8381C226.478 32.5497 226.605 32.2042 226.665 31.8015H229.662C229.613 32.6765 229.374 33.4471 228.947 34.1133C228.524 34.7745 227.94 35.2915 227.194 35.6644C226.448 36.0373 225.566 36.2237 224.547 36.2237ZM237.789 24.5455V26.9318H230.891V24.5455H237.789ZM232.457 21.8011H235.634V32.4801C235.634 32.7734 235.679 33.0021 235.768 33.1662C235.858 33.3253 235.982 33.4371 236.141 33.5018C236.305 33.5664 236.494 33.5987 236.708 33.5987C236.857 33.5987 237.006 33.5863 237.155 33.5614C237.304 33.5316 237.419 33.5092 237.498 33.4943L237.998 35.8583C237.839 35.908 237.615 35.9652 237.327 36.0298C237.038 36.0994 236.688 36.1417 236.275 36.1566C235.51 36.1864 234.839 36.0845 234.262 35.8509C233.69 35.6172 233.245 35.2543 232.927 34.7621C232.609 34.2699 232.452 33.6484 232.457 32.8977V21.8011Z" fill="white"/>
<mask id="mask0_71348_11060" style="mask-type:alpha" maskUnits="userSpaceOnUse" x="255" y="12" width="33" height="33">
<rect x="255.5" y="12.5" width="32" height="32" fill="#D9D9D9"/>
</mask>
<g mask="url(#mask0_71348_11060)">
<path d="M280.829 31.1667C280.513 31.1667 280.25 31.0602 280.039 30.8473C279.827 30.6343 279.722 30.3704 279.722 30.0556V26.9445H276.611C276.296 26.9445 276.032 26.8376 275.819 26.6239C275.606 26.4102 275.5 26.1454 275.5 25.8295C275.5 25.5136 275.606 25.2501 275.819 25.0389C276.032 24.8278 276.296 24.7223 276.611 24.7223H279.722V21.6111C279.722 21.2963 279.829 21.0325 280.042 20.8195C280.256 20.6065 280.521 20.5 280.837 20.5C281.153 20.5 281.416 20.6065 281.627 20.8195C281.839 21.0325 281.944 21.2963 281.944 21.6111V24.7223H285.055C285.37 24.7223 285.634 24.8291 285.847 25.0428C286.06 25.2566 286.166 25.5214 286.166 25.8373C286.166 26.1532 286.06 26.4167 285.847 26.6278C285.634 26.8389 285.37 26.9445 285.055 26.9445H281.944V30.0556C281.944 30.3704 281.837 30.6343 281.624 30.8473C281.41 31.0602 281.145 31.1667 280.829 31.1667ZM267.5 28.4778C266.033 28.4778 264.814 27.9926 263.844 27.0223C262.874 26.0519 262.389 24.8334 262.389 23.3667C262.389 21.9 262.874 20.6815 263.844 19.7112C264.814 18.7408 266.033 18.2556 267.5 18.2556C268.966 18.2556 270.185 18.7408 271.155 19.7112C272.126 20.6815 272.611 21.9 272.611 23.3667C272.611 24.8334 272.126 26.0519 271.155 27.0223C270.185 27.9926 268.966 28.4778 267.5 28.4778ZM257.944 39.1667C257.629 39.1667 257.365 39.0602 257.152 38.8473C256.939 38.6343 256.833 38.3704 256.833 38.0556V35.8334C256.833 35.063 257.031 34.3612 257.427 33.7279C257.824 33.0945 258.366 32.6186 259.055 32.3C260.626 31.5815 262.08 31.0649 263.418 30.75C264.757 30.4352 266.116 30.2779 267.496 30.2779C268.876 30.2779 270.237 30.4352 271.577 30.75C272.918 31.0649 274.366 31.5815 275.922 32.3C276.611 32.6334 277.157 33.113 277.561 33.7389C277.964 34.3649 278.166 35.063 278.166 35.8334V38.0556C278.166 38.3704 278.06 38.6343 277.847 38.8473C277.634 39.0602 277.37 39.1667 277.055 39.1667H257.944ZM259.055 36.9445H275.944V35.8334C275.944 35.5149 275.865 35.2149 275.705 34.9334C275.546 34.6519 275.307 34.4408 274.989 34.3C273.552 33.5963 272.263 33.1204 271.122 32.8723C269.981 32.6241 268.774 32.5 267.5 32.5C266.226 32.5 265.018 32.6278 263.877 32.8834C262.737 33.1389 261.44 33.6112 259.989 34.3C259.7 34.4408 259.472 34.6519 259.305 34.9334C259.139 35.2149 259.055 35.5149 259.055 35.8334V36.9445ZM267.5 26.2556C268.322 26.2556 269.009 25.9797 269.561 25.4278C270.113 24.876 270.389 24.1889 270.389 23.3667C270.389 22.5445 270.113 21.8575 269.561 21.3056C269.009 20.7537 268.322 20.4778 267.5 20.4778C266.677 20.4778 265.99 20.7537 265.439 21.3056C264.887 21.8575 264.611 22.5445 264.611 23.3667C264.611 24.1889 264.887 24.876 265.439 25.4278C265.99 25.9797 266.677 26.2556 267.5 26.2556Z" fill="white"/>
</g>
</svg>
