<svg width="96" height="40" viewBox="0 0 96 40" fill="none" xmlns="http://www.w3.org/2000/svg">
<mask id="mask0_117858_3996" style="mask-type:alpha" maskUnits="userSpaceOnUse" x="7" y="8" width="25" height="24">
<rect x="7.5" y="8" width="24" height="24" fill="#D9D9D9"/>
</mask>
<g mask="url(#mask0_117858_3996)">
<path d="M14.5 29C13.95 29 13.4792 28.8042 13.0875 28.4125C12.6958 28.0208 12.5 27.55 12.5 27V14C12.2167 14 11.9792 13.9042 11.7875 13.7125C11.5958 13.5208 11.5 13.2833 11.5 13C11.5 12.7167 11.5958 12.4792 11.7875 12.2875C11.9792 12.0958 12.2167 12 12.5 12H16.5C16.5 11.7167 16.5958 11.4792 16.7875 11.2875C16.9792 11.0958 17.2167 11 17.5 11H21.5C21.7833 11 22.0208 11.0958 22.2125 11.2875C22.4042 11.4792 22.5 11.7167 22.5 12H26.5C26.7833 12 27.0208 12.0958 27.2125 12.2875C27.4042 12.4792 27.5 12.7167 27.5 13C27.5 13.2833 27.4042 13.5208 27.2125 13.7125C27.0208 13.9042 26.7833 14 26.5 14V27C26.5 27.55 26.3042 28.0208 25.9125 28.4125C25.5208 28.8042 25.05 29 24.5 29H14.5ZM14.5 14V27H24.5V14H14.5ZM16.5 24C16.5 24.2833 16.5958 24.5208 16.7875 24.7125C16.9792 24.9042 17.2167 25 17.5 25C17.7833 25 18.0208 24.9042 18.2125 24.7125C18.4042 24.5208 18.5 24.2833 18.5 24V17C18.5 16.7167 18.4042 16.4792 18.2125 16.2875C18.0208 16.0958 17.7833 16 17.5 16C17.2167 16 16.9792 16.0958 16.7875 16.2875C16.5958 16.4792 16.5 16.7167 16.5 17V24ZM20.5 24C20.5 24.2833 20.5958 24.5208 20.7875 24.7125C20.9792 24.9042 21.2167 25 21.5 25C21.7833 25 22.0208 24.9042 22.2125 24.7125C22.4042 24.5208 22.5 24.2833 22.5 24V17C22.5 16.7167 22.4042 16.4792 22.2125 16.2875C22.0208 16.0958 21.7833 16 21.5 16C21.2167 16 20.9792 16.0958 20.7875 16.2875C20.5958 16.4792 20.5 16.7167 20.5 17V24Z" fill="#2A3647"/>
</g>
<path d="M44.5 25.5H40.9091V13.8636H44.6591C45.7879 13.8636 46.7538 14.0966 47.5568 14.5625C48.3598 15.0246 48.9754 15.6894 49.4034 16.5568C49.8314 17.4205 50.0455 18.4545 50.0455 19.6591C50.0455 20.8712 49.8295 21.9148 49.3977 22.7898C48.9659 23.661 48.3371 24.3314 47.5114 24.8011C46.6856 25.267 45.6818 25.5 44.5 25.5ZM42.3182 24.25H44.4091C45.3712 24.25 46.1686 24.0644 46.8011 23.6932C47.4337 23.322 47.9053 22.7936 48.2159 22.108C48.5265 21.4223 48.6818 20.6061 48.6818 19.6591C48.6818 18.7197 48.5284 17.911 48.2216 17.233C47.9148 16.5511 47.4564 16.0284 46.8466 15.6648C46.2367 15.2973 45.4773 15.1136 44.5682 15.1136H42.3182V24.25ZM55.8864 25.6818C55.0455 25.6818 54.3201 25.4962 53.7102 25.125C53.1042 24.75 52.6364 24.2273 52.3068 23.5568C51.9811 22.8826 51.8182 22.0985 51.8182 21.2045C51.8182 20.3106 51.9811 19.5227 52.3068 18.8409C52.6364 18.1553 53.0947 17.6212 53.6818 17.2386C54.2727 16.8523 54.9621 16.6591 55.75 16.6591C56.2045 16.6591 56.6534 16.7348 57.0966 16.8864C57.5398 17.0379 57.9432 17.2841 58.3068 17.625C58.6705 17.9621 58.9602 18.4091 59.1761 18.9659C59.392 19.5227 59.5 20.2083 59.5 21.0227V21.5909H52.7727V20.4318H58.1364C58.1364 19.9394 58.0379 19.5 57.8409 19.1136C57.6477 18.7273 57.3712 18.4223 57.0114 18.1989C56.6553 17.9754 56.2348 17.8636 55.75 17.8636C55.2159 17.8636 54.7538 17.9962 54.3636 18.2614C53.9773 18.5227 53.6799 18.8636 53.4716 19.2841C53.2633 19.7045 53.1591 20.1553 53.1591 20.6364V21.4091C53.1591 22.0682 53.2727 22.6269 53.5 23.0852C53.7311 23.5398 54.0511 23.8864 54.4602 24.125C54.8693 24.3598 55.3447 24.4773 55.8864 24.4773C56.2386 24.4773 56.5568 24.428 56.8409 24.3295C57.1288 24.2273 57.3769 24.0758 57.5852 23.875C57.7936 23.6705 57.9545 23.4167 58.0682 23.1136L59.3636 23.4773C59.2273 23.9167 58.9981 24.303 58.6761 24.6364C58.3542 24.9659 57.9564 25.2235 57.483 25.4091C57.0095 25.5909 56.4773 25.6818 55.8864 25.6818ZM62.8807 13.8636V25.5H61.5398V13.8636H62.8807ZM68.9957 25.6818C68.1548 25.6818 67.4295 25.4962 66.8196 25.125C66.2135 24.75 65.7457 24.2273 65.4162 23.5568C65.0904 22.8826 64.9276 22.0985 64.9276 21.2045C64.9276 20.3106 65.0904 19.5227 65.4162 18.8409C65.7457 18.1553 66.2041 17.6212 66.7912 17.2386C67.3821 16.8523 68.0715 16.6591 68.8594 16.6591C69.3139 16.6591 69.7628 16.7348 70.206 16.8864C70.6491 17.0379 71.0526 17.2841 71.4162 17.625C71.7798 17.9621 72.0696 18.4091 72.2855 18.9659C72.5014 19.5227 72.6094 20.2083 72.6094 21.0227V21.5909H65.8821V20.4318H71.2457C71.2457 19.9394 71.1473 19.5 70.9503 19.1136C70.7571 18.7273 70.4806 18.4223 70.1207 18.1989C69.7647 17.9754 69.3442 17.8636 68.8594 17.8636C68.3253 17.8636 67.8632 17.9962 67.473 18.2614C67.0866 18.5227 66.7893 18.8636 66.581 19.2841C66.3726 19.7045 66.2685 20.1553 66.2685 20.6364V21.4091C66.2685 22.0682 66.3821 22.6269 66.6094 23.0852C66.8404 23.5398 67.1605 23.8864 67.5696 24.125C67.9787 24.3598 68.4541 24.4773 68.9957 24.4773C69.348 24.4773 69.6662 24.428 69.9503 24.3295C70.2382 24.2273 70.4863 24.0758 70.6946 23.875C70.9029 23.6705 71.0639 23.4167 71.1776 23.1136L72.473 23.4773C72.3366 23.9167 72.1075 24.303 71.7855 24.6364C71.4635 24.9659 71.0658 25.2235 70.5923 25.4091C70.1188 25.5909 69.5866 25.6818 68.9957 25.6818ZM78.4446 16.7727V17.9091H73.9219V16.7727H78.4446ZM75.2401 14.6818H76.581V23C76.581 23.3788 76.6359 23.6629 76.7457 23.8523C76.8594 24.0379 77.0033 24.1629 77.1776 24.2273C77.3556 24.2879 77.5431 24.3182 77.7401 24.3182C77.8878 24.3182 78.009 24.3106 78.1037 24.2955C78.1984 24.2765 78.2741 24.2614 78.331 24.25L78.6037 25.4545C78.5128 25.4886 78.3859 25.5227 78.223 25.5568C78.0601 25.5947 77.8537 25.6136 77.6037 25.6136C77.2249 25.6136 76.8537 25.5322 76.4901 25.3693C76.1302 25.2064 75.831 24.9583 75.5923 24.625C75.3575 24.2917 75.2401 23.8712 75.2401 23.3636V14.6818ZM84.027 25.6818C83.1861 25.6818 82.4607 25.4962 81.8509 25.125C81.2448 24.75 80.777 24.2273 80.4474 23.5568C80.1217 22.8826 79.9588 22.0985 79.9588 21.2045C79.9588 20.3106 80.1217 19.5227 80.4474 18.8409C80.777 18.1553 81.2353 17.6212 81.8224 17.2386C82.4134 16.8523 83.1027 16.6591 83.8906 16.6591C84.3452 16.6591 84.794 16.7348 85.2372 16.8864C85.6804 17.0379 86.0838 17.2841 86.4474 17.625C86.8111 17.9621 87.1009 18.4091 87.3168 18.9659C87.5327 19.5227 87.6406 20.2083 87.6406 21.0227V21.5909H80.9134V20.4318H86.277C86.277 19.9394 86.1785 19.5 85.9815 19.1136C85.7884 18.7273 85.5118 18.4223 85.152 18.1989C84.7959 17.9754 84.3755 17.8636 83.8906 17.8636C83.3565 17.8636 82.8944 17.9962 82.5043 18.2614C82.1179 18.5227 81.8205 18.8636 81.6122 19.2841C81.4039 19.7045 81.2997 20.1553 81.2997 20.6364V21.4091C81.2997 22.0682 81.4134 22.6269 81.6406 23.0852C81.8717 23.5398 82.1918 23.8864 82.6009 24.125C83.0099 24.3598 83.4853 24.4773 84.027 24.4773C84.3793 24.4773 84.6974 24.428 84.9815 24.3295C85.2694 24.2273 85.5175 24.0758 85.7259 23.875C85.9342 23.6705 86.0952 23.4167 86.2088 23.1136L87.5043 23.4773C87.3679 23.9167 87.1387 24.303 86.8168 24.6364C86.4948 24.9659 86.0971 25.2235 85.6236 25.4091C85.1501 25.5909 84.6179 25.6818 84.027 25.6818Z" fill="#2A3647"/>
</svg>
