<svg width="96" height="40" viewBox="0 0 96 40" fill="none" xmlns="http://www.w3.org/2000/svg">
<mask id="mask0_117858_3991" style="mask-type:alpha" maskUnits="userSpaceOnUse" x="8" y="8" width="24" height="24">
<rect x="8" y="8" width="24" height="24" fill="#D9D9D9"/>
</mask>
<g mask="url(#mask0_117858_3991)">
<path d="M13 27H14.4L23.025 18.375L21.625 16.975L13 25.6V27ZM27.3 16.925L23.05 12.725L24.45 11.325C24.8333 10.9417 25.3042 10.75 25.8625 10.75C26.4208 10.75 26.8917 10.9417 27.275 11.325L28.675 12.725C29.0583 13.1083 29.2583 13.5708 29.275 14.1125C29.2917 14.6542 29.1083 15.1167 28.725 15.5L27.3 16.925ZM25.85 18.4L15.25 29H11V24.75L21.6 14.15L25.85 18.4Z" fill="#2A3647"/>
</g>
<path d="M41.4091 25.5V13.8636H48.4318V15.1136H42.8182V19.0455H48.0682V20.2955H42.8182V24.25H48.5227V25.5H41.4091ZM54.0852 25.6818C53.358 25.6818 52.7159 25.4981 52.1591 25.1307C51.6023 24.7595 51.1667 24.2367 50.8523 23.5625C50.5379 22.8845 50.3807 22.0833 50.3807 21.1591C50.3807 20.2424 50.5379 19.447 50.8523 18.7727C51.1667 18.0985 51.6042 17.5777 52.1648 17.2102C52.7254 16.8428 53.3731 16.6591 54.108 16.6591C54.6761 16.6591 55.125 16.7538 55.4545 16.9432C55.7879 17.1288 56.0417 17.3409 56.2159 17.5795C56.3939 17.8144 56.5322 18.0076 56.6307 18.1591H56.7443V13.8636H58.0852V25.5H56.7898V24.1591H56.6307C56.5322 24.3182 56.392 24.5189 56.2102 24.7614C56.0284 25 55.7689 25.214 55.4318 25.4034C55.0947 25.589 54.6458 25.6818 54.0852 25.6818ZM54.267 24.4773C54.8049 24.4773 55.2595 24.3371 55.6307 24.0568C56.0019 23.7727 56.2841 23.3807 56.4773 22.8807C56.6705 22.3769 56.767 21.7955 56.767 21.1364C56.767 20.4848 56.6723 19.9148 56.483 19.4261C56.2936 18.9337 56.0133 18.5511 55.642 18.2784C55.2708 18.0019 54.8125 17.8636 54.267 17.8636C53.6989 17.8636 53.2254 18.0095 52.8466 18.3011C52.4716 18.589 52.1894 18.9811 52 19.4773C51.8144 19.9697 51.7216 20.5227 51.7216 21.1364C51.7216 21.7576 51.8163 22.322 52.0057 22.8295C52.1989 23.3333 52.483 23.7348 52.858 24.0341C53.2367 24.3295 53.7064 24.4773 54.267 24.4773ZM60.7273 25.5V16.7727H62.0682V25.5H60.7273ZM61.4091 15.3182C61.1477 15.3182 60.9223 15.2292 60.733 15.0511C60.5473 14.8731 60.4545 14.6591 60.4545 14.4091C60.4545 14.1591 60.5473 13.9451 60.733 13.767C60.9223 13.589 61.1477 13.5 61.4091 13.5C61.6705 13.5 61.8939 13.589 62.0795 13.767C62.2689 13.9451 62.3636 14.1591 62.3636 14.4091C62.3636 14.6591 62.2689 14.8731 62.0795 15.0511C61.8939 15.2292 61.6705 15.3182 61.4091 15.3182ZM68.3196 16.7727V17.9091H63.7969V16.7727H68.3196ZM65.1151 14.6818H66.456V23C66.456 23.3788 66.5109 23.6629 66.6207 23.8523C66.7344 24.0379 66.8783 24.1629 67.0526 24.2273C67.2306 24.2879 67.4181 24.3182 67.6151 24.3182C67.7628 24.3182 67.884 24.3106 67.9787 24.2955C68.0734 24.2765 68.1491 24.2614 68.206 24.25L68.4787 25.4545C68.3878 25.4886 68.2609 25.5227 68.098 25.5568C67.9351 25.5947 67.7287 25.6136 67.4787 25.6136C67.0999 25.6136 66.7287 25.5322 66.3651 25.3693C66.0052 25.2064 65.706 24.9583 65.4673 24.625C65.2325 24.2917 65.1151 23.8712 65.1151 23.3636V14.6818Z" fill="#2A3647"/>
</svg>
