<svg width="83" height="51" viewBox="0 0 83 51" fill="none" xmlns="http://www.w3.org/2000/svg">
<rect x="1" y="0.5" width="81" height="50" rx="9.5" stroke="#2A3647"/>
<path d="M16.75 32.5H12.2614V17.9545H16.9489C18.3598 17.9545 19.5672 18.2457 20.571 18.8281C21.5748 19.4058 22.3442 20.2367 22.8793 21.321C23.4143 22.4006 23.6818 23.6932 23.6818 25.1989C23.6818 26.714 23.4119 28.0185 22.8722 29.1122C22.3324 30.2012 21.5464 31.0393 20.5142 31.6264C19.482 32.2088 18.2273 32.5 16.75 32.5ZM14.0227 30.9375H16.6364C17.839 30.9375 18.8357 30.7055 19.6264 30.2415C20.4171 29.7775 21.0066 29.117 21.3949 28.2599C21.7831 27.4029 21.9773 26.3826 21.9773 25.1989C21.9773 24.0246 21.7855 23.0137 21.402 22.1662C21.0185 21.3139 20.4455 20.6605 19.6832 20.206C18.9209 19.7467 17.9716 19.517 16.8352 19.517H14.0227V30.9375ZM30.983 32.7273C29.9318 32.7273 29.0251 32.4953 28.2628 32.0312C27.5052 31.5625 26.9205 30.9091 26.5085 30.071C26.1013 29.2282 25.8977 28.2481 25.8977 27.1307C25.8977 26.0133 26.1013 25.0284 26.5085 24.1761C26.9205 23.3191 27.4934 22.6515 28.2273 22.1733C28.9659 21.6903 29.8277 21.4489 30.8125 21.4489C31.3807 21.4489 31.9418 21.5436 32.4957 21.733C33.0497 21.9223 33.554 22.2301 34.0085 22.6562C34.4631 23.0777 34.8253 23.6364 35.0952 24.3324C35.3651 25.0284 35.5 25.8854 35.5 26.9034V27.6136H27.0909V26.1648H33.7955C33.7955 25.5492 33.6723 25 33.4261 24.517C33.1847 24.0341 32.839 23.6529 32.3892 23.3736C31.9441 23.0942 31.4186 22.9545 30.8125 22.9545C30.1449 22.9545 29.5672 23.1203 29.0795 23.4517C28.5966 23.7784 28.2249 24.2045 27.9645 24.7301C27.7041 25.2557 27.5739 25.8191 27.5739 26.4205V27.3864C27.5739 28.2102 27.7159 28.9086 28 29.4815C28.2888 30.0497 28.6889 30.483 29.2003 30.7812C29.7116 31.0748 30.3059 31.2216 30.983 31.2216C31.4233 31.2216 31.821 31.16 32.1761 31.0369C32.536 30.9091 32.8461 30.7197 33.1065 30.4688C33.367 30.2131 33.5682 29.8958 33.7102 29.517L35.3295 29.9716C35.1591 30.5208 34.8726 31.0038 34.4702 31.4205C34.0677 31.8324 33.5705 32.1544 32.9787 32.3864C32.3868 32.6136 31.7216 32.7273 30.983 32.7273ZM39.7259 17.9545V32.5H38.0497V17.9545H39.7259ZM47.3697 32.7273C46.3185 32.7273 45.4118 32.4953 44.6495 32.0312C43.8919 31.5625 43.3072 30.9091 42.8952 30.071C42.488 29.2282 42.2844 28.2481 42.2844 27.1307C42.2844 26.0133 42.488 25.0284 42.8952 24.1761C43.3072 23.3191 43.8801 22.6515 44.614 22.1733C45.3526 21.6903 46.2144 21.4489 47.1992 21.4489C47.7674 21.4489 48.3285 21.5436 48.8825 21.733C49.4364 21.9223 49.9407 22.2301 50.3952 22.6562C50.8498 23.0777 51.212 23.6364 51.4819 24.3324C51.7518 25.0284 51.8867 25.8854 51.8867 26.9034V27.6136H43.4776V26.1648H50.1822C50.1822 25.5492 50.0591 25 49.8129 24.517C49.5714 24.0341 49.2257 23.6529 48.7759 23.3736C48.3308 23.0942 47.8053 22.9545 47.1992 22.9545C46.5316 22.9545 45.954 23.1203 45.4663 23.4517C44.9833 23.7784 44.6116 24.2045 44.3512 24.7301C44.0908 25.2557 43.9606 25.8191 43.9606 26.4205V27.3864C43.9606 28.2102 44.1026 28.9086 44.3867 29.4815C44.6755 30.0497 45.0756 30.483 45.587 30.7812C46.0984 31.0748 46.6926 31.2216 47.3697 31.2216C47.81 31.2216 48.2077 31.16 48.5629 31.0369C48.9227 30.9091 49.2328 30.7197 49.4933 30.4688C49.7537 30.2131 49.9549 29.8958 50.0969 29.517L51.7163 29.9716C51.5458 30.5208 51.2594 31.0038 50.8569 31.4205C50.4544 31.8324 49.9573 32.1544 49.3654 32.3864C48.7736 32.6136 48.1083 32.7273 47.3697 32.7273ZM59.1808 21.5909V23.0114H53.5273V21.5909H59.1808ZM55.1751 18.9773H56.8512V29.375C56.8512 29.8485 56.9199 30.2036 57.0572 30.4403C57.1992 30.6723 57.3791 30.8286 57.5969 30.9091C57.8195 30.9848 58.0539 31.0227 58.3001 31.0227C58.4847 31.0227 58.6362 31.0133 58.7546 30.9943C58.873 30.9706 58.9677 30.9517 59.0387 30.9375L59.3796 32.4432C59.266 32.4858 59.1074 32.5284 58.9038 32.571C58.7002 32.6184 58.4421 32.642 58.1296 32.642C57.6561 32.642 57.1921 32.5402 56.7376 32.3366C56.2878 32.133 55.9137 31.8229 55.6154 31.4062C55.3219 30.9896 55.1751 30.464 55.1751 29.8295V18.9773ZM66.1587 32.7273C65.1076 32.7273 64.2009 32.4953 63.4386 32.0312C62.681 31.5625 62.0962 30.9091 61.6843 30.071C61.2771 29.2282 61.0735 28.2481 61.0735 27.1307C61.0735 26.0133 61.2771 25.0284 61.6843 24.1761C62.0962 23.3191 62.6692 22.6515 63.4031 22.1733C64.1417 21.6903 65.0034 21.4489 65.9883 21.4489C66.5565 21.4489 67.1175 21.5436 67.6715 21.733C68.2255 21.9223 68.7298 22.2301 69.1843 22.6562C69.6388 23.0777 70.0011 23.6364 70.271 24.3324C70.5408 25.0284 70.6758 25.8854 70.6758 26.9034V27.6136H62.2667V26.1648H68.9712C68.9712 25.5492 68.8481 25 68.6019 24.517C68.3604 24.0341 68.0148 23.6529 67.565 23.3736C67.1199 23.0942 66.5943 22.9545 65.9883 22.9545C65.3207 22.9545 64.743 23.1203 64.2553 23.4517C63.7724 23.7784 63.4007 24.2045 63.1403 24.7301C62.8799 25.2557 62.7496 25.8191 62.7496 26.4205V27.3864C62.7496 28.2102 62.8917 28.9086 63.1758 29.4815C63.4646 30.0497 63.8647 30.483 64.3761 30.7812C64.8874 31.0748 65.4817 31.2216 66.1587 31.2216C66.5991 31.2216 66.9968 31.16 67.3519 31.0369C67.7118 30.9091 68.0219 30.7197 68.2823 30.4688C68.5427 30.2131 68.744 29.8958 68.886 29.517L70.5053 29.9716C70.3349 30.5208 70.0484 31.0038 69.646 31.4205C69.2435 31.8324 68.7463 32.1544 68.1545 32.3864C67.5626 32.6136 66.8974 32.7273 66.1587 32.7273Z" fill="#2A3647"/>
</svg>
