<svg width="252" height="43" viewBox="0 0 252 43" fill="none" xmlns="http://www.w3.org/2000/svg">
<path d="M21.5682 17C21.2869 16.1392 20.9162 15.3679 20.456 14.6861C20.0043 13.9957 19.4631 13.4077 18.8324 12.9219C18.2102 12.4361 17.5028 12.0653 16.7102 11.8097C15.9176 11.554 15.0483 11.4261 14.1023 11.4261C12.5511 11.4261 11.1406 11.8267 9.87074 12.6278C8.60085 13.429 7.59091 14.6094 6.84091 16.169C6.09091 17.7287 5.71591 19.642 5.71591 21.9091C5.71591 24.1761 6.09517 26.0895 6.85369 27.6491C7.61222 29.2088 8.6392 30.3892 9.93466 31.1903C11.2301 31.9915 12.6875 32.392 14.3068 32.392C15.8068 32.392 17.1278 32.0724 18.2699 31.4332C19.4205 30.7855 20.3153 29.8736 20.9545 28.6974C21.6023 27.5128 21.9261 26.1193 21.9261 24.517L22.8977 24.7216H15.0227V21.9091H24.9943V24.7216C24.9943 26.8778 24.5341 28.7528 23.6136 30.3466C22.7017 31.9403 21.4403 33.1761 19.8295 34.054C18.2273 34.9233 16.3864 35.358 14.3068 35.358C11.9886 35.358 9.9517 34.8125 8.19602 33.7216C6.44886 32.6307 5.08523 31.0795 4.10511 29.0682C3.13352 27.0568 2.64773 24.6705 2.64773 21.9091C2.64773 19.8381 2.92472 17.9759 3.47869 16.3224C4.04119 14.6605 4.83381 13.2457 5.85653 12.0781C6.87926 10.9105 8.08949 10.0156 9.48722 9.39347C10.8849 8.77131 12.4233 8.46023 14.1023 8.46023C15.483 8.46023 16.7699 8.66903 17.9631 9.08665C19.1648 9.49574 20.2344 10.0795 21.1719 10.8381C22.1179 11.5881 22.9063 12.4872 23.5369 13.5355C24.1676 14.5753 24.6023 15.7301 24.8409 17H21.5682ZM37.9925 35.4091C36.2198 35.4091 34.6644 34.9872 33.3263 34.1435C31.9968 33.2997 30.957 32.1193 30.207 30.6023C29.4656 29.0852 29.0948 27.3125 29.0948 25.2841C29.0948 23.2386 29.4656 21.4531 30.207 19.9276C30.957 18.402 31.9968 17.2173 33.3263 16.3736C34.6644 15.5298 36.2198 15.108 37.9925 15.108C39.7653 15.108 41.3164 15.5298 42.646 16.3736C43.984 17.2173 45.0238 18.402 45.7653 19.9276C46.5153 21.4531 46.8903 23.2386 46.8903 25.2841C46.8903 27.3125 46.5153 29.0852 45.7653 30.6023C45.0238 32.1193 43.984 33.2997 42.646 34.1435C41.3164 34.9872 39.7653 35.4091 37.9925 35.4091ZM37.9925 32.6989C39.3391 32.6989 40.4471 32.3537 41.3164 31.6634C42.1857 30.973 42.8292 30.0653 43.2468 28.9403C43.6644 27.8153 43.8732 26.5966 43.8732 25.2841C43.8732 23.9716 43.6644 22.7486 43.2468 21.6151C42.8292 20.4815 42.1857 19.5653 41.3164 18.8665C40.4471 18.1676 39.3391 17.8182 37.9925 17.8182C36.646 17.8182 35.538 18.1676 34.6687 18.8665C33.7994 19.5653 33.1559 20.4815 32.7383 21.6151C32.3207 22.7486 32.1119 23.9716 32.1119 25.2841C32.1119 26.5966 32.3207 27.8153 32.7383 28.9403C33.1559 30.0653 33.7994 30.973 34.6687 31.6634C35.538 32.3537 36.646 32.6989 37.9925 32.6989ZM59.473 35.4091C57.7003 35.4091 56.1449 34.9872 54.8068 34.1435C53.4773 33.2997 52.4375 32.1193 51.6875 30.6023C50.946 29.0852 50.5753 27.3125 50.5753 25.2841C50.5753 23.2386 50.946 21.4531 51.6875 19.9276C52.4375 18.402 53.4773 17.2173 54.8068 16.3736C56.1449 15.5298 57.7003 15.108 59.473 15.108C61.2457 15.108 62.7969 15.5298 64.1264 16.3736C65.4645 17.2173 66.5043 18.402 67.2457 19.9276C67.9957 21.4531 68.3707 23.2386 68.3707 25.2841C68.3707 27.3125 67.9957 29.0852 67.2457 30.6023C66.5043 32.1193 65.4645 33.2997 64.1264 34.1435C62.7969 34.9872 61.2457 35.4091 59.473 35.4091ZM59.473 32.6989C60.8196 32.6989 61.9276 32.3537 62.7969 31.6634C63.6662 30.973 64.3097 30.0653 64.7273 28.9403C65.1449 27.8153 65.3537 26.5966 65.3537 25.2841C65.3537 23.9716 65.1449 22.7486 64.7273 21.6151C64.3097 20.4815 63.6662 19.5653 62.7969 18.8665C61.9276 18.1676 60.8196 17.8182 59.473 17.8182C58.1264 17.8182 57.0185 18.1676 56.1491 18.8665C55.2798 19.5653 54.6364 20.4815 54.2188 21.6151C53.8011 22.7486 53.5923 23.9716 53.5923 25.2841C53.5923 26.5966 53.8011 27.8153 54.2188 28.9403C54.6364 30.0653 55.2798 30.973 56.1491 31.6634C57.0185 32.3537 58.1264 32.6989 59.473 32.6989ZM80.391 35.4091C78.7546 35.4091 77.31 34.9957 76.0572 34.169C74.8043 33.3338 73.8242 32.1577 73.1168 30.6406C72.4094 29.1151 72.0558 27.3125 72.0558 25.233C72.0558 23.1705 72.4094 21.3807 73.1168 19.8636C73.8242 18.3466 74.8086 17.1747 76.07 16.348C77.3313 15.5213 78.7887 15.108 80.4421 15.108C81.7205 15.108 82.7305 15.321 83.4719 15.7472C84.2219 16.1648 84.793 16.642 85.185 17.179C85.5856 17.7074 85.8967 18.142 86.1183 18.483H86.3739V8.81818H89.391V35H86.4762V31.983H86.1183C85.8967 32.3409 85.5813 32.7926 85.1722 33.3381C84.7631 33.875 84.1793 34.3565 83.4208 34.7827C82.6623 35.2003 81.6523 35.4091 80.391 35.4091ZM80.8001 32.6989C82.0103 32.6989 83.033 32.3835 83.8683 31.7528C84.7035 31.1136 85.3384 30.2315 85.7731 29.1065C86.2077 27.973 86.4251 26.6648 86.4251 25.1818C86.4251 23.7159 86.212 22.4332 85.7859 21.3338C85.3597 20.2259 84.729 19.3651 83.8938 18.7514C83.0586 18.1293 82.0273 17.8182 80.8001 17.8182C79.5217 17.8182 78.4563 18.1463 77.604 18.8026C76.7603 19.4503 76.1254 20.3324 75.6992 21.4489C75.2816 22.5568 75.0728 23.8011 75.0728 25.1818C75.0728 26.5795 75.2859 27.8494 75.712 28.9915C76.1467 30.125 76.7859 31.0284 77.6296 31.7017C78.4819 32.3665 79.5387 32.6989 80.8001 32.6989ZM105.461 35V15.3636H108.375V18.4318H108.631C109.04 17.3835 109.701 16.5696 110.613 15.9901C111.525 15.402 112.62 15.108 113.898 15.108C115.194 15.108 116.272 15.402 117.132 15.9901C118.002 16.5696 118.679 17.3835 119.165 18.4318H119.37C119.873 17.4176 120.627 16.6122 121.632 16.0156C122.638 15.4105 123.844 15.108 125.25 15.108C127.006 15.108 128.442 15.6577 129.559 16.7571C130.675 17.848 131.233 19.5483 131.233 21.858V35H128.216V21.858C128.216 20.4091 127.82 19.3736 127.027 18.7514C126.235 18.1293 125.301 17.8182 124.228 17.8182C122.847 17.8182 121.777 18.2358 121.019 19.071C120.26 19.8977 119.881 20.946 119.881 22.2159V35H116.813V21.5511C116.813 20.4347 116.451 19.5355 115.726 18.8537C115.002 18.1634 114.069 17.8182 112.926 17.8182C112.142 17.8182 111.409 18.027 110.728 18.4446C110.054 18.8622 109.509 19.4418 109.091 20.1832C108.682 20.9162 108.478 21.7642 108.478 22.7273V35H105.461ZM144.727 35.4091C142.954 35.4091 141.399 34.9872 140.061 34.1435C138.731 33.2997 137.691 32.1193 136.941 30.6023C136.2 29.0852 135.829 27.3125 135.829 25.2841C135.829 23.2386 136.2 21.4531 136.941 19.9276C137.691 18.402 138.731 17.2173 140.061 16.3736C141.399 15.5298 142.954 15.108 144.727 15.108C146.5 15.108 148.051 15.5298 149.38 16.3736C150.718 17.2173 151.758 18.402 152.5 19.9276C153.25 21.4531 153.625 23.2386 153.625 25.2841C153.625 27.3125 153.25 29.0852 152.5 30.6023C151.758 32.1193 150.718 33.2997 149.38 34.1435C148.051 34.9872 146.5 35.4091 144.727 35.4091ZM144.727 32.6989C146.074 32.6989 147.181 32.3537 148.051 31.6634C148.92 30.973 149.564 30.0653 149.981 28.9403C150.399 27.8153 150.608 26.5966 150.608 25.2841C150.608 23.9716 150.399 22.7486 149.981 21.6151C149.564 20.4815 148.92 19.5653 148.051 18.8665C147.181 18.1676 146.074 17.8182 144.727 17.8182C143.38 17.8182 142.272 18.1676 141.403 18.8665C140.534 19.5653 139.89 20.4815 139.473 21.6151C139.055 22.7486 138.846 23.9716 138.846 25.2841C138.846 26.5966 139.055 27.8153 139.473 28.9403C139.89 30.0653 140.534 30.973 141.403 31.6634C142.272 32.3537 143.38 32.6989 144.727 32.6989ZM158.23 35V15.3636H161.145V18.3295H161.349C161.707 17.358 162.355 16.5696 163.293 15.9645C164.23 15.3594 165.287 15.0568 166.463 15.0568C166.685 15.0568 166.962 15.0611 167.294 15.0696C167.626 15.0781 167.878 15.0909 168.048 15.108V18.1761C167.946 18.1506 167.712 18.1122 167.345 18.0611C166.987 18.0014 166.608 17.9716 166.207 17.9716C165.253 17.9716 164.401 18.1719 163.651 18.5724C162.909 18.9645 162.321 19.5099 161.886 20.2088C161.46 20.8991 161.247 21.6875 161.247 22.5739V35H158.23ZM174.642 23.1875V35H171.625V15.3636H174.539V18.4318H174.795C175.255 17.4347 175.954 16.6335 176.892 16.0284C177.829 15.4148 179.039 15.108 180.522 15.108C181.852 15.108 183.015 15.3807 184.012 15.9261C185.01 16.4631 185.785 17.2812 186.339 18.3807C186.893 19.4716 187.17 20.8523 187.17 22.5227V35H184.153V22.7273C184.153 21.1847 183.752 19.983 182.951 19.1222C182.15 18.2528 181.051 17.8182 179.653 17.8182C178.69 17.8182 177.829 18.027 177.071 18.4446C176.321 18.8622 175.728 19.4716 175.294 20.2727C174.859 21.0739 174.642 22.0455 174.642 23.1875ZM192.683 35V15.3636H195.7V35H192.683ZM194.217 12.0909C193.629 12.0909 193.122 11.8906 192.696 11.4901C192.278 11.0895 192.07 10.608 192.07 10.0455C192.07 9.48295 192.278 9.00142 192.696 8.60085C193.122 8.20028 193.629 8 194.217 8C194.805 8 195.308 8.20028 195.726 8.60085C196.152 9.00142 196.365 9.48295 196.365 10.0455C196.365 10.608 196.152 11.0895 195.726 11.4901C195.308 11.8906 194.805 12.0909 194.217 12.0909ZM204.243 23.1875V35H201.226V15.3636H204.141V18.4318H204.397C204.857 17.4347 205.556 16.6335 206.493 16.0284C207.431 15.4148 208.641 15.108 210.124 15.108C211.453 15.108 212.617 15.3807 213.614 15.9261C214.611 16.4631 215.387 17.2812 215.941 18.3807C216.495 19.4716 216.772 20.8523 216.772 22.5227V35H213.755V22.7273C213.755 21.1847 213.354 19.983 212.553 19.1222C211.752 18.2528 210.652 17.8182 209.255 17.8182C208.292 17.8182 207.431 18.027 206.672 18.4446C205.922 18.8622 205.33 19.4716 204.895 20.2727C204.461 21.0739 204.243 22.0455 204.243 23.1875ZM230.211 42.7727C228.754 42.7727 227.501 42.5852 226.452 42.2102C225.404 41.8438 224.531 41.358 223.832 40.7528C223.141 40.1563 222.592 39.517 222.183 38.8352L224.586 37.1477C224.859 37.5057 225.204 37.9148 225.621 38.375C226.039 38.8438 226.61 39.2486 227.335 39.5895C228.067 39.9389 229.026 40.1136 230.211 40.1136C231.796 40.1136 233.104 39.7301 234.136 38.9631C235.167 38.196 235.683 36.9943 235.683 35.358V31.3693H235.427C235.205 31.7273 234.89 32.1705 234.481 32.6989C234.08 33.2188 233.501 33.6832 232.742 34.0923C231.992 34.4929 230.978 34.6932 229.7 34.6932C228.114 34.6932 226.691 34.3182 225.43 33.5682C224.177 32.8182 223.184 31.7273 222.451 30.2955C221.727 28.8636 221.364 27.125 221.364 25.0795C221.364 23.0682 221.718 21.3168 222.425 19.8253C223.133 18.3253 224.117 17.1662 225.379 16.348C226.64 15.5213 228.097 15.108 229.751 15.108C231.029 15.108 232.043 15.321 232.793 15.7472C233.552 16.1648 234.131 16.642 234.532 17.179C234.941 17.7074 235.256 18.142 235.478 18.483H235.785V15.3636H238.7V35.5625C238.7 37.25 238.316 38.6222 237.549 39.679C236.79 40.7443 235.768 41.5241 234.481 42.0185C233.202 42.5213 231.779 42.7727 230.211 42.7727ZM230.109 31.983C231.319 31.983 232.342 31.706 233.177 31.152C234.012 30.598 234.647 29.8011 235.082 28.7614C235.516 27.7216 235.734 26.4773 235.734 25.0284C235.734 23.6136 235.521 22.3651 235.094 21.2827C234.668 20.2003 234.038 19.3523 233.202 18.7386C232.367 18.125 231.336 17.8182 230.109 17.8182C228.83 17.8182 227.765 18.142 226.913 18.7898C226.069 19.4375 225.434 20.3068 225.008 21.3977C224.59 22.4886 224.381 23.6989 224.381 25.0284C224.381 26.392 224.594 27.598 225.021 28.6463C225.455 29.6861 226.094 30.5043 226.938 31.1009C227.79 31.6889 228.847 31.983 230.109 31.983ZM248.211 8.81818L247.955 27.6364H244.989L244.734 8.81818H248.211ZM246.472 35.2045C245.842 35.2045 245.3 34.9787 244.849 34.527C244.397 34.0753 244.171 33.5341 244.171 32.9034C244.171 32.2727 244.397 31.7315 244.849 31.2798C245.3 30.8281 245.842 30.6023 246.472 30.6023C247.103 30.6023 247.644 30.8281 248.096 31.2798C248.548 31.7315 248.773 32.2727 248.773 32.9034C248.773 33.321 248.667 33.7045 248.454 34.054C248.249 34.4034 247.972 34.6847 247.623 34.8977C247.282 35.1023 246.898 35.2045 246.472 35.2045Z" fill="#2A3647"/>
</svg>
