<svg width="40" height="40" viewBox="0 0 40 40" fill="none" xmlns="http://www.w3.org/2000/svg">
<g id="Group 13">
<circle id="Ellipse 14" cx="20" cy="20" r="16" fill="white"/>
<circle id="Ellipse 13" cx="20" cy="20" r="19" stroke="#2A3647" stroke-width="2"/>
<g id="SM">
<path d="M15.5515 17.8203C15.5115 17.4165 15.3396 17.1028 15.036 16.8793C14.7323 16.6557 14.3202 16.5439 13.7996 16.5439C13.4459 16.5439 13.1473 16.5939 12.9037 16.6941C12.6601 16.7908 12.4732 16.926 12.3431 17.0995C12.2163 17.273 12.1529 17.4699 12.1529 17.6901C12.1462 17.8737 12.1846 18.0338 12.268 18.1707C12.3547 18.3075 12.4732 18.4259 12.6234 18.526C12.7735 18.6228 12.947 18.7079 13.1439 18.7813C13.3408 18.8514 13.551 18.9115 13.7746 18.9615L14.6956 19.1817C15.1428 19.2819 15.5532 19.4153 15.9269 19.5822C16.3007 19.749 16.6244 19.9542 16.898 20.1978C17.1716 20.4414 17.3835 20.7284 17.5337 21.0588C17.6872 21.3891 17.7656 21.7679 17.7689 22.195C17.7656 22.8223 17.6054 23.3663 17.2884 23.8268C16.9747 24.2839 16.5209 24.6393 15.9269 24.8929C15.3363 25.1432 14.6239 25.2683 13.7896 25.2683C12.9621 25.2683 12.2413 25.1415 11.6273 24.8879C11.0166 24.6343 10.5394 24.2589 10.1957 23.7617C9.85537 23.2612 9.67684 22.6422 9.66016 21.9047H11.7574C11.7808 22.2484 11.8792 22.5354 12.0527 22.7656C12.2296 22.9925 12.4649 23.1644 12.7585 23.2812C13.0555 23.3946 13.3909 23.4514 13.7646 23.4514C14.1317 23.4514 14.4503 23.398 14.7206 23.2912C14.9943 23.1844 15.2062 23.0359 15.3563 22.8457C15.5065 22.6555 15.5816 22.4369 15.5816 22.19C15.5816 21.9597 15.5132 21.7662 15.3763 21.6094C15.2429 21.4525 15.046 21.3191 14.7857 21.2089C14.5288 21.0988 14.2134 20.9987 13.8397 20.9086L12.7235 20.6283C11.8592 20.4181 11.1768 20.0894 10.6763 19.6422C10.1757 19.1951 9.92711 18.5928 9.93045 17.8353C9.92711 17.2146 10.0923 16.6724 10.426 16.2085C10.763 15.7447 11.2252 15.3826 11.8125 15.1224C12.3998 14.8621 13.0672 14.7319 13.8146 14.7319C14.5755 14.7319 15.2395 14.8621 15.8068 15.1224C16.3774 15.3826 16.8212 15.7447 17.1382 16.2085C17.4553 16.6724 17.6188 17.2096 17.6288 17.8203H15.5515Z" fill="#29ABE2"/>
<path d="M19.2267 14.8721H21.8996L24.7227 21.7595H24.8428L27.6659 14.8721H30.3388V25.1232H28.2365V18.451H28.1514L25.4985 25.0731H24.067L21.4141 18.4259H21.329V25.1232H19.2267V14.8721Z" fill="#29ABE2"/>
</g>
</g>
</svg>
