<svg width="247" height="35" viewBox="0 0 247 35" fill="none" xmlns="http://www.w3.org/2000/svg">
<path d="M19.0682 9C18.7869 8.1392 18.4162 7.3679 17.956 6.68608C17.5043 5.99574 16.9631 5.40767 16.3324 4.92188C15.7102 4.43608 15.0028 4.06534 14.2102 3.80966C13.4176 3.55398 12.5483 3.42614 11.6023 3.42614C10.0511 3.42614 8.64063 3.8267 7.37074 4.62784C6.10085 5.42898 5.09091 6.60938 4.34091 8.16903C3.59091 9.72869 3.21591 11.642 3.21591 13.9091C3.21591 16.1761 3.59517 18.0895 4.35369 19.6491C5.11222 21.2088 6.1392 22.3892 7.43466 23.1903C8.73011 23.9915 10.1875 24.392 11.8068 24.392C13.3068 24.392 14.6278 24.0724 15.7699 23.4332C16.9205 22.7855 17.8153 21.8736 18.4545 20.6974C19.1023 19.5128 19.4261 18.1193 19.4261 16.517L20.3977 16.7216H12.5227V13.9091H22.4943V16.7216C22.4943 18.8778 22.0341 20.7528 21.1136 22.3466C20.2017 23.9403 18.9403 25.1761 17.3295 26.054C15.7273 26.9233 13.8864 27.358 11.8068 27.358C9.48864 27.358 7.4517 26.8125 5.69602 25.7216C3.94886 24.6307 2.58523 23.0795 1.60511 21.0682C0.633523 19.0568 0.147727 16.6705 0.147727 13.9091C0.147727 11.8381 0.424716 9.97585 0.978693 8.32244C1.54119 6.66051 2.33381 5.24574 3.35653 4.07812C4.37926 2.91051 5.58949 2.01563 6.98722 1.39347C8.38494 0.771306 9.9233 0.460226 11.6023 0.460226C12.983 0.460226 14.2699 0.669033 15.4631 1.08665C16.6648 1.49574 17.7344 2.07954 18.6719 2.83807C19.6179 3.58807 20.4063 4.48721 21.0369 5.53551C21.6676 6.57528 22.1023 7.73011 22.3409 9H19.0682ZM35.4925 27.4091C33.7198 27.4091 32.1644 26.9872 30.8263 26.1435C29.4968 25.2997 28.457 24.1193 27.707 22.6023C26.9656 21.0852 26.5948 19.3125 26.5948 17.2841C26.5948 15.2386 26.9656 13.4531 27.707 11.9276C28.457 10.402 29.4968 9.21733 30.8263 8.37358C32.1644 7.52983 33.7198 7.10795 35.4925 7.10795C37.2653 7.10795 38.8164 7.52983 40.146 8.37358C41.484 9.21733 42.5238 10.402 43.2653 11.9276C44.0153 13.4531 44.3903 15.2386 44.3903 17.2841C44.3903 19.3125 44.0153 21.0852 43.2653 22.6023C42.5238 24.1193 41.484 25.2997 40.146 26.1435C38.8164 26.9872 37.2653 27.4091 35.4925 27.4091ZM35.4925 24.6989C36.8391 24.6989 37.9471 24.3537 38.8164 23.6634C39.6857 22.973 40.3292 22.0653 40.7468 20.9403C41.1644 19.8153 41.3732 18.5966 41.3732 17.2841C41.3732 15.9716 41.1644 14.7486 40.7468 13.6151C40.3292 12.4815 39.6857 11.5653 38.8164 10.8665C37.9471 10.1676 36.8391 9.81818 35.4925 9.81818C34.146 9.81818 33.038 10.1676 32.1687 10.8665C31.2994 11.5653 30.6559 12.4815 30.2383 13.6151C29.8207 14.7486 29.6119 15.9716 29.6119 17.2841C29.6119 18.5966 29.8207 19.8153 30.2383 20.9403C30.6559 22.0653 31.2994 22.973 32.1687 23.6634C33.038 24.3537 34.146 24.6989 35.4925 24.6989ZM56.973 27.4091C55.2003 27.4091 53.6449 26.9872 52.3068 26.1435C50.9773 25.2997 49.9375 24.1193 49.1875 22.6023C48.446 21.0852 48.0753 19.3125 48.0753 17.2841C48.0753 15.2386 48.446 13.4531 49.1875 11.9276C49.9375 10.402 50.9773 9.21733 52.3068 8.37358C53.6449 7.52983 55.2003 7.10795 56.973 7.10795C58.7457 7.10795 60.2969 7.52983 61.6264 8.37358C62.9645 9.21733 64.0043 10.402 64.7457 11.9276C65.4957 13.4531 65.8707 15.2386 65.8707 17.2841C65.8707 19.3125 65.4957 21.0852 64.7457 22.6023C64.0043 24.1193 62.9645 25.2997 61.6264 26.1435C60.2969 26.9872 58.7457 27.4091 56.973 27.4091ZM56.973 24.6989C58.3196 24.6989 59.4276 24.3537 60.2969 23.6634C61.1662 22.973 61.8097 22.0653 62.2273 20.9403C62.6449 19.8153 62.8537 18.5966 62.8537 17.2841C62.8537 15.9716 62.6449 14.7486 62.2273 13.6151C61.8097 12.4815 61.1662 11.5653 60.2969 10.8665C59.4276 10.1676 58.3196 9.81818 56.973 9.81818C55.6264 9.81818 54.5185 10.1676 53.6491 10.8665C52.7798 11.5653 52.1364 12.4815 51.7188 13.6151C51.3011 14.7486 51.0923 15.9716 51.0923 17.2841C51.0923 18.5966 51.3011 19.8153 51.7188 20.9403C52.1364 22.0653 52.7798 22.973 53.6491 23.6634C54.5185 24.3537 55.6264 24.6989 56.973 24.6989ZM77.891 27.4091C76.2546 27.4091 74.81 26.9957 73.5572 26.169C72.3043 25.3338 71.3242 24.1577 70.6168 22.6406C69.9094 21.1151 69.5558 19.3125 69.5558 17.233C69.5558 15.1705 69.9094 13.3807 70.6168 11.8636C71.3242 10.3466 72.3086 9.17472 73.57 8.34801C74.8313 7.52131 76.2887 7.10795 77.9421 7.10795C79.2205 7.10795 80.2305 7.32102 80.9719 7.74716C81.7219 8.16477 82.293 8.64205 82.685 9.17898C83.0856 9.70739 83.3967 10.142 83.6183 10.483H83.8739V0.818181H86.891V27H83.9762V23.983H83.6183C83.3967 24.3409 83.0813 24.7926 82.6722 25.3381C82.2631 25.875 81.6793 26.3565 80.9208 26.7827C80.1623 27.2003 79.1523 27.4091 77.891 27.4091ZM78.3001 24.6989C79.5103 24.6989 80.533 24.3835 81.3683 23.7528C82.2035 23.1136 82.8384 22.2315 83.2731 21.1065C83.7077 19.973 83.9251 18.6648 83.9251 17.1818C83.9251 15.7159 83.712 14.4332 83.2859 13.3338C82.8597 12.2259 82.229 11.3651 81.3938 10.7514C80.5586 10.1293 79.5273 9.81818 78.3001 9.81818C77.0217 9.81818 75.9563 10.1463 75.104 10.8026C74.2603 11.4503 73.6254 12.3324 73.1992 13.4489C72.7816 14.5568 72.5728 15.8011 72.5728 17.1818C72.5728 18.5795 72.7859 19.8494 73.212 20.9915C73.6467 22.125 74.2859 23.0284 75.1296 23.7017C75.9819 24.3665 77.0387 24.6989 78.3001 24.6989ZM102.961 27V7.36364H105.875V10.4318H106.131C106.54 9.38352 107.201 8.5696 108.113 7.99006C109.025 7.40199 110.12 7.10795 111.398 7.10795C112.694 7.10795 113.772 7.40199 114.632 7.99006C115.502 8.5696 116.179 9.38352 116.665 10.4318H116.87C117.373 9.41761 118.127 8.61222 119.132 8.01562C120.138 7.41051 121.344 7.10795 122.75 7.10795C124.506 7.10795 125.942 7.65767 127.059 8.7571C128.175 9.84801 128.733 11.5483 128.733 13.858V27H125.716V13.858C125.716 12.4091 125.32 11.3736 124.527 10.7514C123.735 10.1293 122.801 9.81818 121.728 9.81818C120.347 9.81818 119.277 10.2358 118.519 11.071C117.76 11.8977 117.381 12.946 117.381 14.2159V27H114.313V13.5511C114.313 12.4347 113.951 11.5355 113.226 10.8537C112.502 10.1634 111.569 9.81818 110.426 9.81818C109.642 9.81818 108.909 10.027 108.228 10.4446C107.554 10.8622 107.009 11.4418 106.591 12.1832C106.182 12.9162 105.978 13.7642 105.978 14.7273V27H102.961ZM142.227 27.4091C140.454 27.4091 138.899 26.9872 137.561 26.1435C136.231 25.2997 135.191 24.1193 134.441 22.6023C133.7 21.0852 133.329 19.3125 133.329 17.2841C133.329 15.2386 133.7 13.4531 134.441 11.9276C135.191 10.402 136.231 9.21733 137.561 8.37358C138.899 7.52983 140.454 7.10795 142.227 7.10795C144 7.10795 145.551 7.52983 146.88 8.37358C148.218 9.21733 149.258 10.402 150 11.9276C150.75 13.4531 151.125 15.2386 151.125 17.2841C151.125 19.3125 150.75 21.0852 150 22.6023C149.258 24.1193 148.218 25.2997 146.88 26.1435C145.551 26.9872 144 27.4091 142.227 27.4091ZM142.227 24.6989C143.574 24.6989 144.681 24.3537 145.551 23.6634C146.42 22.973 147.064 22.0653 147.481 20.9403C147.899 19.8153 148.108 18.5966 148.108 17.2841C148.108 15.9716 147.899 14.7486 147.481 13.6151C147.064 12.4815 146.42 11.5653 145.551 10.8665C144.681 10.1676 143.574 9.81818 142.227 9.81818C140.88 9.81818 139.772 10.1676 138.903 10.8665C138.034 11.5653 137.39 12.4815 136.973 13.6151C136.555 14.7486 136.346 15.9716 136.346 17.2841C136.346 18.5966 136.555 19.8153 136.973 20.9403C137.39 22.0653 138.034 22.973 138.903 23.6634C139.772 24.3537 140.88 24.6989 142.227 24.6989ZM155.73 27V7.36364H158.645V10.3295H158.849C159.207 9.35795 159.855 8.5696 160.793 7.96449C161.73 7.35937 162.787 7.05682 163.963 7.05682C164.185 7.05682 164.462 7.06108 164.794 7.0696C165.126 7.07812 165.378 7.09091 165.548 7.10795V10.1761C165.446 10.1506 165.212 10.1122 164.845 10.0611C164.487 10.0014 164.108 9.97159 163.707 9.97159C162.753 9.97159 161.901 10.1719 161.151 10.5724C160.409 10.9645 159.821 11.5099 159.386 12.2088C158.96 12.8991 158.747 13.6875 158.747 14.5739V27H155.73ZM172.142 15.1875V27H169.125V7.36364H172.039V10.4318H172.295C172.755 9.43466 173.454 8.63352 174.392 8.02841C175.329 7.41477 176.539 7.10795 178.022 7.10795C179.352 7.10795 180.515 7.38068 181.512 7.92614C182.51 8.46307 183.285 9.28125 183.839 10.3807C184.393 11.4716 184.67 12.8523 184.67 14.5227V27H181.653V14.7273C181.653 13.1847 181.252 11.983 180.451 11.1222C179.65 10.2528 178.551 9.81818 177.153 9.81818C176.19 9.81818 175.329 10.027 174.571 10.4446C173.821 10.8622 173.228 11.4716 172.794 12.2727C172.359 13.0739 172.142 14.0455 172.142 15.1875ZM190.183 27V7.36364H193.2V27H190.183ZM191.717 4.09091C191.129 4.09091 190.622 3.89062 190.196 3.49006C189.778 3.08949 189.57 2.60795 189.57 2.04545C189.57 1.48295 189.778 1.00142 190.196 0.600851C190.622 0.200284 191.129 0 191.717 0C192.305 0 192.808 0.200284 193.226 0.600851C193.652 1.00142 193.865 1.48295 193.865 2.04545C193.865 2.60795 193.652 3.08949 193.226 3.49006C192.808 3.89062 192.305 4.09091 191.717 4.09091ZM201.743 15.1875V27H198.726V7.36364H201.641V10.4318H201.897C202.357 9.43466 203.056 8.63352 203.993 8.02841C204.931 7.41477 206.141 7.10795 207.624 7.10795C208.953 7.10795 210.117 7.38068 211.114 7.92614C212.111 8.46307 212.887 9.28125 213.441 10.3807C213.995 11.4716 214.272 12.8523 214.272 14.5227V27H211.255V14.7273C211.255 13.1847 210.854 11.983 210.053 11.1222C209.252 10.2528 208.152 9.81818 206.755 9.81818C205.792 9.81818 204.931 10.027 204.172 10.4446C203.422 10.8622 202.83 11.4716 202.395 12.2727C201.961 13.0739 201.743 14.0455 201.743 15.1875ZM227.711 34.7727C226.254 34.7727 225.001 34.5852 223.952 34.2102C222.904 33.8438 222.031 33.358 221.332 32.7528C220.641 32.1563 220.092 31.517 219.683 30.8352L222.086 29.1477C222.359 29.5057 222.704 29.9148 223.121 30.375C223.539 30.8438 224.11 31.2486 224.835 31.5895C225.567 31.9389 226.526 32.1136 227.711 32.1136C229.296 32.1136 230.604 31.7301 231.636 30.9631C232.667 30.196 233.183 28.9943 233.183 27.358V23.3693H232.927C232.705 23.7273 232.39 24.1705 231.981 24.6989C231.58 25.2188 231.001 25.6832 230.242 26.0923C229.492 26.4929 228.478 26.6932 227.2 26.6932C225.614 26.6932 224.191 26.3182 222.93 25.5682C221.677 24.8182 220.684 23.7273 219.951 22.2955C219.227 20.8636 218.864 19.125 218.864 17.0795C218.864 15.0682 219.218 13.3168 219.925 11.8253C220.633 10.3253 221.617 9.16619 222.879 8.34801C224.14 7.52131 225.597 7.10795 227.251 7.10795C228.529 7.10795 229.543 7.32102 230.293 7.74716C231.052 8.16477 231.631 8.64205 232.032 9.17898C232.441 9.70739 232.756 10.142 232.978 10.483H233.285V7.36364H236.2V27.5625C236.2 29.25 235.816 30.6222 235.049 31.679C234.29 32.7443 233.268 33.5241 231.981 34.0185C230.702 34.5213 229.279 34.7727 227.711 34.7727ZM227.609 23.983C228.819 23.983 229.842 23.706 230.677 23.152C231.512 22.598 232.147 21.8011 232.582 20.7614C233.016 19.7216 233.234 18.4773 233.234 17.0284C233.234 15.6136 233.021 14.3651 232.594 13.2827C232.168 12.2003 231.538 11.3523 230.702 10.7386C229.867 10.125 228.836 9.81818 227.609 9.81818C226.33 9.81818 225.265 10.142 224.413 10.7898C223.569 11.4375 222.934 12.3068 222.508 13.3977C222.09 14.4886 221.881 15.6989 221.881 17.0284C221.881 18.392 222.094 19.598 222.521 20.6463C222.955 21.6861 223.594 22.5043 224.438 23.1009C225.29 23.6889 226.347 23.983 227.609 23.983ZM246.222 23.4205L246.018 24.8011C245.873 25.7727 245.651 26.8125 245.353 27.9205C245.063 29.0284 244.761 30.0724 244.445 31.0526C244.13 32.0327 243.87 32.8125 243.665 33.392H241.364C241.475 32.8466 241.62 32.1264 241.799 31.2315C241.978 30.3366 242.157 29.3352 242.336 28.2273C242.523 27.1278 242.677 26.0028 242.796 24.8523L242.95 23.4205H246.222Z" fill="#2A3647"/>
</svg>
