<svg width="25" height="24" viewBox="0 0 25 24" fill="none" xmlns="http://www.w3.org/2000/svg">
<mask id="mask0_112530_7375" style="mask-type:alpha" maskUnits="userSpaceOnUse" x="0" y="0" width="25" height="24">
<rect x="0.144531" width="24" height="24" fill="#D9D9D9"/>
</mask>
<g mask="url(#mask0_112530_7375)">
<path d="M12.8446 10.3001L15.4446 12.9001C15.7612 13.2168 15.8321 13.5793 15.6571 13.9876C15.4821 14.3959 15.1696 14.6001 14.7196 14.6001H9.56956C9.11956 14.6001 8.80706 14.3959 8.63206 13.9876C8.45706 13.5793 8.52789 13.2168 8.84456 12.9001L11.4446 10.3001C11.5446 10.2001 11.6529 10.1251 11.7696 10.0751C11.8862 10.0251 12.0112 10.0001 12.1446 10.0001C12.2779 10.0001 12.4029 10.0251 12.5196 10.0751C12.6362 10.1251 12.7446 10.2001 12.8446 10.3001Z" fill="#2A3647"/>
</g>
</svg>
