<svg width="25" height="24" viewBox="0 0 25 24" fill="none" xmlns="http://www.w3.org/2000/svg">
<mask id="mask0_112501_1860" style="mask-type:alpha" maskUnits="userSpaceOnUse" x="0" y="0" width="25" height="24">
<rect x="0.144531" width="24" height="24" fill="#D9D9D9"/>
</mask>
<g mask="url(#mask0_112501_1860)">
<path d="M11.4445 14.3L8.84451 11.7C8.52784 11.3833 8.45701 11.0208 8.63201 10.6125C8.80701 10.2042 9.11951 10 9.56951 10H14.7195C15.1695 10 15.482 10.2042 15.657 10.6125C15.832 11.0208 15.7612 11.3833 15.4445 11.7L12.8445 14.3C12.7445 14.4 12.6362 14.475 12.5195 14.525C12.4028 14.575 12.2778 14.6 12.1445 14.6C12.0112 14.6 11.8862 14.575 11.7695 14.525C11.6528 14.475 11.5445 14.4 11.4445 14.3Z" fill="#2A3647"/>
</g>
</svg>
